<svg xmlns="http://www.w3.org/2000/svg" xmlns:xlink="http://www.w3.org/1999/xlink" width="1080" zoomAndPan="magnify" viewBox="0 0 810 809.999993" height="1080" preserveAspectRatio="xMidYMid meet" version="1.0"><defs><clipPath id="d7ac836c9b"><path d="M 24.546875 49 L 785.796875 49 L 785.796875 810 L 24.546875 810 Z M 24.546875 49 " clip-rule="nonzero"/></clipPath><clipPath id="a410e33a2d"><path d="M 24.546875 0 L 785.796875 0 L 785.796875 761 L 24.546875 761 Z M 24.546875 0 " clip-rule="nonzero"/></clipPath></defs><g clip-path="url(#d7ac836c9b)"><path fill="#000000" d="M 785.445312 429.546875 C 785.445312 435.769531 785.292969 441.992188 784.984375 448.210938 C 784.679688 454.433594 784.222656 460.640625 783.613281 466.835938 C 783 473.03125 782.238281 479.210938 781.324219 485.367188 C 780.414062 491.527344 779.347656 497.660156 778.132812 503.765625 C 776.917969 509.875 775.554688 515.945312 774.042969 521.988281 C 772.53125 528.027344 770.871094 534.027344 769.0625 539.984375 C 767.253906 545.941406 765.300781 551.851562 763.203125 557.714844 C 761.105469 563.578125 758.867188 569.382812 756.484375 575.136719 C 754.101562 580.890625 751.578125 586.578125 748.917969 592.207031 C 746.253906 597.835938 743.457031 603.394531 740.519531 608.886719 C 737.585938 614.378906 734.519531 619.792969 731.316406 625.136719 C 728.117188 630.476562 724.785156 635.734375 721.328125 640.910156 C 717.867188 646.089844 714.285156 651.175781 710.574219 656.179688 C 706.867188 661.179688 703.035156 666.085938 699.085938 670.898438 C 695.136719 675.710938 691.070312 680.425781 686.890625 685.039062 C 682.707031 689.652344 678.414062 694.160156 674.011719 698.5625 C 669.609375 702.964844 665.101562 707.257812 660.488281 711.4375 C 655.875 715.621094 651.160156 719.6875 646.347656 723.636719 C 641.535156 727.585938 636.628906 731.414062 631.628906 735.125 C 626.625 738.832031 621.539062 742.417969 616.359375 745.878906 C 611.183594 749.335938 605.925781 752.667969 600.585938 755.867188 C 595.242188 759.066406 589.828125 762.136719 584.335938 765.070312 C 578.847656 768.007812 573.285156 770.804688 567.65625 773.46875 C 562.027344 776.128906 556.339844 778.652344 550.585938 781.035156 C 544.832031 783.417969 539.027344 785.65625 533.164062 787.753906 C 527.300781 789.851562 521.390625 791.804688 515.433594 793.613281 C 509.476562 795.417969 503.476562 797.078125 497.4375 798.59375 C 491.394531 800.105469 485.324219 801.46875 479.214844 802.683594 C 473.109375 803.898438 466.976562 804.960938 460.816406 805.875 C 454.660156 806.789062 448.480469 807.550781 442.285156 808.164062 C 436.089844 808.773438 429.882812 809.230469 423.664062 809.535156 C 417.445312 809.839844 411.222656 809.996094 404.996094 809.996094 C 398.769531 809.996094 392.546875 809.839844 386.328125 809.535156 C 380.109375 809.230469 373.902344 808.773438 367.703125 808.164062 C 361.507812 807.550781 355.332031 806.789062 349.171875 805.875 C 343.011719 804.960938 336.878906 803.898438 330.773438 802.683594 C 324.664062 801.46875 318.59375 800.105469 312.554688 798.59375 C 306.511719 797.078125 300.515625 795.417969 294.554688 793.613281 C 288.597656 791.804688 282.6875 789.851562 276.824219 787.753906 C 270.960938 785.65625 265.15625 783.417969 259.402344 781.035156 C 253.652344 778.652344 247.960938 776.128906 242.332031 773.46875 C 236.703125 770.804688 231.144531 768.007812 225.652344 765.070312 C 220.160156 762.136719 214.746094 759.066406 209.40625 755.867188 C 204.0625 752.667969 198.804688 749.335938 193.628906 745.878906 C 188.453125 742.417969 183.363281 738.832031 178.359375 735.125 C 173.359375 731.414062 168.453125 727.585938 163.640625 723.636719 C 158.828125 719.6875 154.113281 715.621094 149.5 711.4375 C 144.886719 707.257812 140.378906 702.964844 135.976562 698.5625 C 131.574219 694.160156 127.28125 689.652344 123.101562 685.039062 C 118.917969 680.425781 114.851562 675.710938 110.902344 670.898438 C 106.953125 666.085938 103.125 661.179688 99.414062 656.179688 C 95.707031 651.175781 92.121094 646.089844 88.664062 640.910156 C 85.203125 635.734375 81.875 630.476562 78.671875 625.136719 C 75.472656 619.792969 72.402344 614.378906 69.46875 608.886719 C 66.535156 603.394531 63.734375 597.835938 61.074219 592.207031 C 58.410156 586.578125 55.886719 580.890625 53.503906 575.136719 C 51.121094 569.382812 48.882812 563.578125 46.785156 557.714844 C 44.6875 551.851562 42.734375 545.941406 40.925781 539.984375 C 39.121094 534.027344 37.460938 528.027344 35.945312 521.988281 C 34.433594 515.945312 33.070312 509.875 31.855469 503.765625 C 30.640625 497.660156 29.578125 491.527344 28.664062 485.367188 C 27.75 479.210938 26.988281 473.03125 26.378906 466.835938 C 25.765625 460.640625 25.308594 454.433594 25.003906 448.210938 C 24.699219 441.992188 24.546875 435.769531 24.546875 429.546875 C 24.546875 423.320312 24.699219 417.097656 25.003906 410.878906 C 25.308594 404.660156 25.765625 398.449219 26.378906 392.253906 C 26.988281 386.058594 27.75 379.878906 28.664062 373.722656 C 29.578125 367.5625 30.640625 361.429688 31.855469 355.324219 C 33.070312 349.214844 34.433594 343.144531 35.945312 337.101562 C 37.460938 331.0625 39.121094 325.066406 40.925781 319.105469 C 42.734375 313.148438 44.6875 307.238281 46.785156 301.375 C 48.882812 295.511719 51.121094 289.707031 53.503906 283.953125 C 55.886719 278.199219 58.410156 272.511719 61.074219 266.882812 C 63.734375 261.253906 66.535156 255.695312 69.46875 250.203125 C 72.402344 244.710938 75.472656 239.296875 78.671875 233.953125 C 81.875 228.613281 85.203125 223.355469 88.664062 218.179688 C 92.121094 213 95.707031 207.914062 99.414062 202.910156 C 103.125 197.910156 106.953125 193.003906 110.902344 188.191406 C 114.851562 183.378906 118.917969 178.664062 123.101562 174.050781 C 127.28125 169.4375 131.574219 164.929688 135.976562 160.527344 C 140.378906 156.125 144.886719 151.832031 149.5 147.652344 C 154.113281 143.46875 158.828125 139.402344 163.640625 135.453125 C 168.453125 131.503906 173.359375 127.675781 178.359375 123.964844 C 183.363281 120.257812 188.453125 116.671875 193.628906 113.214844 C 198.804688 109.753906 204.0625 106.425781 209.40625 103.222656 C 214.746094 100.023438 220.160156 96.953125 225.652344 94.019531 C 231.144531 91.082031 236.703125 88.285156 242.332031 85.625 C 247.960938 82.960938 253.652344 80.4375 259.402344 78.054688 C 265.15625 75.671875 270.960938 73.433594 276.824219 71.335938 C 282.6875 69.238281 288.597656 67.285156 294.554688 65.476562 C 300.515625 63.671875 306.511719 62.011719 312.554688 60.496094 C 318.59375 58.984375 324.664062 57.621094 330.773438 56.40625 C 336.878906 55.191406 343.011719 54.128906 349.171875 53.214844 C 355.332031 52.300781 361.507812 51.539062 367.703125 50.929688 C 373.902344 50.316406 380.109375 49.859375 386.328125 49.554688 C 392.546875 49.25 398.769531 49.097656 404.996094 49.097656 C 411.222656 49.097656 417.445312 49.25 423.664062 49.554688 C 429.882812 49.859375 436.089844 50.316406 442.285156 50.929688 C 448.480469 51.539062 454.660156 52.300781 460.816406 53.214844 C 466.976562 54.128906 473.109375 55.191406 479.214844 56.40625 C 485.324219 57.621094 491.394531 58.984375 497.4375 60.496094 C 503.476562 62.011719 509.476562 63.671875 515.433594 65.476562 C 521.390625 67.285156 527.300781 69.238281 533.164062 71.335938 C 539.027344 73.433594 544.832031 75.671875 550.585938 78.054688 C 556.339844 80.4375 562.027344 82.960938 567.65625 85.625 C 573.285156 88.285156 578.847656 91.082031 584.335938 94.019531 C 589.828125 96.953125 595.242188 100.023438 600.585938 103.222656 C 605.925781 106.425781 611.183594 109.753906 616.359375 113.214844 C 621.539062 116.671875 626.625 120.257812 631.628906 123.964844 C 636.628906 127.675781 641.535156 131.503906 646.347656 135.453125 C 651.160156 139.402344 655.875 143.46875 660.488281 147.652344 C 665.101562 151.832031 669.609375 156.125 674.011719 160.527344 C 678.414062 164.929688 682.707031 169.4375 686.890625 174.050781 C 691.070312 178.664062 695.136719 183.378906 699.085938 188.191406 C 703.035156 193.003906 706.867188 197.910156 710.574219 202.910156 C 714.285156 207.914062 717.867188 213 721.328125 218.179688 C 724.785156 223.355469 728.117188 228.613281 731.316406 233.953125 C 734.519531 239.296875 737.585938 244.710938 740.519531 250.203125 C 743.457031 255.695312 746.253906 261.253906 748.917969 266.882812 C 751.578125 272.511719 754.101562 278.199219 756.484375 283.953125 C 758.867188 289.707031 761.105469 295.511719 763.203125 301.375 C 765.300781 307.238281 767.253906 313.148438 769.0625 319.105469 C 770.871094 325.066406 772.53125 331.0625 774.042969 337.101562 C 775.554688 343.144531 776.917969 349.214844 778.132812 355.324219 C 779.347656 361.429688 780.414062 367.5625 781.324219 373.722656 C 782.238281 379.878906 783 386.058594 783.613281 392.253906 C 784.222656 398.449219 784.679688 404.660156 784.984375 410.878906 C 785.292969 417.097656 785.445312 423.320312 785.445312 429.546875 Z M 785.445312 429.546875 " fill-opacity="1" fill-rule="nonzero"/></g><g clip-path="url(#a410e33a2d)"><path fill="#000000" d="M 785.445312 380.453125 C 785.445312 386.679688 785.292969 392.902344 784.984375 399.121094 C 784.679688 405.339844 784.222656 411.550781 783.613281 417.746094 C 783 423.941406 782.238281 430.121094 781.324219 436.277344 C 780.414062 442.4375 779.347656 448.570312 778.132812 454.675781 C 776.917969 460.785156 775.554688 466.855469 774.042969 472.894531 C 772.53125 478.9375 770.871094 484.933594 769.0625 490.894531 C 767.253906 496.851562 765.300781 502.761719 763.203125 508.625 C 761.105469 514.488281 758.867188 520.292969 756.484375 526.046875 C 754.101562 531.796875 751.578125 537.488281 748.917969 543.117188 C 746.253906 548.746094 743.457031 554.304688 740.519531 559.796875 C 737.585938 565.289062 734.519531 570.703125 731.316406 576.042969 C 728.117188 581.386719 724.785156 586.644531 721.328125 591.820312 C 717.867188 597 714.285156 602.085938 710.574219 607.089844 C 706.867188 612.089844 703.035156 616.996094 699.085938 621.808594 C 695.136719 626.621094 691.070312 631.335938 686.890625 635.949219 C 682.707031 640.5625 678.414062 645.070312 674.011719 649.472656 C 669.609375 653.875 665.101562 658.167969 660.488281 662.347656 C 655.875 666.53125 651.160156 670.597656 646.347656 674.546875 C 641.535156 678.496094 636.628906 682.324219 631.628906 686.035156 C 626.625 689.742188 621.539062 693.328125 616.359375 696.785156 C 611.183594 700.246094 605.925781 703.574219 600.585938 706.777344 C 595.242188 709.976562 589.828125 713.046875 584.335938 715.980469 C 578.847656 718.917969 573.285156 721.714844 567.65625 724.375 C 562.027344 727.039062 556.339844 729.5625 550.585938 731.945312 C 544.832031 734.328125 539.027344 736.566406 533.164062 738.664062 C 527.300781 740.761719 521.390625 742.714844 515.433594 744.523438 C 509.476562 746.328125 503.476562 747.988281 497.4375 749.503906 C 491.394531 751.015625 485.324219 752.378906 479.214844 753.59375 C 473.109375 754.808594 466.976562 755.871094 460.816406 756.785156 C 454.660156 757.699219 448.480469 758.460938 442.285156 759.070312 C 436.089844 759.683594 429.882812 760.140625 423.664062 760.445312 C 417.445312 760.75 411.222656 760.902344 404.996094 760.902344 C 398.769531 760.902344 392.546875 760.75 386.328125 760.445312 C 380.109375 760.140625 373.902344 759.683594 367.703125 759.070312 C 361.507812 758.460938 355.332031 757.699219 349.171875 756.785156 C 343.011719 755.871094 336.878906 754.808594 330.773438 753.59375 C 324.664062 752.378906 318.59375 751.015625 312.554688 749.503906 C 306.511719 747.988281 300.515625 746.328125 294.554688 744.523438 C 288.597656 742.714844 282.6875 740.761719 276.824219 738.664062 C 270.960938 736.566406 265.15625 734.328125 259.402344 731.945312 C 253.652344 729.5625 247.960938 727.039062 242.332031 724.375 C 236.703125 721.714844 231.144531 718.917969 225.652344 715.980469 C 220.160156 713.046875 214.746094 709.976562 209.40625 706.777344 C 204.0625 703.574219 198.804688 700.246094 193.628906 696.785156 C 188.453125 693.328125 183.363281 689.742188 178.359375 686.035156 C 173.359375 682.324219 168.453125 678.496094 163.640625 674.546875 C 158.828125 670.597656 154.113281 666.53125 149.5 662.347656 C 144.886719 658.167969 140.378906 653.875 135.976562 649.472656 C 131.574219 645.070312 127.28125 640.5625 123.101562 635.949219 C 118.917969 631.335938 114.851562 626.621094 110.902344 621.808594 C 106.953125 616.996094 103.125 612.089844 99.414062 607.089844 C 95.707031 602.085938 92.121094 597 88.664062 591.820312 C 85.203125 586.644531 81.875 581.386719 78.671875 576.042969 C 75.472656 570.703125 72.402344 565.289062 69.46875 559.796875 C 66.535156 554.304688 63.734375 548.746094 61.074219 543.117188 C 58.410156 537.488281 55.886719 531.796875 53.503906 526.046875 C 51.121094 520.292969 48.882812 514.488281 46.785156 508.625 C 44.6875 502.761719 42.734375 496.851562 40.925781 490.894531 C 39.121094 484.933594 37.460938 478.9375 35.945312 472.894531 C 34.433594 466.855469 33.070312 460.785156 31.855469 454.675781 C 30.640625 448.570312 29.578125 442.4375 28.664062 436.277344 C 27.75 430.121094 26.988281 423.941406 26.378906 417.746094 C 25.765625 411.550781 25.308594 405.339844 25.003906 399.121094 C 24.699219 392.902344 24.546875 386.679688 24.546875 380.453125 C 24.546875 374.230469 24.699219 368.007812 25.003906 361.789062 C 25.308594 355.566406 25.765625 349.359375 26.378906 343.164062 C 26.988281 336.96875 27.75 330.789062 28.664062 324.632812 C 29.578125 318.472656 30.640625 312.339844 31.855469 306.234375 C 33.070312 300.125 34.433594 294.054688 35.945312 288.011719 C 37.460938 281.972656 39.121094 275.972656 40.925781 270.015625 C 42.734375 264.058594 44.6875 258.148438 46.785156 252.285156 C 48.882812 246.421875 51.121094 240.617188 53.503906 234.863281 C 55.886719 229.109375 58.410156 223.421875 61.074219 217.792969 C 63.734375 212.164062 66.535156 206.601562 69.46875 201.113281 C 72.402344 195.621094 75.472656 190.207031 78.671875 184.863281 C 81.875 179.523438 85.203125 174.265625 88.664062 169.089844 C 92.121094 163.910156 95.707031 158.824219 99.414062 153.820312 C 103.125 148.820312 106.953125 143.914062 110.902344 139.101562 C 114.851562 134.289062 118.917969 129.574219 123.101562 124.960938 C 127.28125 120.347656 131.574219 115.839844 135.976562 111.4375 C 140.378906 107.035156 144.886719 102.742188 149.5 98.5625 C 154.113281 94.378906 158.828125 90.3125 163.640625 86.363281 C 168.453125 82.414062 173.359375 78.585938 178.359375 74.875 C 183.363281 71.167969 188.453125 67.582031 193.628906 64.121094 C 198.804688 60.664062 204.0625 57.332031 209.40625 54.132812 C 214.746094 50.933594 220.160156 47.863281 225.652344 44.929688 C 231.144531 41.992188 236.703125 39.195312 242.332031 36.53125 C 247.960938 33.871094 253.652344 31.347656 259.402344 28.964844 C 265.15625 26.582031 270.960938 24.34375 276.824219 22.246094 C 282.6875 20.148438 288.597656 18.195312 294.554688 16.386719 C 300.515625 14.582031 306.511719 12.921875 312.554688 11.40625 C 318.59375 9.894531 324.664062 8.53125 330.773438 7.316406 C 336.878906 6.101562 343.011719 5.035156 349.171875 4.125 C 355.332031 3.210938 361.507812 2.449219 367.703125 1.835938 C 373.902344 1.226562 380.109375 0.769531 386.328125 0.464844 C 392.546875 0.160156 398.769531 0.00390625 404.996094 0.00390625 C 411.222656 0.00390625 417.445312 0.160156 423.664062 0.464844 C 429.882812 0.769531 436.089844 1.226562 442.285156 1.835938 C 448.480469 2.449219 454.660156 3.210938 460.816406 4.125 C 466.976562 5.035156 473.109375 6.101562 479.214844 7.316406 C 485.324219 8.53125 491.394531 9.894531 497.4375 11.40625 C 503.476562 12.921875 509.476562 14.582031 515.433594 16.386719 C 521.390625 18.195312 527.300781 20.148438 533.164062 22.246094 C 539.027344 24.34375 544.832031 26.582031 550.585938 28.964844 C 556.339844 31.347656 562.027344 33.871094 567.65625 36.53125 C 573.285156 39.195312 578.847656 41.992188 584.335938 44.929688 C 589.828125 47.863281 595.242188 50.933594 600.585938 54.132812 C 605.925781 57.332031 611.183594 60.664062 616.359375 64.121094 C 621.539062 67.582031 626.625 71.167969 631.628906 74.875 C 636.628906 78.585938 641.535156 82.414062 646.347656 86.363281 C 651.160156 90.3125 655.875 94.378906 660.488281 98.5625 C 665.101562 102.742188 669.609375 107.035156 674.011719 111.4375 C 678.414062 115.839844 682.707031 120.347656 686.890625 124.960938 C 691.070312 129.574219 695.136719 134.289062 699.085938 139.101562 C 703.035156 143.914062 706.867188 148.820312 710.574219 153.820312 C 714.285156 158.824219 717.867188 163.910156 721.328125 169.089844 C 724.785156 174.265625 728.117188 179.523438 731.316406 184.863281 C 734.519531 190.207031 737.585938 195.621094 740.519531 201.113281 C 743.457031 206.601562 746.253906 212.164062 748.917969 217.792969 C 751.578125 223.421875 754.101562 229.109375 756.484375 234.863281 C 758.867188 240.617188 761.105469 246.421875 763.203125 252.285156 C 765.300781 258.148438 767.253906 264.058594 769.0625 270.015625 C 770.871094 275.972656 772.53125 281.972656 774.042969 288.011719 C 775.554688 294.054688 776.917969 300.125 778.132812 306.234375 C 779.347656 312.339844 780.414062 318.472656 781.324219 324.632812 C 782.238281 330.789062 783 336.96875 783.613281 343.164062 C 784.222656 349.359375 784.679688 355.566406 784.984375 361.789062 C 785.292969 368.007812 785.445312 374.230469 785.445312 380.453125 Z M 785.445312 380.453125 " fill-opacity="1" fill-rule="nonzero"/></g><path fill="#dfdfdf" d="M 593.671875 238.730469 C 590.941406 235.078125 588.109375 231.511719 585.171875 228.023438 C 582.234375 224.535156 579.199219 221.136719 576.0625 217.824219 C 572.929688 214.515625 569.699219 211.296875 566.378906 208.171875 C 563.058594 205.050781 559.648438 202.023438 556.152344 199.097656 C 552.652344 196.175781 549.074219 193.351562 545.414062 190.632812 C 541.753906 187.917969 538.015625 185.308594 534.203125 182.808594 C 530.390625 180.304688 526.507812 177.917969 522.558594 175.640625 C 518.605469 173.367188 514.59375 171.207031 510.515625 169.167969 C 506.4375 167.125 502.304688 165.203125 498.117188 163.398438 C 493.929688 161.597656 489.691406 159.917969 485.40625 158.363281 C 481.121094 156.804688 476.792969 155.375 472.425781 154.070312 C 468.054688 152.765625 463.652344 151.585938 459.214844 150.539062 C 454.777344 149.488281 450.316406 148.570312 445.824219 147.777344 C 441.332031 146.988281 436.824219 146.328125 432.296875 145.800781 C 427.765625 145.273438 423.226562 144.878906 418.675781 144.613281 C 414.121094 144.347656 409.566406 144.214844 405.007812 144.214844 C 400.449219 144.214844 395.890625 144.347656 391.339844 144.613281 C 386.789062 144.878906 382.246094 145.273438 377.71875 145.800781 C 373.191406 146.328125 368.679688 146.988281 364.1875 147.777344 C 359.699219 148.570312 355.234375 149.488281 350.796875 150.539062 C 346.359375 151.585938 341.957031 152.765625 337.589844 154.070312 C 333.21875 155.375 328.894531 156.804688 324.605469 158.363281 C 320.320312 159.917969 316.085938 161.597656 311.894531 163.398438 C 307.707031 165.203125 303.574219 167.125 299.5 169.167969 C 295.421875 171.207031 291.40625 173.367188 287.457031 175.640625 C 283.503906 177.917969 279.625 180.304688 275.8125 182.808594 C 272 185.308594 268.261719 187.917969 264.601562 190.632812 C 260.9375 193.351562 257.359375 196.175781 253.863281 199.097656 C 250.367188 202.023438 246.957031 205.050781 243.636719 208.171875 C 240.3125 211.296875 237.085938 214.515625 233.949219 217.824219 C 230.816406 221.136719 227.78125 224.535156 224.84375 228.023438 C 221.90625 231.511719 219.070312 235.078125 216.339844 238.730469 L 213.59375 242.414062 L 63.816406 242.414062 C 61.59375 247.878906 59.503906 253.394531 57.546875 258.957031 C 55.589844 264.523438 53.769531 270.132812 52.082031 275.785156 C 50.394531 281.441406 48.847656 287.132812 47.4375 292.859375 C 46.027344 298.589844 44.753906 304.347656 43.621094 310.136719 C 42.488281 315.925781 41.496094 321.742188 40.644531 327.578125 C 39.792969 333.417969 39.082031 339.273438 38.511719 345.144531 C 37.941406 351.015625 37.515625 356.898438 37.230469 362.789062 C 36.945312 368.683594 36.804688 374.578125 36.804688 380.480469 C 36.804688 386.378906 36.945312 392.273438 37.230469 398.167969 C 37.515625 404.0625 37.941406 409.941406 38.511719 415.816406 C 39.082031 421.6875 39.792969 427.542969 40.644531 433.378906 C 41.496094 439.21875 42.488281 445.03125 43.621094 450.820312 C 44.753906 456.609375 46.027344 462.371094 47.4375 468.097656 C 48.847656 473.828125 50.394531 479.519531 52.082031 485.171875 C 53.769531 490.824219 55.589844 496.433594 57.546875 502 C 59.503906 507.566406 61.59375 513.082031 63.816406 518.546875 L 213.542969 518.546875 L 216.292969 522.226562 C 219.023438 525.878906 221.855469 529.449219 224.792969 532.9375 C 227.730469 536.421875 230.765625 539.824219 233.902344 543.132812 C 237.035156 546.445312 240.265625 549.660156 243.585938 552.785156 C 246.90625 555.910156 250.316406 558.933594 253.8125 561.859375 C 257.3125 564.785156 260.890625 567.605469 264.550781 570.324219 C 268.210938 573.042969 271.949219 575.652344 275.761719 578.152344 C 279.574219 580.652344 283.457031 583.039062 287.40625 585.316406 C 291.359375 587.589844 295.371094 589.75 299.449219 591.792969 C 303.527344 593.835938 307.660156 595.757812 311.847656 597.558594 C 316.035156 599.363281 320.273438 601.042969 324.558594 602.597656 C 328.84375 604.152344 333.171875 605.585938 337.539062 606.890625 C 341.910156 608.195312 346.3125 609.371094 350.75 610.421875 C 355.1875 611.46875 359.648438 612.390625 364.140625 613.179688 C 368.632812 613.96875 373.140625 614.628906 377.667969 615.15625 C 382.199219 615.683594 386.738281 616.082031 391.289062 616.347656 C 395.84375 616.609375 400.398438 616.742188 404.957031 616.742188 C 409.515625 616.742188 414.074219 616.609375 418.625 616.347656 C 423.175781 616.082031 427.71875 615.683594 432.246094 615.15625 C 436.773438 614.628906 441.285156 613.96875 445.773438 613.179688 C 450.265625 612.390625 454.730469 611.46875 459.167969 610.421875 C 463.605469 609.371094 468.007812 608.195312 472.375 606.890625 C 476.746094 605.585938 481.070312 604.152344 485.359375 602.597656 C 489.644531 601.042969 493.878906 599.363281 498.070312 597.558594 C 502.257812 595.757812 506.390625 593.835938 510.464844 591.792969 C 514.542969 589.75 518.558594 587.589844 522.507812 585.316406 C 526.460938 583.039062 530.339844 580.652344 534.152344 578.152344 C 537.964844 575.652344 541.703125 573.042969 545.363281 570.324219 C 549.023438 567.605469 552.605469 564.785156 556.101562 561.859375 C 559.597656 558.933594 563.007812 555.910156 566.328125 552.785156 C 569.652344 549.664062 572.878906 546.445312 576.015625 543.132812 C 579.148438 539.824219 582.183594 536.421875 585.121094 532.9375 C 588.058594 529.449219 590.894531 525.878906 593.625 522.226562 L 596.371094 518.546875 L 746.097656 518.546875 C 748.320312 513.082031 750.410156 507.566406 752.367188 502 C 754.324219 496.433594 756.148438 490.824219 757.832031 485.171875 C 759.519531 479.519531 761.066406 473.828125 762.480469 468.097656 C 763.890625 462.371094 765.160156 456.609375 766.292969 450.820312 C 767.425781 445.03125 768.417969 439.21875 769.273438 433.378906 C 770.125 427.542969 770.835938 421.6875 771.402344 415.816406 C 771.972656 409.941406 772.398438 404.0625 772.683594 398.167969 C 772.96875 392.273438 773.113281 386.378906 773.113281 380.480469 C 773.113281 374.578125 772.96875 368.683594 772.683594 362.789062 C 772.398438 356.898438 771.972656 351.015625 771.402344 345.144531 C 770.835938 339.269531 770.125 333.417969 769.273438 327.578125 C 768.417969 321.742188 767.425781 315.925781 766.292969 310.136719 C 765.160156 304.347656 763.890625 298.589844 762.480469 292.859375 C 761.066406 287.132812 759.519531 281.441406 757.832031 275.785156 C 756.148438 270.132812 754.324219 264.523438 752.367188 258.957031 C 750.410156 253.394531 748.320312 247.878906 746.097656 242.414062 L 596.371094 242.414062 Z M 593.671875 238.730469 " fill-opacity="1" fill-rule="nonzero"/><path fill="#ff66c4" d="M 404.996094 635.109375 C 400.175781 635.125 395.355469 635 390.542969 634.738281 C 385.730469 634.476562 380.925781 634.078125 376.136719 633.542969 C 371.347656 633.003906 366.574219 632.332031 361.824219 631.519531 C 357.070312 630.710938 352.34375 629.765625 347.648438 628.683594 C 342.949219 627.601562 338.285156 626.390625 333.65625 625.039062 C 329.03125 623.691406 324.445312 622.214844 319.898438 620.601562 C 315.355469 618.992188 310.863281 617.253906 306.417969 615.386719 C 301.972656 613.515625 297.585938 611.523438 293.257812 609.402344 C 288.925781 607.285156 284.664062 605.042969 280.460938 602.679688 C 276.257812 600.316406 272.128906 597.832031 268.070312 595.234375 C 264.011719 592.632812 260.027344 589.917969 256.125 587.089844 C 252.222656 584.261719 248.402344 581.324219 244.667969 578.277344 C 240.929688 575.230469 237.285156 572.078125 233.730469 568.824219 C 230.175781 565.566406 226.714844 562.210938 223.355469 558.757812 C 219.992188 555.304688 216.730469 551.757812 213.570312 548.113281 C 210.410156 544.472656 207.359375 540.746094 204.410156 536.929688 L 71.867188 536.929688 C 73.707031 540.859375 75.617188 544.753906 77.59375 548.617188 C 79.570312 552.476562 81.617188 556.300781 83.730469 560.089844 C 85.84375 563.878906 88.023438 567.632812 90.269531 571.34375 C 92.515625 575.054688 94.824219 578.726562 97.199219 582.355469 C 99.574219 585.984375 102.015625 589.574219 104.519531 593.117188 C 107.019531 596.660156 109.585938 600.160156 112.210938 603.613281 C 114.839844 607.066406 117.527344 610.46875 120.273438 613.828125 C 123.019531 617.1875 125.824219 620.492188 128.691406 623.753906 C 131.554688 627.011719 134.476562 630.21875 137.453125 633.371094 C 140.429688 636.527344 143.464844 639.628906 146.550781 642.675781 C 149.640625 645.722656 152.78125 648.714844 155.972656 651.652344 C 159.167969 654.589844 162.410156 657.46875 165.707031 660.289062 C 169.003906 663.109375 172.347656 665.875 175.742188 668.578125 C 179.132812 671.28125 182.574219 673.921875 186.0625 676.503906 C 189.546875 679.085938 193.078125 681.601562 196.65625 684.058594 C 200.230469 686.515625 203.847656 688.90625 207.511719 691.234375 C 211.171875 693.566406 214.871094 695.828125 218.613281 698.023438 C 222.355469 700.222656 226.132812 702.351562 229.949219 704.414062 C 233.765625 706.476562 237.617188 708.472656 241.503906 710.402344 C 245.390625 712.328125 249.308594 714.183594 253.261719 715.972656 C 257.214844 717.761719 261.199219 719.480469 265.210938 721.125 C 269.226562 722.773438 273.269531 724.347656 277.335938 725.851562 C 281.40625 727.355469 285.5 728.789062 289.621094 730.148438 C 293.742188 731.507812 297.882812 732.792969 302.050781 734.003906 C 306.214844 735.21875 310.402344 736.355469 314.605469 737.417969 C 318.8125 738.484375 323.035156 739.472656 327.277344 740.386719 C 331.515625 741.300781 335.773438 742.140625 340.042969 742.90625 C 344.316406 743.667969 348.597656 744.359375 352.890625 744.96875 C 357.1875 745.582031 361.492188 746.117188 365.804688 746.578125 C 370.121094 747.039062 374.441406 747.421875 378.769531 747.730469 C 383.09375 748.035156 387.425781 748.265625 391.761719 748.417969 C 396.097656 748.574219 400.433594 748.648438 404.773438 748.648438 C 409.113281 748.648438 413.449219 748.574219 417.785156 748.417969 C 422.121094 748.265625 426.453125 748.035156 430.78125 747.730469 C 435.105469 747.421875 439.429688 747.039062 443.742188 746.578125 C 448.054688 746.117188 452.359375 745.582031 456.65625 744.96875 C 460.949219 744.359375 465.234375 743.667969 469.503906 742.90625 C 473.773438 742.140625 478.03125 741.300781 482.269531 740.386719 C 486.511719 739.472656 490.734375 738.484375 494.941406 737.417969 C 499.148438 736.355469 503.332031 735.21875 507.5 734.003906 C 511.664062 732.792969 515.804688 731.507812 519.925781 730.148438 C 524.046875 728.789062 528.140625 727.355469 532.210938 725.851562 C 536.28125 724.347656 540.320312 722.773438 544.335938 721.125 C 548.347656 719.480469 552.332031 717.761719 556.285156 715.972656 C 560.238281 714.183594 564.15625 712.328125 568.042969 710.402344 C 571.929688 708.472656 575.78125 706.476562 579.597656 704.414062 C 583.414062 702.351562 587.195312 700.222656 590.933594 698.023438 C 594.675781 695.828125 598.375 693.566406 602.039062 691.234375 C 605.699219 688.90625 609.316406 686.515625 612.890625 684.058594 C 616.46875 681.601562 620 679.085938 623.488281 676.503906 C 626.972656 673.921875 630.414062 671.28125 633.808594 668.578125 C 637.199219 665.875 640.546875 663.109375 643.839844 660.289062 C 647.136719 657.46875 650.378906 654.589844 653.574219 651.652344 C 656.769531 648.714844 659.910156 645.722656 662.996094 642.675781 C 666.082031 639.628906 669.117188 636.527344 672.09375 633.371094 C 675.074219 630.21875 677.992188 627.011719 680.859375 623.753906 C 683.722656 620.492188 686.527344 617.1875 689.273438 613.828125 C 692.023438 610.46875 694.710938 607.066406 697.335938 603.613281 C 699.960938 600.160156 702.527344 596.660156 705.03125 593.117188 C 707.53125 589.574219 709.972656 585.984375 712.347656 582.355469 C 714.722656 578.726562 717.035156 575.054688 719.28125 571.34375 C 721.523438 567.632812 723.703125 563.878906 725.816406 560.089844 C 727.929688 556.300781 729.976562 552.476562 731.953125 548.617188 C 733.929688 544.753906 735.839844 540.859375 737.679688 536.929688 L 605.136719 536.929688 C 602.191406 540.746094 599.136719 544.472656 595.976562 548.113281 C 592.816406 551.757812 589.554688 555.304688 586.195312 558.757812 C 582.832031 562.210938 579.371094 565.566406 575.816406 568.824219 C 572.261719 572.078125 568.617188 575.230469 564.882812 578.277344 C 561.144531 581.324219 557.324219 584.261719 553.421875 587.089844 C 549.519531 589.917969 545.535156 592.632812 541.476562 595.234375 C 537.417969 597.832031 533.289062 600.316406 529.085938 602.679688 C 524.886719 605.042969 520.621094 607.285156 516.289062 609.402344 C 511.960938 611.523438 507.574219 613.515625 503.128906 615.386719 C 498.683594 617.253906 494.191406 618.992188 489.648438 620.601562 C 485.105469 622.214844 480.519531 623.691406 475.890625 625.039062 C 471.261719 626.390625 466.597656 627.601562 461.898438 628.683594 C 457.203125 629.765625 452.476562 630.710938 447.726562 631.519531 C 442.972656 632.332031 438.203125 633.003906 433.410156 633.542969 C 428.621094 634.078125 423.816406 634.476562 419.003906 634.738281 C 414.191406 635 409.375 635.125 404.554688 635.109375 Z M 404.996094 125.800781 C 409.816406 125.785156 414.632812 125.910156 419.445312 126.171875 C 424.257812 126.433594 429.058594 126.832031 433.847656 127.371094 C 438.640625 127.90625 443.410156 128.582031 448.164062 129.390625 C 452.914062 130.203125 457.636719 131.148438 462.335938 132.226562 C 467.035156 133.308594 471.695312 134.523438 476.324219 135.871094 C 480.953125 137.21875 485.539062 138.699219 490.082031 140.308594 C 494.625 141.921875 499.117188 143.660156 503.558594 145.527344 C 508.003906 147.394531 512.390625 149.390625 516.71875 151.507812 C 521.046875 153.628906 525.3125 155.871094 529.515625 158.234375 C 533.714844 160.597656 537.84375 163.078125 541.902344 165.679688 C 545.964844 168.28125 549.945312 170.992188 553.847656 173.820312 C 557.75 176.648438 561.570312 179.585938 565.304688 182.632812 C 569.039062 185.683594 572.683594 188.832031 576.238281 192.089844 C 579.792969 195.34375 583.25 198.699219 586.613281 202.152344 C 589.976562 205.609375 593.238281 209.15625 596.394531 212.796875 C 599.554688 216.4375 602.605469 220.164062 605.554688 223.980469 L 737.898438 223.980469 C 736.058594 220.050781 734.152344 216.15625 732.175781 212.292969 C 730.195312 208.433594 728.152344 204.605469 726.039062 200.816406 C 723.925781 197.027344 721.746094 193.277344 719.5 189.566406 C 717.253906 185.855469 714.945312 182.183594 712.566406 178.554688 C 710.191406 174.921875 707.753906 171.335938 705.25 167.792969 C 702.746094 164.25 700.183594 160.75 697.554688 157.296875 C 694.929688 153.84375 692.242188 150.441406 689.496094 147.082031 C 686.75 143.722656 683.941406 140.414062 681.078125 137.15625 C 678.214844 133.898438 675.292969 130.691406 672.316406 127.539062 C 669.335938 124.382812 666.304688 121.28125 663.21875 118.234375 C 660.128906 115.1875 656.988281 112.195312 653.796875 109.257812 C 650.601562 106.320312 647.355469 103.441406 644.0625 100.621094 C 640.765625 97.796875 637.421875 95.035156 634.027344 92.332031 C 630.636719 89.628906 627.195312 86.988281 623.707031 84.40625 C 620.222656 81.824219 616.691406 79.304688 613.113281 76.851562 C 609.539062 74.394531 605.917969 72 602.257812 69.671875 C 598.597656 67.34375 594.894531 65.082031 591.15625 62.886719 C 587.414062 60.6875 583.636719 58.558594 579.820312 56.496094 C 576.003906 54.429688 572.152344 52.4375 568.265625 50.507812 C 564.378906 48.582031 560.457031 46.726562 556.503906 44.9375 C 552.550781 43.148438 548.570312 41.429688 544.554688 39.785156 C 540.542969 38.136719 536.5 36.5625 532.429688 35.058594 C 528.363281 33.550781 524.265625 32.121094 520.148438 30.761719 C 516.027344 29.402344 511.882812 28.117188 507.71875 26.90625 C 503.554688 25.691406 499.367188 24.554688 495.160156 23.488281 C 490.957031 22.425781 486.734375 21.4375 482.492188 20.523438 C 478.25 19.605469 473.996094 18.769531 469.722656 18.003906 C 465.453125 17.238281 461.171875 16.550781 456.875 15.9375 C 452.582031 15.328125 448.277344 14.789062 443.960938 14.332031 C 439.648438 13.871094 435.328125 13.488281 431 13.179688 C 426.671875 12.875 422.339844 12.644531 418.003906 12.488281 C 413.671875 12.335938 409.332031 12.257812 404.996094 12.257812 C 400.65625 12.257812 396.320312 12.335938 391.984375 12.488281 C 387.648438 12.644531 383.316406 12.875 378.988281 13.179688 C 374.660156 13.488281 370.339844 13.871094 366.027344 14.332031 C 361.710938 14.789062 357.40625 15.328125 353.113281 15.9375 C 348.816406 16.550781 344.535156 17.238281 340.265625 18.003906 C 335.996094 18.769531 331.738281 19.605469 327.496094 20.523438 C 323.257812 21.4375 319.035156 22.425781 314.828125 23.488281 C 310.621094 24.554688 306.4375 25.691406 302.269531 26.90625 C 298.105469 28.117188 293.960938 29.402344 289.84375 30.761719 C 285.722656 32.121094 281.628906 33.550781 277.558594 35.058594 C 273.488281 36.5625 269.445312 38.136719 265.433594 39.785156 C 261.421875 41.429688 257.4375 43.148438 253.484375 44.9375 C 249.53125 46.726562 245.613281 48.582031 241.722656 50.507812 C 237.835938 52.4375 233.984375 54.429688 230.167969 56.496094 C 226.351562 58.558594 222.574219 60.6875 218.832031 62.886719 C 215.09375 65.082031 211.390625 67.34375 207.730469 69.671875 C 204.070312 72 200.453125 74.394531 196.875 76.851562 C 193.300781 79.304688 189.769531 81.824219 186.28125 84.40625 C 182.792969 86.988281 179.355469 89.628906 175.960938 92.332031 C 172.566406 95.035156 169.222656 97.796875 165.929688 100.621094 C 162.632812 103.441406 159.386719 106.320312 156.195312 109.257812 C 153 112.195312 149.859375 115.1875 146.773438 118.234375 C 143.683594 121.28125 140.652344 124.382812 137.675781 127.539062 C 134.695312 130.691406 131.773438 133.898438 128.910156 137.15625 C 126.046875 140.414062 123.242188 143.722656 120.492188 147.082031 C 117.746094 150.441406 115.058594 153.84375 112.433594 157.296875 C 109.804688 160.75 107.242188 164.25 104.738281 167.792969 C 102.234375 171.335938 99.796875 174.921875 97.421875 178.554688 C 95.046875 182.183594 92.734375 185.855469 90.488281 189.566406 C 88.242188 193.277344 86.0625 197.027344 83.949219 200.816406 C 81.835938 204.605469 79.792969 208.433594 77.816406 212.292969 C 75.835938 216.15625 73.929688 220.050781 72.089844 223.980469 L 204.632812 223.980469 C 207.578125 220.164062 210.632812 216.4375 213.792969 212.792969 C 216.949219 209.152344 220.210938 205.605469 223.574219 202.152344 C 226.9375 198.699219 230.398438 195.34375 233.953125 192.085938 C 237.507812 188.832031 241.152344 185.679688 244.886719 182.632812 C 248.621094 179.585938 252.441406 176.648438 256.347656 173.820312 C 260.25 170.992188 264.230469 168.277344 268.289062 165.675781 C 272.351562 163.074219 276.480469 160.59375 280.683594 158.230469 C 284.882812 155.867188 289.148438 153.625 293.480469 151.507812 C 297.808594 149.386719 302.195312 147.394531 306.640625 145.523438 C 311.082031 143.65625 315.578125 141.917969 320.121094 140.308594 C 324.664062 138.695312 329.25 137.21875 333.878906 135.867188 C 338.507812 134.519531 343.171875 133.304688 347.867188 132.226562 C 352.566406 131.144531 357.292969 130.199219 362.042969 129.390625 C 366.796875 128.578125 371.566406 127.90625 376.359375 127.367188 C 381.148438 126.832031 385.949219 126.433594 390.765625 126.171875 C 395.578125 125.910156 400.394531 125.785156 405.214844 125.800781 Z M 404.996094 125.800781 " fill-opacity="1" fill-rule="nonzero"/><path fill="#ffffff" d="M 596.445312 518.519531 L 593.699219 522.203125 C 590.96875 525.855469 588.132812 529.425781 585.195312 532.910156 C 582.257812 536.398438 579.222656 539.796875 576.089844 543.109375 C 572.953125 546.421875 569.726562 549.636719 566.402344 552.761719 C 563.082031 555.882812 559.671875 558.910156 556.175781 561.835938 C 552.679688 564.761719 549.097656 567.582031 545.4375 570.300781 C 541.777344 573.019531 538.039062 575.625 534.226562 578.128906 C 530.414062 580.628906 526.53125 583.015625 522.582031 585.292969 C 518.628906 587.566406 514.617188 589.726562 510.539062 591.769531 C 506.464844 593.808594 502.332031 595.734375 498.140625 597.535156 C 493.953125 599.335938 489.71875 601.015625 485.429688 602.574219 C 481.144531 604.128906 476.820312 605.558594 472.449219 606.863281 C 468.082031 608.167969 463.679688 609.347656 459.242188 610.394531 C 454.804688 611.445312 450.339844 612.363281 445.847656 613.15625 C 441.359375 613.945312 436.847656 614.605469 432.320312 615.132812 C 427.789062 615.660156 423.25 616.058594 418.699219 616.320312 C 414.148438 616.585938 409.589844 616.71875 405.03125 616.71875 C 400.472656 616.71875 395.917969 616.585938 391.363281 616.320312 C 386.8125 616.058594 382.273438 615.660156 377.742188 615.132812 C 373.214844 614.605469 368.703125 613.945312 364.214844 613.15625 C 359.722656 612.363281 355.257812 611.445312 350.824219 610.394531 C 346.386719 609.347656 341.980469 608.167969 337.613281 606.863281 C 333.246094 605.558594 328.917969 604.128906 324.632812 602.574219 C 320.34375 601.015625 316.109375 599.335938 311.921875 597.535156 C 307.730469 595.734375 303.601562 593.808594 299.523438 591.769531 C 295.445312 589.726562 291.433594 587.566406 287.480469 585.292969 C 283.53125 583.015625 279.648438 580.628906 275.835938 578.128906 C 272.023438 575.628906 268.285156 573.019531 264.625 570.300781 C 260.964844 567.582031 257.386719 564.761719 253.886719 561.835938 C 250.390625 558.910156 246.980469 555.882812 243.660156 552.761719 C 240.335938 549.636719 237.109375 546.421875 233.976562 543.109375 C 230.839844 539.796875 227.804688 536.398438 224.867188 532.910156 C 221.929688 529.425781 219.09375 525.855469 216.367188 522.203125 L 213.617188 518.519531 L 63.816406 518.519531 L 72.089844 536.929688 L 204.632812 536.929688 C 207.589844 540.734375 210.648438 544.453125 213.816406 548.085938 C 216.984375 551.71875 220.253906 555.253906 223.621094 558.699219 C 226.988281 562.144531 230.453125 565.492188 234.011719 568.742188 C 237.570312 571.988281 241.222656 575.132812 244.957031 578.175781 C 248.695312 581.214844 252.519531 584.148438 256.421875 586.96875 C 260.328125 589.792969 264.3125 592.503906 268.371094 595.101562 C 272.429688 597.695312 276.558594 600.175781 280.757812 602.535156 C 284.960938 604.898438 289.222656 607.136719 293.550781 609.257812 C 297.878906 611.375 302.265625 613.367188 306.707031 615.238281 C 311.148438 617.105469 315.636719 618.847656 320.179688 620.460938 C 324.71875 622.074219 329.300781 623.558594 333.925781 624.910156 C 338.550781 626.261719 343.210938 627.484375 347.90625 628.570312 C 352.601562 629.65625 357.320312 630.609375 362.070312 631.429688 C 366.820312 632.246094 371.585938 632.929688 376.375 633.476562 C 381.160156 634.023438 385.960938 634.4375 390.769531 634.710938 C 395.582031 634.984375 400.398438 635.121094 405.214844 635.121094 C 410.035156 635.121094 414.847656 634.984375 419.660156 634.710938 C 424.46875 634.4375 429.269531 634.023438 434.058594 633.476562 C 438.84375 632.929688 443.613281 632.246094 448.359375 631.429688 C 453.109375 630.609375 457.832031 629.65625 462.527344 628.570312 C 467.21875 627.484375 471.878906 626.261719 476.503906 624.910156 C 481.128906 623.558594 485.710938 622.074219 490.253906 620.460938 C 494.792969 618.847656 499.285156 617.105469 503.726562 615.238281 C 508.167969 613.367188 512.550781 611.375 516.878906 609.257812 C 521.207031 607.136719 525.472656 604.898438 529.671875 602.535156 C 533.871094 600.175781 538 597.695312 542.0625 595.101562 C 546.121094 592.503906 550.101562 589.792969 554.007812 586.96875 C 557.914062 584.148438 561.734375 581.214844 565.472656 578.175781 C 569.210938 575.132812 572.859375 571.988281 576.417969 568.742188 C 579.976562 565.492188 583.441406 562.144531 586.808594 558.699219 C 590.179688 555.253906 593.445312 551.71875 596.613281 548.085938 C 599.78125 544.453125 602.84375 540.734375 605.796875 536.929688 L 738.339844 536.929688 L 746.613281 518.519531 Z M 213.542969 242.386719 L 216.292969 238.707031 C 219.023438 235.054688 221.855469 231.484375 224.792969 228 C 227.730469 224.511719 230.765625 221.113281 233.902344 217.800781 C 237.035156 214.488281 240.265625 211.273438 243.585938 208.148438 C 246.90625 205.023438 250.316406 202 253.8125 199.074219 C 257.3125 196.148438 260.890625 193.328125 264.550781 190.609375 C 268.210938 187.890625 271.949219 185.28125 275.761719 182.78125 C 279.574219 180.28125 283.457031 177.894531 287.40625 175.617188 C 291.359375 173.34375 295.371094 171.183594 299.449219 169.140625 C 303.527344 167.097656 307.660156 165.175781 311.847656 163.375 C 316.035156 161.574219 320.273438 159.894531 324.558594 158.335938 C 328.84375 156.78125 333.171875 155.351562 337.539062 154.046875 C 341.910156 152.738281 346.3125 151.5625 350.75 150.515625 C 355.1875 149.464844 359.648438 148.542969 364.140625 147.753906 C 368.632812 146.964844 373.140625 146.304688 377.667969 145.777344 C 382.199219 145.25 386.738281 144.851562 391.289062 144.589844 C 395.84375 144.324219 400.398438 144.191406 404.957031 144.191406 C 409.515625 144.191406 414.074219 144.324219 418.625 144.589844 C 423.175781 144.851562 427.71875 145.25 432.246094 145.777344 C 436.773438 146.304688 441.285156 146.964844 445.773438 147.753906 C 450.265625 148.542969 454.730469 149.464844 459.167969 150.515625 C 463.605469 151.5625 468.007812 152.738281 472.375 154.046875 C 476.746094 155.351562 481.070312 156.78125 485.359375 158.335938 C 489.644531 159.894531 493.878906 161.574219 498.070312 163.375 C 502.257812 165.175781 506.390625 167.097656 510.464844 169.140625 C 514.542969 171.183594 518.558594 173.34375 522.507812 175.617188 C 526.460938 177.894531 530.339844 180.28125 534.152344 182.78125 C 537.964844 185.28125 541.703125 187.890625 545.363281 190.609375 C 549.023438 193.328125 552.605469 196.148438 556.101562 199.074219 C 559.597656 202 563.007812 205.023438 566.328125 208.148438 C 569.652344 211.273438 572.878906 214.488281 576.015625 217.800781 C 579.148438 221.113281 582.183594 224.511719 585.121094 228 C 588.058594 231.484375 590.894531 235.054688 593.625 238.707031 L 596.371094 242.386719 L 746.097656 242.386719 L 737.828125 223.980469 L 605.28125 223.980469 C 602.328125 220.175781 599.265625 216.457031 596.097656 212.824219 C 592.933594 209.191406 589.664062 205.65625 586.296875 202.207031 C 582.929688 198.761719 579.464844 195.417969 575.90625 192.167969 C 572.347656 188.921875 568.699219 185.777344 564.960938 182.734375 C 561.222656 179.695312 557.402344 176.761719 553.496094 173.941406 C 549.589844 171.117188 545.609375 168.40625 541.550781 165.808594 C 537.492188 163.214844 533.363281 160.734375 529.160156 158.375 C 524.960938 156.011719 520.699219 153.773438 516.371094 151.652344 C 512.042969 149.535156 507.660156 147.542969 503.21875 145.671875 C 498.777344 143.804688 494.285156 142.0625 489.746094 140.449219 C 485.203125 138.835938 480.621094 137.351562 475.996094 136 C 471.375 134.648438 466.714844 133.425781 462.019531 132.339844 C 457.324219 131.253906 452.605469 130.300781 447.855469 129.480469 C 443.109375 128.660156 438.339844 127.980469 433.550781 127.433594 C 428.765625 126.882812 423.964844 126.472656 419.15625 126.199219 C 414.34375 125.925781 409.53125 125.789062 404.710938 125.789062 C 399.894531 125.789062 395.078125 125.925781 390.269531 126.199219 C 385.457031 126.472656 380.660156 126.882812 375.871094 127.433594 C 371.085938 127.980469 366.316406 128.660156 361.570312 129.480469 C 356.820312 130.300781 352.097656 131.253906 347.40625 132.339844 C 342.710938 133.425781 338.050781 134.648438 333.425781 136 C 328.800781 137.351562 324.21875 138.835938 319.679688 140.449219 C 315.140625 142.0625 310.648438 143.804688 306.207031 145.671875 C 301.765625 147.542969 297.382812 149.535156 293.054688 151.652344 C 288.726562 153.773438 284.464844 156.011719 280.261719 158.375 C 276.0625 160.734375 271.933594 163.214844 267.875 165.808594 C 263.816406 168.40625 259.832031 171.117188 255.929688 173.941406 C 252.023438 176.761719 248.203125 179.695312 244.464844 182.734375 C 240.726562 185.777344 237.078125 188.921875 233.519531 192.167969 C 229.960938 195.417969 226.496094 198.761719 223.128906 202.207031 C 219.761719 205.65625 216.492188 209.191406 213.324219 212.824219 C 210.160156 216.457031 207.097656 220.175781 204.140625 223.980469 L 71.597656 223.980469 L 63.328125 242.386719 Z M 213.542969 242.386719 " fill-opacity="1" fill-rule="nonzero"/><path fill="#000000" d="M 441.933594 444.222656 C 442.046875 442.085938 441.949219 439.957031 441.648438 437.835938 C 441.34375 435.714844 440.84375 433.644531 440.136719 431.621094 C 439.433594 429.601562 438.539062 427.664062 437.457031 425.816406 C 436.378906 423.96875 435.128906 422.242188 433.710938 420.636719 C 429.707031 416.953125 425.351562 413.746094 420.644531 411.019531 C 415.9375 408.292969 410.992188 406.105469 405.804688 404.460938 C 394.203125 400.1875 382.882812 395.28125 371.835938 389.734375 C 362.902344 385.257812 354.742188 379.652344 347.363281 372.917969 C 340.519531 366.582031 335.21875 359.144531 331.457031 350.609375 C 329.453125 345.773438 327.96875 340.785156 327.011719 335.640625 C 326.050781 330.496094 325.632812 325.304688 325.761719 320.074219 C 325.679688 317.773438 325.714844 315.472656 325.867188 313.171875 C 326.019531 310.875 326.289062 308.589844 326.671875 306.320312 C 327.058594 304.046875 327.558594 301.800781 328.171875 299.582031 C 328.785156 297.363281 329.511719 295.179688 330.347656 293.035156 C 331.183594 290.886719 332.128906 288.789062 333.179688 286.738281 C 334.230469 284.691406 335.382812 282.699219 336.636719 280.765625 C 337.890625 278.835938 339.238281 276.972656 340.683594 275.175781 C 342.125 273.382812 343.65625 271.664062 345.277344 270.027344 C 348.761719 266.683594 352.515625 263.667969 356.53125 260.988281 C 360.546875 258.304688 364.765625 255.992188 369.191406 254.050781 C 373.613281 252.109375 378.171875 250.570312 382.867188 249.433594 C 387.5625 248.292969 392.320312 247.574219 397.140625 247.273438 L 397.140625 208.640625 L 426.054688 208.640625 L 426.054688 247.835938 C 430.886719 248.34375 435.628906 249.304688 440.273438 250.726562 C 444.921875 252.148438 449.386719 254 453.675781 256.285156 C 457.964844 258.570312 461.996094 261.242188 465.769531 264.304688 C 469.542969 267.371094 472.984375 270.765625 476.101562 274.492188 C 479.222656 278.5625 481.96875 282.871094 484.335938 287.417969 C 486.703125 291.96875 488.660156 296.6875 490.199219 301.578125 C 491.738281 306.472656 492.84375 311.460938 493.507812 316.542969 C 494.175781 321.628906 494.394531 326.734375 494.167969 331.855469 L 441.960938 331.855469 C 442.175781 328.996094 442.144531 326.144531 441.867188 323.289062 C 441.589844 320.4375 441.070312 317.628906 440.308594 314.867188 C 439.546875 312.105469 438.554688 309.425781 437.332031 306.835938 C 436.109375 304.242188 434.671875 301.777344 433.023438 299.429688 C 431.578125 297.675781 429.953125 296.105469 428.144531 294.726562 C 426.335938 293.34375 424.394531 292.1875 422.316406 291.253906 C 420.242188 290.324219 418.085938 289.640625 415.855469 289.203125 C 413.621094 288.769531 411.367188 288.59375 409.09375 288.679688 C 406.996094 288.550781 404.90625 288.636719 402.824219 288.9375 C 400.742188 289.238281 398.714844 289.75 396.738281 290.472656 C 394.765625 291.195312 392.882812 292.113281 391.097656 293.226562 C 389.316406 294.335938 387.664062 295.621094 386.144531 297.074219 C 384.734375 298.644531 383.492188 300.339844 382.417969 302.15625 C 381.34375 303.976562 380.457031 305.878906 379.761719 307.871094 C 379.0625 309.867188 378.566406 311.90625 378.273438 313.996094 C 377.980469 316.089844 377.898438 318.1875 378.019531 320.292969 C 377.925781 322.304688 378.027344 324.300781 378.328125 326.289062 C 378.625 328.277344 379.117188 330.21875 379.800781 332.109375 C 380.480469 334 381.34375 335.804688 382.382812 337.527344 C 383.417969 339.25 384.617188 340.851562 385.972656 342.335938 C 390.289062 346.105469 394.933594 349.421875 399.902344 352.277344 C 404.871094 355.136719 410.070312 357.484375 415.5 359.320312 C 427.65625 364.066406 439.488281 369.515625 450.992188 375.667969 C 459.65625 380.324219 467.484375 386.109375 474.480469 393.023438 C 480.832031 399.390625 485.710938 406.738281 489.109375 415.0625 C 492.6875 424.335938 494.371094 433.941406 494.167969 443.878906 C 494.261719 446.167969 494.238281 448.457031 494.097656 450.742188 C 493.957031 453.027344 493.699219 455.300781 493.328125 457.5625 C 492.957031 459.824219 492.472656 462.058594 491.875 464.269531 C 491.273438 466.480469 490.5625 468.65625 489.742188 470.792969 C 488.921875 472.933594 487.996094 475.023438 486.960938 477.066406 C 485.925781 479.113281 484.792969 481.097656 483.554688 483.027344 C 482.320312 484.953125 480.988281 486.816406 479.5625 488.609375 C 478.136719 490.402344 476.621094 492.117188 475.023438 493.753906 C 471.453125 497.101562 467.621094 500.113281 463.523438 502.789062 C 459.429688 505.464844 455.132812 507.765625 450.636719 509.691406 C 446.140625 511.613281 441.507812 513.136719 436.746094 514.253906 C 431.984375 515.367188 427.160156 516.0625 422.273438 516.335938 L 422.273438 552.269531 L 393.554688 552.269531 L 393.554688 516.507812 C 388.167969 516.195312 382.855469 515.386719 377.621094 514.082031 C 372.382812 512.777344 367.3125 511.003906 362.40625 508.753906 C 357.5 506.503906 352.84375 503.824219 348.4375 500.707031 C 344.03125 497.59375 339.949219 494.097656 336.195312 490.21875 C 332.695312 486.144531 329.613281 481.773438 326.949219 477.113281 C 324.28125 472.449219 322.078125 467.578125 320.335938 462.496094 C 318.597656 457.414062 317.351562 452.214844 316.601562 446.894531 C 315.851562 441.578125 315.605469 436.234375 315.871094 430.871094 L 368.078125 430.871094 C 367.882812 433.8125 367.953125 436.75 368.296875 439.679688 C 368.640625 442.609375 369.25 445.484375 370.121094 448.300781 C 370.996094 451.117188 372.117188 453.832031 373.488281 456.445312 C 374.863281 459.054688 376.460938 461.519531 378.289062 463.835938 C 380.167969 465.804688 382.238281 467.546875 384.5 469.066406 C 386.761719 470.582031 389.160156 471.835938 391.695312 472.824219 C 394.230469 473.816406 396.84375 474.519531 399.535156 474.9375 C 402.226562 475.351562 404.929688 475.472656 407.644531 475.296875 C 409.910156 475.421875 412.164062 475.335938 414.410156 475.03125 C 416.65625 474.730469 418.855469 474.222656 421.003906 473.503906 C 423.152344 472.785156 425.214844 471.871094 427.191406 470.757812 C 429.167969 469.648438 431.023438 468.363281 432.753906 466.902344 C 434.296875 465.460938 435.667969 463.867188 436.863281 462.125 C 438.0625 460.382812 439.058594 458.535156 439.851562 456.574219 C 440.648438 454.617188 441.222656 452.597656 441.578125 450.515625 C 441.933594 448.429688 442.058594 446.332031 441.960938 444.222656 Z M 441.933594 444.222656 " fill-opacity="1" fill-rule="nonzero"/></svg>