<svg xmlns="http://www.w3.org/2000/svg" xmlns:xlink="http://www.w3.org/1999/xlink" width="1080" zoomAndPan="magnify" viewBox="0 0 810 809.999993" height="1080" preserveAspectRatio="xMidYMid meet" version="1.0"><defs><clipPath id="894db4f598"><path d="M 40.5 49 L 801.75 49 L 801.75 810 L 40.5 810 Z M 40.5 49 " clip-rule="nonzero"/></clipPath><clipPath id="8a1f71a109"><path d="M 40.5 0 L 801.75 0 L 801.75 761 L 40.5 761 Z M 40.5 0 " clip-rule="nonzero"/></clipPath></defs><g clip-path="url(#894db4f598)"><path fill="#000000" d="M 801.398438 429.546875 C 801.398438 435.769531 801.246094 441.992188 800.941406 448.210938 C 800.632812 454.433594 800.175781 460.640625 799.566406 466.835938 C 798.957031 473.03125 798.195312 479.210938 797.28125 485.367188 C 796.367188 491.527344 795.304688 497.660156 794.089844 503.765625 C 792.875 509.875 791.507812 515.945312 789.996094 521.988281 C 788.484375 528.027344 786.824219 534.027344 785.015625 539.984375 C 783.207031 545.941406 781.257812 551.851562 779.160156 557.714844 C 777.0625 563.578125 774.820312 569.382812 772.4375 575.136719 C 770.054688 580.890625 767.535156 586.578125 764.871094 592.207031 C 762.210938 597.835938 759.410156 603.394531 756.476562 608.886719 C 753.539062 614.378906 750.472656 619.792969 747.269531 625.136719 C 744.070312 630.476562 740.742188 635.734375 737.28125 640.910156 C 733.820312 646.089844 730.238281 651.175781 726.527344 656.179688 C 722.820312 661.179688 718.992188 666.085938 715.039062 670.898438 C 711.089844 675.710938 707.023438 680.425781 702.84375 685.039062 C 698.660156 689.652344 694.371094 694.160156 689.96875 698.5625 C 685.566406 702.964844 681.054688 707.257812 676.441406 711.4375 C 671.828125 715.621094 667.117188 719.6875 662.304688 723.636719 C 657.492188 727.585938 652.582031 731.414062 647.582031 735.125 C 642.582031 738.832031 637.492188 742.417969 632.316406 745.878906 C 627.136719 749.335938 621.878906 752.667969 616.539062 755.867188 C 611.199219 759.066406 605.78125 762.136719 600.292969 765.070312 C 594.800781 768.007812 589.242188 770.804688 583.613281 773.46875 C 577.984375 776.128906 572.292969 778.652344 566.539062 781.035156 C 560.789062 783.417969 554.980469 785.65625 549.117188 787.753906 C 543.257812 789.851562 537.347656 791.804688 531.386719 793.613281 C 525.429688 795.417969 519.429688 797.078125 513.390625 798.59375 C 507.351562 800.105469 501.277344 801.46875 495.171875 802.683594 C 489.0625 803.898438 482.929688 804.960938 476.773438 805.875 C 470.613281 806.789062 464.4375 807.550781 458.238281 808.164062 C 452.042969 808.773438 445.835938 809.230469 439.617188 809.535156 C 433.398438 809.839844 427.175781 809.996094 420.949219 809.996094 C 414.722656 809.996094 408.5 809.839844 402.28125 809.535156 C 396.0625 809.230469 389.855469 808.773438 383.660156 808.164062 C 377.460938 807.550781 371.285156 806.789062 365.125 805.875 C 358.964844 804.960938 352.832031 803.898438 346.726562 802.683594 C 340.621094 801.46875 334.546875 800.105469 328.507812 798.59375 C 322.46875 797.078125 316.46875 795.417969 310.511719 793.613281 C 304.550781 791.804688 298.640625 789.851562 292.78125 787.753906 C 286.917969 785.65625 281.109375 783.417969 275.359375 781.035156 C 269.605469 778.652344 263.914062 776.128906 258.285156 773.46875 C 252.65625 770.804688 247.097656 768.007812 241.605469 765.070312 C 236.117188 762.136719 230.699219 759.066406 225.359375 755.867188 C 220.019531 752.667969 214.761719 749.335938 209.582031 745.878906 C 204.40625 742.417969 199.316406 738.832031 194.316406 735.125 C 189.316406 731.414062 184.40625 727.585938 179.59375 723.636719 C 174.78125 719.6875 170.070312 715.621094 165.457031 711.4375 C 160.839844 707.257812 156.332031 702.964844 151.929688 698.5625 C 147.527344 694.160156 143.234375 689.652344 139.054688 685.039062 C 134.875 680.425781 130.808594 675.710938 126.859375 670.898438 C 122.90625 666.085938 119.078125 661.179688 115.371094 656.179688 C 111.660156 651.175781 108.078125 646.089844 104.617188 640.910156 C 101.15625 635.734375 97.828125 630.476562 94.628906 625.136719 C 91.425781 619.792969 88.359375 614.378906 85.421875 608.886719 C 82.488281 603.394531 79.6875 597.835938 77.027344 592.207031 C 74.363281 586.578125 71.84375 580.890625 69.460938 575.136719 C 67.078125 569.382812 64.835938 563.578125 62.738281 557.714844 C 60.640625 551.851562 58.6875 545.941406 56.882812 539.984375 C 55.074219 534.027344 53.414062 528.027344 51.902344 521.988281 C 50.390625 515.945312 49.023438 509.875 47.808594 503.765625 C 46.59375 497.660156 45.53125 491.527344 44.617188 485.367188 C 43.703125 479.210938 42.941406 473.03125 42.332031 466.835938 C 41.722656 460.640625 41.265625 454.433594 40.957031 448.210938 C 40.652344 441.992188 40.5 435.769531 40.5 429.546875 C 40.5 423.320312 40.652344 417.097656 40.957031 410.878906 C 41.265625 404.660156 41.722656 398.449219 42.332031 392.253906 C 42.941406 386.058594 43.703125 379.878906 44.617188 373.722656 C 45.53125 367.5625 46.59375 361.429688 47.808594 355.324219 C 49.023438 349.214844 50.390625 343.144531 51.902344 337.101562 C 53.414062 331.0625 55.074219 325.066406 56.882812 319.105469 C 58.6875 313.148438 60.640625 307.238281 62.738281 301.375 C 64.835938 295.511719 67.078125 289.707031 69.460938 283.953125 C 71.84375 278.199219 74.363281 272.511719 77.027344 266.882812 C 79.6875 261.253906 82.488281 255.695312 85.421875 250.203125 C 88.359375 244.710938 91.425781 239.296875 94.628906 233.953125 C 97.828125 228.613281 101.15625 223.355469 104.617188 218.179688 C 108.078125 213 111.660156 207.914062 115.371094 202.910156 C 119.078125 197.910156 122.90625 193.003906 126.859375 188.191406 C 130.808594 183.378906 134.875 178.664062 139.054688 174.050781 C 143.234375 169.4375 147.527344 164.929688 151.929688 160.527344 C 156.332031 156.125 160.839844 151.832031 165.457031 147.652344 C 170.070312 143.46875 174.78125 139.402344 179.59375 135.453125 C 184.40625 131.503906 189.316406 127.675781 194.316406 123.964844 C 199.316406 120.257812 204.40625 116.671875 209.582031 113.214844 C 214.761719 109.753906 220.019531 106.425781 225.359375 103.222656 C 230.699219 100.023438 236.117188 96.953125 241.605469 94.019531 C 247.097656 91.082031 252.65625 88.285156 258.285156 85.625 C 263.914062 82.960938 269.605469 80.4375 275.359375 78.054688 C 281.109375 75.671875 286.917969 73.433594 292.78125 71.335938 C 298.640625 69.238281 304.550781 67.285156 310.511719 65.476562 C 316.46875 63.671875 322.46875 62.011719 328.507812 60.496094 C 334.546875 58.984375 340.621094 57.621094 346.726562 56.40625 C 352.832031 55.191406 358.964844 54.128906 365.125 53.214844 C 371.285156 52.300781 377.460938 51.539062 383.660156 50.929688 C 389.855469 50.316406 396.0625 49.859375 402.28125 49.554688 C 408.5 49.25 414.722656 49.097656 420.949219 49.097656 C 427.175781 49.097656 433.398438 49.25 439.617188 49.554688 C 445.835938 49.859375 452.042969 50.316406 458.238281 50.929688 C 464.4375 51.539062 470.613281 52.300781 476.773438 53.214844 C 482.929688 54.128906 489.0625 55.191406 495.171875 56.40625 C 501.277344 57.621094 507.351562 58.984375 513.390625 60.496094 C 519.429688 62.011719 525.429688 63.671875 531.386719 65.476562 C 537.347656 67.285156 543.257812 69.238281 549.117188 71.335938 C 554.980469 73.433594 560.789062 75.671875 566.539062 78.054688 C 572.292969 80.4375 577.984375 82.960938 583.613281 85.625 C 589.242188 88.285156 594.800781 91.082031 600.292969 94.019531 C 605.78125 96.953125 611.199219 100.023438 616.539062 103.222656 C 621.878906 106.425781 627.136719 109.753906 632.316406 113.214844 C 637.492188 116.671875 642.582031 120.257812 647.582031 123.964844 C 652.582031 127.675781 657.492188 131.503906 662.304688 135.453125 C 667.117188 139.402344 671.828125 143.46875 676.441406 147.652344 C 681.058594 151.832031 685.566406 156.125 689.96875 160.527344 C 694.371094 164.929688 698.660156 169.4375 702.84375 174.050781 C 707.023438 178.664062 711.089844 183.378906 715.039062 188.191406 C 718.992188 193.003906 722.820312 197.910156 726.527344 202.910156 C 730.238281 207.914062 733.820312 213 737.28125 218.179688 C 740.742188 223.355469 744.070312 228.613281 747.269531 233.953125 C 750.472656 239.296875 753.539062 244.710938 756.476562 250.203125 C 759.410156 255.695312 762.210938 261.253906 764.871094 266.882812 C 767.535156 272.511719 770.054688 278.199219 772.4375 283.953125 C 774.820312 289.707031 777.0625 295.511719 779.160156 301.375 C 781.257812 307.238281 783.207031 313.148438 785.015625 319.105469 C 786.824219 325.066406 788.484375 331.0625 789.996094 337.101562 C 791.507812 343.144531 792.875 349.214844 794.089844 355.324219 C 795.304688 361.429688 796.367188 367.5625 797.28125 373.722656 C 798.195312 379.878906 798.957031 386.058594 799.566406 392.253906 C 800.175781 398.449219 800.632812 404.660156 800.941406 410.878906 C 801.246094 417.097656 801.398438 423.320312 801.398438 429.546875 Z M 801.398438 429.546875 " fill-opacity="1" fill-rule="nonzero"/></g><g clip-path="url(#8a1f71a109)"><path fill="#000000" d="M 801.398438 380.453125 C 801.398438 386.679688 801.246094 392.902344 800.941406 399.121094 C 800.632812 405.339844 800.175781 411.550781 799.566406 417.746094 C 798.957031 423.941406 798.195312 430.121094 797.28125 436.277344 C 796.367188 442.4375 795.304688 448.570312 794.089844 454.675781 C 792.875 460.785156 791.507812 466.855469 789.996094 472.894531 C 788.484375 478.9375 786.824219 484.933594 785.015625 490.894531 C 783.207031 496.851562 781.257812 502.761719 779.160156 508.625 C 777.0625 514.488281 774.820312 520.292969 772.4375 526.046875 C 770.054688 531.796875 767.535156 537.488281 764.871094 543.117188 C 762.210938 548.746094 759.410156 554.304688 756.476562 559.796875 C 753.539062 565.289062 750.472656 570.703125 747.269531 576.042969 C 744.070312 581.386719 740.742188 586.644531 737.28125 591.820312 C 733.820312 597 730.238281 602.085938 726.527344 607.089844 C 722.820312 612.089844 718.992188 616.996094 715.039062 621.808594 C 711.089844 626.621094 707.023438 631.335938 702.84375 635.949219 C 698.660156 640.5625 694.371094 645.070312 689.96875 649.472656 C 685.566406 653.875 681.054688 658.167969 676.441406 662.347656 C 671.828125 666.53125 667.117188 670.597656 662.304688 674.546875 C 657.492188 678.496094 652.582031 682.324219 647.582031 686.035156 C 642.582031 689.742188 637.492188 693.328125 632.316406 696.785156 C 627.136719 700.246094 621.878906 703.574219 616.539062 706.777344 C 611.199219 709.976562 605.78125 713.046875 600.292969 715.980469 C 594.800781 718.917969 589.242188 721.714844 583.613281 724.375 C 577.984375 727.039062 572.292969 729.5625 566.539062 731.945312 C 560.789062 734.328125 554.980469 736.566406 549.117188 738.664062 C 543.257812 740.761719 537.347656 742.714844 531.386719 744.523438 C 525.429688 746.328125 519.429688 747.988281 513.390625 749.503906 C 507.351562 751.015625 501.277344 752.378906 495.171875 753.59375 C 489.0625 754.808594 482.929688 755.871094 476.773438 756.785156 C 470.613281 757.699219 464.4375 758.460938 458.238281 759.070312 C 452.042969 759.683594 445.835938 760.140625 439.617188 760.445312 C 433.398438 760.75 427.175781 760.902344 420.949219 760.902344 C 414.722656 760.902344 408.5 760.75 402.28125 760.445312 C 396.0625 760.140625 389.855469 759.683594 383.660156 759.070312 C 377.460938 758.460938 371.285156 757.699219 365.125 756.785156 C 358.964844 755.871094 352.832031 754.808594 346.726562 753.59375 C 340.621094 752.378906 334.546875 751.015625 328.507812 749.503906 C 322.46875 747.988281 316.46875 746.328125 310.511719 744.523438 C 304.550781 742.714844 298.640625 740.761719 292.78125 738.664062 C 286.917969 736.566406 281.109375 734.328125 275.359375 731.945312 C 269.605469 729.5625 263.914062 727.039062 258.285156 724.375 C 252.65625 721.714844 247.097656 718.917969 241.605469 715.980469 C 236.117188 713.046875 230.699219 709.976562 225.359375 706.777344 C 220.019531 703.574219 214.761719 700.246094 209.582031 696.785156 C 204.40625 693.328125 199.316406 689.742188 194.316406 686.035156 C 189.316406 682.324219 184.40625 678.496094 179.59375 674.546875 C 174.78125 670.597656 170.070312 666.53125 165.457031 662.347656 C 160.839844 658.167969 156.332031 653.875 151.929688 649.472656 C 147.527344 645.070312 143.234375 640.5625 139.054688 635.949219 C 134.875 631.335938 130.808594 626.621094 126.859375 621.808594 C 122.90625 616.996094 119.078125 612.089844 115.371094 607.089844 C 111.660156 602.085938 108.078125 597 104.617188 591.820312 C 101.15625 586.644531 97.828125 581.386719 94.628906 576.042969 C 91.425781 570.703125 88.359375 565.289062 85.421875 559.796875 C 82.488281 554.304688 79.6875 548.746094 77.027344 543.117188 C 74.363281 537.488281 71.84375 531.796875 69.460938 526.046875 C 67.078125 520.292969 64.835938 514.488281 62.738281 508.625 C 60.640625 502.761719 58.6875 496.851562 56.882812 490.894531 C 55.074219 484.933594 53.414062 478.9375 51.902344 472.894531 C 50.390625 466.855469 49.023438 460.785156 47.808594 454.675781 C 46.59375 448.570312 45.53125 442.4375 44.617188 436.277344 C 43.703125 430.121094 42.941406 423.941406 42.332031 417.746094 C 41.722656 411.550781 41.265625 405.339844 40.957031 399.121094 C 40.652344 392.902344 40.5 386.679688 40.5 380.453125 C 40.5 374.230469 40.652344 368.007812 40.957031 361.789062 C 41.265625 355.566406 41.722656 349.359375 42.332031 343.164062 C 42.941406 336.96875 43.703125 330.789062 44.617188 324.632812 C 45.53125 318.472656 46.59375 312.339844 47.808594 306.234375 C 49.023438 300.125 50.390625 294.054688 51.902344 288.011719 C 53.414062 281.972656 55.074219 275.972656 56.882812 270.015625 C 58.6875 264.058594 60.640625 258.148438 62.738281 252.285156 C 64.835938 246.421875 67.078125 240.617188 69.460938 234.863281 C 71.84375 229.109375 74.363281 223.421875 77.027344 217.792969 C 79.6875 212.164062 82.488281 206.601562 85.421875 201.113281 C 88.359375 195.621094 91.425781 190.207031 94.628906 184.863281 C 97.828125 179.523438 101.15625 174.265625 104.617188 169.089844 C 108.078125 163.910156 111.660156 158.824219 115.371094 153.820312 C 119.078125 148.820312 122.90625 143.914062 126.859375 139.101562 C 130.808594 134.289062 134.875 129.574219 139.054688 124.960938 C 143.234375 120.347656 147.527344 115.839844 151.929688 111.4375 C 156.332031 107.035156 160.839844 102.742188 165.457031 98.5625 C 170.070312 94.378906 174.78125 90.3125 179.59375 86.363281 C 184.40625 82.414062 189.316406 78.585938 194.316406 74.875 C 199.316406 71.167969 204.40625 67.582031 209.582031 64.121094 C 214.761719 60.664062 220.019531 57.332031 225.359375 54.132812 C 230.699219 50.933594 236.117188 47.863281 241.605469 44.929688 C 247.097656 41.992188 252.65625 39.195312 258.285156 36.53125 C 263.914062 33.871094 269.605469 31.347656 275.359375 28.964844 C 281.109375 26.582031 286.917969 24.34375 292.78125 22.246094 C 298.640625 20.148438 304.550781 18.195312 310.511719 16.386719 C 316.46875 14.582031 322.46875 12.921875 328.507812 11.40625 C 334.546875 9.894531 340.621094 8.53125 346.726562 7.316406 C 352.832031 6.101562 358.964844 5.035156 365.125 4.125 C 371.285156 3.210938 377.460938 2.449219 383.660156 1.835938 C 389.855469 1.226562 396.0625 0.769531 402.28125 0.464844 C 408.5 0.160156 414.722656 0.00390625 420.949219 0.00390625 C 427.175781 0.00390625 433.398438 0.160156 439.617188 0.464844 C 445.835938 0.769531 452.042969 1.226562 458.238281 1.835938 C 464.4375 2.449219 470.613281 3.210938 476.773438 4.125 C 482.929688 5.035156 489.0625 6.101562 495.171875 7.316406 C 501.277344 8.53125 507.351562 9.894531 513.390625 11.40625 C 519.429688 12.921875 525.429688 14.582031 531.386719 16.386719 C 537.347656 18.195312 543.257812 20.148438 549.117188 22.246094 C 554.980469 24.34375 560.789062 26.582031 566.539062 28.964844 C 572.292969 31.347656 577.984375 33.871094 583.613281 36.53125 C 589.242188 39.195312 594.800781 41.992188 600.292969 44.929688 C 605.78125 47.863281 611.199219 50.933594 616.539062 54.132812 C 621.878906 57.332031 627.136719 60.664062 632.316406 64.121094 C 637.492188 67.582031 642.582031 71.167969 647.582031 74.875 C 652.582031 78.585938 657.492188 82.414062 662.304688 86.363281 C 667.117188 90.3125 671.828125 94.378906 676.441406 98.5625 C 681.058594 102.742188 685.566406 107.035156 689.96875 111.4375 C 694.371094 115.839844 698.660156 120.347656 702.84375 124.960938 C 707.023438 129.574219 711.089844 134.289062 715.039062 139.101562 C 718.992188 143.914062 722.820312 148.820312 726.527344 153.820312 C 730.238281 158.824219 733.820312 163.910156 737.28125 169.089844 C 740.742188 174.265625 744.070312 179.523438 747.269531 184.863281 C 750.472656 190.207031 753.539062 195.621094 756.476562 201.113281 C 759.410156 206.601562 762.210938 212.164062 764.871094 217.792969 C 767.535156 223.421875 770.054688 229.109375 772.4375 234.863281 C 774.820312 240.617188 777.0625 246.421875 779.160156 252.285156 C 781.257812 258.148438 783.207031 264.058594 785.015625 270.015625 C 786.824219 275.972656 788.484375 281.972656 789.996094 288.011719 C 791.507812 294.054688 792.875 300.125 794.089844 306.234375 C 795.304688 312.339844 796.367188 318.472656 797.28125 324.632812 C 798.195312 330.789062 798.957031 336.96875 799.566406 343.164062 C 800.175781 349.359375 800.632812 355.566406 800.941406 361.789062 C 801.246094 368.007812 801.398438 374.230469 801.398438 380.453125 Z M 801.398438 380.453125 " fill-opacity="1" fill-rule="nonzero"/></g><path fill="#dfdfdf" d="M 609.628906 238.730469 C 606.898438 235.078125 604.0625 231.511719 601.125 228.023438 C 598.1875 224.535156 595.152344 221.136719 592.019531 217.824219 C 588.882812 214.515625 585.65625 211.296875 582.332031 208.171875 C 579.011719 205.050781 575.601562 202.023438 572.105469 199.097656 C 568.609375 196.175781 565.027344 193.351562 561.367188 190.632812 C 557.707031 187.917969 553.96875 185.308594 550.15625 182.808594 C 546.34375 180.304688 542.464844 177.917969 538.511719 175.640625 C 534.558594 173.367188 530.546875 171.207031 526.46875 169.167969 C 522.394531 167.125 518.261719 165.203125 514.074219 163.398438 C 509.882812 161.597656 505.648438 159.917969 501.363281 158.363281 C 497.074219 156.804688 492.75 155.375 488.378906 154.070312 C 484.011719 152.765625 479.609375 151.585938 475.171875 150.539062 C 470.734375 149.488281 466.269531 148.570312 461.777344 147.777344 C 457.289062 146.988281 452.777344 146.328125 448.25 145.800781 C 443.722656 145.273438 439.179688 144.878906 434.628906 144.613281 C 430.078125 144.347656 425.519531 144.214844 420.960938 144.214844 C 416.402344 144.214844 411.847656 144.347656 407.292969 144.613281 C 402.742188 144.878906 398.203125 145.273438 393.671875 145.800781 C 389.144531 146.328125 384.632812 146.988281 380.144531 147.777344 C 375.652344 148.570312 371.191406 149.488281 366.753906 150.539062 C 362.316406 151.585938 357.914062 152.765625 353.542969 154.070312 C 349.175781 155.375 344.847656 156.804688 340.5625 158.363281 C 336.277344 159.917969 332.039062 161.597656 327.851562 163.398438 C 323.664062 165.203125 319.53125 167.125 315.453125 169.167969 C 311.375 171.207031 307.363281 173.367188 303.410156 175.640625 C 299.460938 177.917969 295.578125 180.304688 291.765625 182.808594 C 287.953125 185.308594 284.214844 187.917969 280.554688 190.632812 C 276.894531 193.351562 273.316406 196.175781 269.816406 199.097656 C 266.320312 202.023438 262.910156 205.050781 259.589844 208.171875 C 256.269531 211.296875 253.039062 214.515625 249.90625 217.824219 C 246.769531 221.136719 243.734375 224.535156 240.796875 228.023438 C 237.859375 231.511719 235.027344 235.078125 232.296875 238.730469 L 229.546875 242.414062 L 79.773438 242.414062 C 77.546875 247.878906 75.457031 253.394531 73.5 258.957031 C 71.542969 264.523438 69.722656 270.132812 68.035156 275.785156 C 66.351562 281.441406 64.800781 287.132812 63.390625 292.859375 C 61.980469 298.589844 60.707031 304.347656 59.574219 310.136719 C 58.441406 315.925781 57.449219 321.742188 56.597656 327.578125 C 55.746094 333.417969 55.035156 339.273438 54.46875 345.144531 C 53.898438 351.015625 53.472656 356.898438 53.1875 362.789062 C 52.902344 368.683594 52.757812 374.578125 52.757812 380.480469 C 52.757812 386.378906 52.902344 392.273438 53.1875 398.167969 C 53.472656 404.0625 53.898438 409.941406 54.46875 415.816406 C 55.035156 421.6875 55.746094 427.542969 56.597656 433.378906 C 57.449219 439.21875 58.441406 445.03125 59.574219 450.820312 C 60.707031 456.609375 61.980469 462.371094 63.390625 468.097656 C 64.800781 473.828125 66.351562 479.519531 68.035156 485.171875 C 69.722656 490.824219 71.542969 496.433594 73.5 502 C 75.457031 507.566406 77.546875 513.082031 79.773438 518.546875 L 229.496094 518.546875 L 232.246094 522.226562 C 234.976562 525.878906 237.808594 529.449219 240.746094 532.9375 C 243.683594 536.421875 246.722656 539.824219 249.855469 543.132812 C 252.992188 546.445312 256.21875 549.660156 259.539062 552.785156 C 262.863281 555.910156 266.269531 558.933594 269.769531 561.859375 C 273.265625 564.785156 276.84375 567.605469 280.507812 570.324219 C 284.167969 573.042969 287.902344 575.652344 291.714844 578.152344 C 295.527344 580.652344 299.410156 583.039062 303.363281 585.316406 C 307.3125 587.589844 311.328125 589.75 315.402344 591.792969 C 319.480469 593.835938 323.613281 595.757812 327.800781 597.558594 C 331.988281 599.363281 336.226562 601.042969 340.511719 602.597656 C 344.796875 604.152344 349.125 605.585938 353.496094 606.890625 C 357.863281 608.195312 362.265625 609.371094 366.703125 610.421875 C 371.140625 611.46875 375.605469 612.390625 380.09375 613.179688 C 384.585938 613.96875 389.09375 614.628906 393.625 615.15625 C 398.152344 615.683594 402.691406 616.082031 407.246094 616.347656 C 411.796875 616.609375 416.351562 616.742188 420.914062 616.742188 C 425.472656 616.742188 430.027344 616.609375 434.578125 616.347656 C 439.132812 616.082031 443.671875 615.683594 448.199219 615.15625 C 452.730469 614.628906 457.238281 613.96875 461.730469 613.179688 C 466.21875 612.390625 470.683594 611.46875 475.121094 610.421875 C 479.558594 609.371094 483.960938 608.195312 488.332031 606.890625 C 492.699219 605.585938 497.027344 604.152344 501.3125 602.597656 C 505.597656 601.042969 509.835938 599.363281 514.023438 597.558594 C 518.210938 595.757812 522.34375 593.835938 526.421875 591.792969 C 530.496094 589.75 534.511719 587.589844 538.460938 585.316406 C 542.414062 583.039062 546.296875 580.652344 550.109375 578.152344 C 553.921875 575.652344 557.65625 573.042969 561.320312 570.324219 C 564.980469 567.605469 568.558594 564.785156 572.054688 561.859375 C 575.554688 558.933594 578.960938 555.910156 582.285156 552.785156 C 585.605469 549.664062 588.835938 546.445312 591.96875 543.132812 C 595.105469 539.824219 598.140625 536.421875 601.078125 532.9375 C 604.015625 529.449219 606.847656 525.878906 609.578125 522.226562 L 612.328125 518.546875 L 762.050781 518.546875 C 764.277344 513.082031 766.367188 507.566406 768.324219 502 C 770.28125 496.433594 772.101562 490.824219 773.789062 485.171875 C 775.472656 479.519531 777.023438 473.828125 778.433594 468.097656 C 779.84375 462.371094 781.117188 456.609375 782.25 450.820312 C 783.382812 445.03125 784.375 439.21875 785.226562 433.378906 C 786.078125 427.542969 786.789062 421.6875 787.359375 415.816406 C 787.925781 409.941406 788.355469 404.0625 788.640625 398.167969 C 788.921875 392.273438 789.066406 386.378906 789.066406 380.480469 C 789.066406 374.578125 788.921875 368.683594 788.640625 362.789062 C 788.355469 356.898438 787.925781 351.015625 787.359375 345.144531 C 786.789062 339.269531 786.078125 333.417969 785.226562 327.578125 C 784.375 321.742188 783.382812 315.925781 782.25 310.136719 C 781.117188 304.347656 779.84375 298.589844 778.433594 292.859375 C 777.023438 287.132812 775.472656 281.441406 773.789062 275.785156 C 772.101562 270.132812 770.28125 264.523438 768.324219 258.957031 C 766.367188 253.394531 764.277344 247.878906 762.050781 242.414062 L 612.328125 242.414062 Z M 609.628906 238.730469 " fill-opacity="1" fill-rule="nonzero"/><path fill="#000000" d="M 420.949219 635.109375 C 416.128906 635.125 411.3125 635 406.496094 634.738281 C 401.683594 634.476562 396.882812 634.078125 392.089844 633.542969 C 387.300781 633.003906 382.53125 632.332031 377.777344 631.519531 C 373.023438 630.710938 368.300781 629.765625 363.601562 628.683594 C 358.902344 627.601562 354.242188 626.390625 349.613281 625.039062 C 344.984375 623.691406 340.398438 622.214844 335.855469 620.601562 C 331.3125 618.992188 326.816406 617.253906 322.371094 615.386719 C 317.929688 613.515625 313.542969 611.523438 309.210938 609.402344 C 304.882812 607.285156 300.617188 605.042969 296.414062 602.679688 C 292.214844 600.316406 288.082031 597.832031 284.023438 595.234375 C 279.964844 592.632812 275.984375 589.917969 272.078125 587.089844 C 268.175781 584.261719 264.355469 581.324219 260.621094 578.277344 C 256.886719 575.230469 253.238281 572.078125 249.683594 568.824219 C 246.128906 565.566406 242.671875 562.210938 239.308594 558.757812 C 235.945312 555.304688 232.683594 551.757812 229.523438 548.113281 C 226.367188 544.472656 223.3125 540.746094 220.367188 536.929688 L 87.824219 536.929688 C 89.664062 540.859375 91.570312 544.753906 93.546875 548.617188 C 95.527344 552.476562 97.570312 556.300781 99.683594 560.089844 C 101.796875 563.878906 103.976562 567.632812 106.222656 571.34375 C 108.46875 575.054688 110.777344 578.726562 113.15625 582.355469 C 115.53125 585.984375 117.96875 589.574219 120.472656 593.117188 C 122.976562 596.660156 125.539062 600.160156 128.167969 603.613281 C 130.792969 607.066406 133.480469 610.46875 136.226562 613.828125 C 138.972656 617.1875 141.78125 620.492188 144.644531 623.753906 C 147.507812 627.011719 150.429688 630.21875 153.40625 633.371094 C 156.386719 636.527344 159.417969 639.628906 162.507812 642.675781 C 165.59375 645.722656 168.734375 648.714844 171.929688 651.652344 C 175.121094 654.589844 178.367188 657.46875 181.660156 660.289062 C 184.957031 663.109375 188.300781 665.875 191.695312 668.578125 C 195.089844 671.28125 198.527344 673.921875 202.015625 676.503906 C 205.503906 679.085938 209.035156 681.601562 212.609375 684.058594 C 216.1875 686.515625 219.804688 688.90625 223.464844 691.234375 C 227.125 693.566406 230.828125 695.828125 234.566406 698.023438 C 238.308594 700.222656 242.085938 702.351562 245.902344 704.414062 C 249.71875 706.476562 253.570312 708.472656 257.457031 710.402344 C 261.34375 712.328125 265.265625 714.183594 269.21875 715.972656 C 273.171875 717.761719 277.152344 719.480469 281.167969 721.125 C 285.179688 722.773438 289.222656 724.347656 293.292969 725.851562 C 297.359375 727.355469 301.457031 728.789062 305.574219 730.148438 C 309.695312 731.507812 313.839844 732.792969 318.003906 734.003906 C 322.167969 735.21875 326.355469 736.355469 330.5625 737.417969 C 334.765625 738.484375 338.992188 739.472656 343.230469 740.386719 C 347.472656 741.300781 351.726562 742.140625 356 742.90625 C 360.269531 743.667969 364.550781 744.359375 368.847656 744.96875 C 373.140625 745.582031 377.445312 746.117188 381.761719 746.578125 C 386.074219 747.039062 390.394531 747.421875 394.722656 747.730469 C 399.050781 748.035156 403.382812 748.265625 407.71875 748.417969 C 412.054688 748.574219 416.390625 748.648438 420.726562 748.648438 C 425.066406 748.648438 429.402344 748.574219 433.738281 748.417969 C 438.074219 748.265625 442.40625 748.035156 446.734375 747.730469 C 451.0625 747.421875 455.382812 747.039062 459.695312 746.578125 C 464.011719 746.117188 468.316406 745.582031 472.609375 744.96875 C 476.90625 744.359375 481.1875 743.667969 485.457031 742.90625 C 489.730469 742.140625 493.984375 741.300781 498.226562 740.386719 C 502.464844 739.472656 506.691406 738.484375 510.894531 737.417969 C 515.101562 736.355469 519.289062 735.21875 523.453125 734.003906 C 527.617188 732.792969 531.761719 731.507812 535.882812 730.148438 C 540 728.789062 544.097656 727.355469 548.164062 725.851562 C 552.234375 724.347656 556.277344 722.773438 560.289062 721.125 C 564.304688 719.480469 568.285156 717.761719 572.238281 715.972656 C 576.191406 714.183594 580.113281 712.328125 584 710.402344 C 587.886719 708.472656 591.738281 706.476562 595.554688 704.414062 C 599.371094 702.351562 603.148438 700.222656 606.890625 698.023438 C 610.628906 695.828125 614.332031 693.566406 617.992188 691.234375 C 621.652344 688.90625 625.269531 686.515625 628.847656 684.058594 C 632.421875 681.601562 635.953125 679.085938 639.441406 676.503906 C 642.929688 673.921875 646.367188 671.28125 649.761719 668.578125 C 653.15625 665.875 656.5 663.109375 659.796875 660.289062 C 663.089844 657.46875 666.335938 654.589844 669.527344 651.652344 C 672.722656 648.714844 675.863281 645.722656 678.949219 642.675781 C 682.039062 639.628906 685.070312 636.527344 688.050781 633.371094 C 691.027344 630.21875 693.949219 627.011719 696.8125 623.753906 C 699.675781 620.492188 702.480469 617.1875 705.230469 613.828125 C 707.976562 610.46875 710.664062 607.066406 713.289062 603.613281 C 715.917969 600.160156 718.480469 596.660156 720.984375 593.117188 C 723.488281 589.574219 725.925781 585.984375 728.300781 582.355469 C 730.675781 578.726562 732.988281 575.054688 735.234375 571.34375 C 737.480469 567.632812 739.660156 563.878906 741.773438 560.089844 C 743.886719 556.300781 745.929688 552.476562 747.90625 548.617188 C 749.886719 544.753906 751.792969 540.859375 753.632812 536.929688 L 621.089844 536.929688 C 618.144531 540.746094 615.089844 544.472656 611.929688 548.113281 C 608.773438 551.757812 605.511719 555.304688 602.148438 558.757812 C 598.785156 562.210938 595.328125 565.566406 591.769531 568.824219 C 588.214844 572.078125 584.570312 575.230469 580.835938 578.277344 C 577.101562 581.324219 573.28125 584.261719 569.375 587.089844 C 565.472656 589.917969 561.492188 592.632812 557.433594 595.234375 C 553.375 597.832031 549.242188 600.316406 545.042969 602.679688 C 540.839844 605.042969 536.574219 607.285156 532.246094 609.402344 C 527.914062 611.523438 523.527344 613.515625 519.082031 615.386719 C 514.640625 617.253906 510.144531 618.992188 505.601562 620.601562 C 501.058594 622.214844 496.472656 623.691406 491.84375 625.039062 C 487.214844 626.390625 482.550781 627.601562 477.855469 628.683594 C 473.15625 629.765625 468.429688 630.710938 463.679688 631.519531 C 458.925781 632.332031 454.15625 633.003906 449.363281 633.542969 C 444.574219 634.078125 439.773438 634.476562 434.957031 634.738281 C 430.144531 635 425.328125 635.125 420.507812 635.109375 Z M 420.949219 125.800781 C 425.769531 125.785156 430.585938 125.910156 435.398438 126.171875 C 440.210938 126.433594 445.015625 126.832031 449.804688 127.371094 C 454.59375 127.90625 459.363281 128.582031 464.117188 129.390625 C 468.867188 130.203125 473.59375 131.148438 478.289062 132.226562 C 482.988281 133.308594 487.652344 134.523438 492.277344 135.871094 C 496.90625 137.21875 501.492188 138.699219 506.035156 140.308594 C 510.578125 141.921875 515.070312 143.660156 519.515625 145.527344 C 523.957031 147.394531 528.34375 149.390625 532.675781 151.507812 C 537.003906 153.628906 541.269531 155.871094 545.46875 158.234375 C 549.671875 160.597656 553.800781 163.078125 557.859375 165.679688 C 561.917969 168.28125 565.898438 170.992188 569.800781 173.820312 C 573.703125 176.648438 577.523438 179.585938 581.257812 182.632812 C 584.992188 185.683594 588.640625 188.832031 592.191406 192.089844 C 595.746094 195.34375 599.207031 198.699219 602.566406 202.152344 C 605.929688 205.609375 609.191406 209.15625 612.351562 212.796875 C 615.507812 216.4375 618.5625 220.164062 621.507812 223.980469 L 753.855469 223.980469 C 752.015625 220.050781 750.105469 216.15625 748.128906 212.292969 C 746.152344 208.433594 744.105469 204.605469 741.992188 200.816406 C 739.878906 197.027344 737.699219 193.277344 735.453125 189.566406 C 733.210938 185.855469 730.898438 182.183594 728.523438 178.554688 C 726.148438 174.921875 723.707031 171.335938 721.203125 167.792969 C 718.703125 164.25 716.136719 160.75 713.511719 157.296875 C 710.882812 153.84375 708.199219 150.441406 705.449219 147.082031 C 702.703125 143.722656 699.898438 140.414062 697.035156 137.15625 C 694.167969 133.898438 691.246094 130.691406 688.269531 127.539062 C 685.292969 124.382812 682.257812 121.28125 679.171875 118.234375 C 676.085938 115.1875 672.941406 112.195312 669.75 109.257812 C 666.554688 106.320312 663.3125 103.441406 660.015625 100.621094 C 656.71875 97.796875 653.375 95.035156 649.984375 92.332031 C 646.589844 89.628906 643.148438 86.988281 639.664062 84.40625 C 636.175781 81.824219 632.644531 79.304688 629.066406 76.851562 C 625.492188 74.394531 621.875 72 618.210938 69.671875 C 614.550781 67.34375 610.851562 65.082031 607.109375 62.886719 C 603.371094 60.6875 599.589844 58.558594 595.773438 56.496094 C 591.957031 54.429688 588.105469 52.4375 584.21875 50.507812 C 580.332031 48.582031 576.414062 46.726562 572.460938 44.9375 C 568.507812 43.148438 564.523438 41.429688 560.511719 39.785156 C 556.496094 38.136719 552.457031 36.5625 548.386719 35.058594 C 544.316406 33.550781 540.222656 32.121094 536.101562 30.761719 C 531.980469 29.402344 527.839844 28.117188 523.671875 26.90625 C 519.507812 25.691406 515.324219 24.554688 511.117188 23.488281 C 506.910156 22.425781 502.6875 21.4375 498.445312 20.523438 C 494.207031 19.605469 489.949219 18.769531 485.679688 18.003906 C 481.410156 17.238281 477.125 16.550781 472.832031 15.9375 C 468.535156 15.328125 464.230469 14.789062 459.917969 14.332031 C 455.601562 13.871094 451.28125 13.488281 446.957031 13.179688 C 442.628906 12.875 438.296875 12.644531 433.960938 12.488281 C 429.625 12.335938 425.289062 12.257812 420.949219 12.257812 C 416.609375 12.257812 412.273438 12.335938 407.9375 12.488281 C 403.601562 12.644531 399.269531 12.875 394.941406 13.179688 C 390.617188 13.488281 386.296875 13.871094 381.980469 14.332031 C 377.667969 14.789062 373.363281 15.328125 369.066406 15.9375 C 364.773438 16.550781 360.488281 17.238281 356.21875 18.003906 C 351.949219 18.769531 347.691406 19.605469 343.453125 20.523438 C 339.210938 21.4375 334.988281 22.425781 330.78125 23.488281 C 326.574219 24.554688 322.390625 25.691406 318.226562 26.90625 C 314.058594 28.117188 309.917969 29.402344 305.796875 30.761719 C 301.675781 32.121094 297.582031 33.550781 293.511719 35.058594 C 289.441406 36.5625 285.402344 38.136719 281.386719 39.785156 C 277.375 41.429688 273.390625 43.148438 269.4375 44.9375 C 265.484375 46.726562 261.566406 48.582031 257.679688 50.507812 C 253.792969 52.4375 249.941406 54.429688 246.125 56.496094 C 242.308594 58.558594 238.527344 60.6875 234.789062 62.886719 C 231.046875 65.082031 227.347656 67.34375 223.6875 69.671875 C 220.023438 72 216.40625 74.394531 212.832031 76.851562 C 209.253906 79.304688 205.722656 81.824219 202.234375 84.40625 C 198.75 86.988281 195.308594 89.628906 191.914062 92.332031 C 188.523438 95.035156 185.179688 97.796875 181.882812 100.621094 C 178.585938 103.441406 175.34375 106.320312 172.148438 109.257812 C 168.957031 112.195312 165.816406 115.1875 162.726562 118.234375 C 159.640625 121.28125 156.605469 124.382812 153.628906 127.539062 C 150.652344 130.691406 147.730469 133.898438 144.867188 137.15625 C 142 140.414062 139.195312 143.722656 136.449219 147.082031 C 133.699219 150.441406 131.015625 153.84375 128.386719 157.296875 C 125.761719 160.75 123.195312 164.25 120.695312 167.792969 C 118.191406 171.335938 115.75 174.921875 113.375 178.554688 C 111 182.183594 108.6875 185.855469 106.445312 189.566406 C 104.199219 193.277344 102.019531 197.027344 99.90625 200.816406 C 97.792969 204.605469 95.746094 208.433594 93.769531 212.292969 C 91.792969 216.15625 89.882812 220.050781 88.042969 223.980469 L 220.585938 223.980469 C 223.535156 220.164062 226.585938 216.4375 229.746094 212.792969 C 232.90625 209.152344 236.167969 205.605469 239.53125 202.152344 C 242.890625 198.699219 246.351562 195.34375 249.90625 192.085938 C 253.460938 188.832031 257.105469 185.679688 260.839844 182.632812 C 264.578125 179.585938 268.398438 176.648438 272.300781 173.820312 C 276.203125 170.992188 280.1875 168.277344 284.246094 165.675781 C 288.304688 163.074219 292.433594 160.59375 296.636719 158.230469 C 300.835938 155.867188 305.101562 153.625 309.433594 151.507812 C 313.761719 149.386719 318.148438 147.394531 322.59375 145.523438 C 327.039062 143.65625 331.53125 141.917969 336.074219 140.308594 C 340.617188 138.695312 345.207031 137.21875 349.832031 135.867188 C 354.460938 134.519531 359.125 133.304688 363.824219 132.226562 C 368.519531 131.144531 373.246094 130.199219 378 129.390625 C 382.75 128.578125 387.523438 127.90625 392.3125 127.367188 C 397.101562 126.832031 401.90625 126.433594 406.71875 126.171875 C 411.53125 125.910156 416.347656 125.785156 421.171875 125.800781 Z M 420.949219 125.800781 " fill-opacity="1" fill-rule="nonzero"/><path fill="#ffffff" d="M 612.402344 518.519531 L 609.652344 522.203125 C 606.921875 525.855469 604.089844 529.425781 601.152344 532.910156 C 598.214844 536.398438 595.175781 539.796875 592.042969 543.109375 C 588.90625 546.421875 585.679688 549.636719 582.359375 552.761719 C 579.035156 555.882812 575.628906 558.910156 572.128906 561.835938 C 568.632812 564.761719 565.054688 567.582031 561.390625 570.300781 C 557.730469 573.019531 553.996094 575.625 550.183594 578.128906 C 546.371094 580.628906 542.488281 583.015625 538.535156 585.292969 C 534.585938 587.566406 530.570312 589.726562 526.496094 591.769531 C 522.417969 593.808594 518.285156 595.734375 514.097656 597.535156 C 509.910156 599.335938 505.671875 601.015625 501.386719 602.574219 C 497.101562 604.128906 492.773438 605.558594 488.402344 606.863281 C 484.035156 608.167969 479.632812 609.347656 475.195312 610.394531 C 470.757812 611.445312 466.292969 612.363281 461.804688 613.15625 C 457.3125 613.945312 452.804688 614.605469 448.273438 615.132812 C 443.746094 615.660156 439.207031 616.058594 434.652344 616.320312 C 430.101562 616.585938 425.546875 616.71875 420.984375 616.71875 C 416.425781 616.71875 411.871094 616.585938 407.320312 616.320312 C 402.765625 616.058594 398.226562 615.660156 393.699219 615.132812 C 389.167969 614.605469 384.660156 613.945312 380.167969 613.15625 C 375.679688 612.363281 371.214844 611.445312 366.777344 610.394531 C 362.339844 609.347656 357.9375 608.167969 353.566406 606.863281 C 349.199219 605.558594 344.871094 604.128906 340.585938 602.574219 C 336.300781 601.015625 332.0625 599.335938 327.875 597.535156 C 323.6875 595.734375 319.554688 593.808594 315.476562 591.769531 C 311.402344 589.726562 307.386719 587.566406 303.4375 585.292969 C 299.484375 583.015625 295.601562 580.628906 291.789062 578.128906 C 287.976562 575.628906 284.242188 573.019531 280.578125 570.300781 C 276.917969 567.582031 273.339844 564.761719 269.84375 561.835938 C 266.34375 558.910156 262.933594 555.882812 259.613281 552.761719 C 256.292969 549.636719 253.0625 546.421875 249.929688 543.109375 C 246.792969 539.796875 243.757812 536.398438 240.820312 532.910156 C 237.882812 529.425781 235.050781 525.855469 232.320312 522.203125 L 229.570312 518.519531 L 79.773438 518.519531 L 88.042969 536.929688 L 220.585938 536.929688 C 223.542969 540.734375 226.605469 544.453125 229.773438 548.085938 C 232.9375 551.71875 236.207031 555.253906 239.574219 558.699219 C 242.945312 562.144531 246.410156 565.492188 249.96875 568.742188 C 253.527344 571.988281 257.175781 575.132812 260.914062 578.175781 C 264.652344 581.214844 268.472656 584.148438 272.378906 586.96875 C 276.285156 589.792969 280.265625 592.503906 284.324219 595.101562 C 288.382812 597.695312 292.515625 600.175781 296.714844 602.535156 C 300.914062 604.898438 305.179688 607.136719 309.507812 609.257812 C 313.835938 611.375 318.21875 613.367188 322.660156 615.238281 C 327.101562 617.105469 331.59375 618.847656 336.132812 620.460938 C 340.671875 622.074219 345.257812 623.558594 349.882812 624.910156 C 354.507812 626.261719 359.164062 627.484375 363.859375 628.570312 C 368.554688 629.65625 373.277344 630.609375 378.023438 631.429688 C 382.773438 632.246094 387.542969 632.929688 392.328125 633.476562 C 397.117188 634.023438 401.914062 634.4375 406.726562 634.710938 C 411.535156 634.984375 416.351562 635.121094 421.171875 635.121094 C 425.988281 635.121094 430.804688 634.984375 435.613281 634.710938 C 440.425781 634.4375 445.222656 634.023438 450.011719 633.476562 C 454.800781 632.929688 459.566406 632.246094 464.316406 631.429688 C 469.0625 630.609375 473.785156 629.65625 478.480469 628.570312 C 483.175781 627.484375 487.832031 626.261719 492.457031 624.910156 C 497.082031 623.558594 501.667969 622.074219 506.207031 620.460938 C 510.746094 618.847656 515.238281 617.105469 519.679688 615.238281 C 524.121094 613.367188 528.503906 611.375 532.832031 609.257812 C 537.160156 607.136719 541.425781 604.898438 545.625 602.535156 C 549.828125 600.175781 553.957031 597.695312 558.015625 595.101562 C 562.074219 592.503906 566.058594 589.792969 569.960938 586.96875 C 573.867188 584.148438 577.6875 581.214844 581.425781 578.175781 C 585.164062 575.132812 588.8125 571.988281 592.371094 568.742188 C 595.933594 565.492188 599.394531 562.144531 602.765625 558.699219 C 606.132812 555.253906 609.402344 551.71875 612.570312 548.085938 C 615.734375 544.453125 618.796875 540.734375 621.753906 536.929688 L 754.296875 536.929688 L 762.566406 518.519531 Z M 229.496094 242.386719 L 232.246094 238.707031 C 234.976562 235.054688 237.808594 231.484375 240.746094 228 C 243.683594 224.511719 246.722656 221.113281 249.855469 217.800781 C 252.992188 214.488281 256.21875 211.273438 259.539062 208.148438 C 262.863281 205.023438 266.269531 202 269.769531 199.074219 C 273.265625 196.148438 276.84375 193.328125 280.507812 190.609375 C 284.167969 187.890625 287.902344 185.28125 291.714844 182.78125 C 295.527344 180.28125 299.410156 177.894531 303.363281 175.617188 C 307.3125 173.34375 311.328125 171.183594 315.402344 169.140625 C 319.480469 167.097656 323.613281 165.175781 327.800781 163.375 C 331.988281 161.574219 336.226562 159.894531 340.511719 158.335938 C 344.796875 156.78125 349.125 155.351562 353.496094 154.046875 C 357.863281 152.738281 362.265625 151.5625 366.703125 150.515625 C 371.140625 149.464844 375.605469 148.542969 380.09375 147.753906 C 384.585938 146.964844 389.09375 146.304688 393.625 145.777344 C 398.152344 145.25 402.691406 144.851562 407.246094 144.589844 C 411.796875 144.324219 416.351562 144.191406 420.914062 144.191406 C 425.472656 144.191406 430.027344 144.324219 434.578125 144.589844 C 439.132812 144.851562 443.671875 145.25 448.199219 145.777344 C 452.730469 146.304688 457.238281 146.964844 461.730469 147.753906 C 466.21875 148.542969 470.683594 149.464844 475.121094 150.515625 C 479.558594 151.5625 483.960938 152.738281 488.332031 154.046875 C 492.699219 155.351562 497.027344 156.78125 501.3125 158.335938 C 505.597656 159.894531 509.835938 161.574219 514.023438 163.375 C 518.210938 165.175781 522.34375 167.097656 526.421875 169.140625 C 530.496094 171.183594 534.511719 173.34375 538.460938 175.617188 C 542.414062 177.894531 546.296875 180.28125 550.109375 182.78125 C 553.921875 185.28125 557.65625 187.890625 561.320312 190.609375 C 564.980469 193.328125 568.558594 196.148438 572.054688 199.074219 C 575.554688 202 578.960938 205.023438 582.285156 208.148438 C 585.605469 211.273438 588.835938 214.488281 591.96875 217.800781 C 595.105469 221.113281 598.140625 224.511719 601.078125 228 C 604.015625 231.484375 606.847656 235.054688 609.578125 238.707031 L 612.328125 242.386719 L 762.050781 242.386719 L 753.78125 223.980469 L 621.238281 223.980469 C 618.28125 220.175781 615.222656 216.457031 612.054688 212.824219 C 608.886719 209.191406 605.621094 205.65625 602.25 202.207031 C 598.882812 198.761719 595.417969 195.417969 591.859375 192.167969 C 588.300781 188.921875 584.652344 185.777344 580.914062 182.734375 C 577.175781 179.695312 573.355469 176.761719 569.449219 173.941406 C 565.546875 171.117188 561.5625 168.40625 557.503906 165.808594 C 553.445312 163.214844 549.316406 160.734375 545.117188 158.375 C 540.917969 156.011719 536.652344 153.773438 532.324219 151.652344 C 527.996094 149.535156 523.613281 147.542969 519.171875 145.671875 C 514.730469 143.804688 510.238281 142.0625 505.699219 140.449219 C 501.160156 138.835938 496.578125 137.351562 491.953125 136 C 487.328125 134.648438 482.667969 133.425781 477.972656 132.339844 C 473.28125 131.253906 468.558594 130.300781 463.808594 129.480469 C 459.0625 128.660156 454.292969 127.980469 449.507812 127.433594 C 444.71875 126.882812 439.921875 126.472656 435.109375 126.199219 C 430.300781 125.925781 425.484375 125.789062 420.667969 125.789062 C 415.847656 125.789062 411.035156 125.925781 406.222656 126.199219 C 401.414062 126.472656 396.613281 126.882812 391.828125 127.433594 C 387.039062 127.980469 382.273438 128.660156 377.523438 129.480469 C 372.773438 130.300781 368.054688 131.253906 363.359375 132.339844 C 358.664062 133.425781 354.007812 134.648438 349.382812 136 C 344.757812 137.351562 340.175781 138.835938 335.632812 140.449219 C 331.09375 142.0625 326.601562 143.804688 322.164062 145.671875 C 317.722656 147.542969 313.335938 149.535156 309.007812 151.652344 C 304.679688 153.773438 300.417969 156.011719 296.21875 158.375 C 292.015625 160.734375 287.886719 163.214844 283.828125 165.808594 C 279.769531 168.40625 275.789062 171.117188 271.882812 173.941406 C 267.976562 176.761719 264.15625 179.695312 260.417969 182.734375 C 256.679688 185.777344 253.03125 188.921875 249.472656 192.167969 C 245.914062 195.417969 242.453125 198.761719 239.082031 202.207031 C 235.714844 205.65625 232.445312 209.191406 229.28125 212.824219 C 226.113281 216.457031 223.050781 220.175781 220.097656 223.980469 L 87.554688 223.980469 L 79.28125 242.386719 Z M 229.496094 242.386719 " fill-opacity="1" fill-rule="nonzero"/><path fill="#000000" d="M 457.890625 444.222656 C 458 442.085938 457.90625 439.957031 457.601562 437.835938 C 457.300781 435.714844 456.796875 433.644531 456.089844 431.621094 C 455.386719 429.601562 454.492188 427.664062 453.414062 425.816406 C 452.332031 423.96875 451.082031 422.242188 449.667969 420.636719 C 445.660156 416.953125 441.304688 413.746094 436.597656 411.019531 C 431.890625 408.292969 426.945312 406.105469 421.757812 404.460938 C 410.160156 400.1875 398.835938 395.28125 387.789062 389.734375 C 378.855469 385.257812 370.699219 379.652344 363.316406 372.917969 C 356.472656 366.582031 351.171875 359.144531 347.410156 350.609375 C 345.40625 345.773438 343.925781 340.785156 342.964844 335.640625 C 342.003906 330.496094 341.589844 325.304688 341.71875 320.074219 C 341.636719 317.773438 341.667969 315.472656 341.820312 313.171875 C 341.972656 310.875 342.242188 308.589844 342.625 306.320312 C 343.011719 304.046875 343.511719 301.800781 344.125 299.582031 C 344.738281 297.363281 345.464844 295.179688 346.300781 293.035156 C 347.136719 290.886719 348.082031 288.789062 349.132812 286.738281 C 350.183594 284.691406 351.335938 282.699219 352.589844 280.765625 C 353.84375 278.835938 355.191406 276.972656 356.636719 275.175781 C 358.082031 273.382812 359.613281 271.664062 361.230469 270.027344 C 364.71875 266.683594 368.46875 263.667969 372.484375 260.988281 C 376.5 258.304688 380.722656 255.992188 385.144531 254.050781 C 389.570312 252.109375 394.128906 250.570312 398.820312 249.433594 C 403.515625 248.292969 408.273438 247.574219 413.09375 247.273438 L 413.09375 208.640625 L 442.007812 208.640625 L 442.007812 247.835938 C 446.84375 248.34375 451.582031 249.304688 456.226562 250.726562 C 460.875 252.148438 465.34375 254 469.632812 256.285156 C 473.921875 258.570312 477.953125 261.242188 481.722656 264.304688 C 485.496094 267.371094 488.941406 270.765625 492.054688 274.492188 C 495.179688 278.5625 497.925781 282.871094 500.292969 287.417969 C 502.660156 291.96875 504.613281 296.6875 506.152344 301.578125 C 507.695312 306.472656 508.796875 311.460938 509.464844 316.542969 C 510.128906 321.628906 510.347656 326.734375 510.121094 331.855469 L 457.914062 331.855469 C 458.128906 328.996094 458.097656 326.144531 457.820312 323.289062 C 457.542969 320.4375 457.023438 317.628906 456.265625 314.867188 C 455.503906 312.105469 454.511719 309.425781 453.289062 306.835938 C 452.0625 304.242188 450.628906 301.777344 448.980469 299.429688 C 447.535156 297.675781 445.90625 296.105469 444.097656 294.726562 C 442.289062 293.34375 440.347656 292.1875 438.273438 291.253906 C 436.195312 290.324219 434.042969 289.640625 431.808594 289.203125 C 429.574219 288.769531 427.320312 288.59375 425.046875 288.679688 C 422.949219 288.550781 420.859375 288.636719 418.777344 288.9375 C 416.695312 289.238281 414.667969 289.75 412.695312 290.472656 C 410.71875 291.195312 408.839844 292.113281 407.054688 293.226562 C 405.269531 294.335938 403.617188 295.621094 402.097656 297.074219 C 400.6875 298.644531 399.445312 300.339844 398.371094 302.15625 C 397.296875 303.976562 396.410156 305.878906 395.714844 307.871094 C 395.015625 309.867188 394.523438 311.90625 394.230469 313.996094 C 393.9375 316.089844 393.851562 318.1875 393.972656 320.292969 C 393.878906 322.304688 393.980469 324.300781 394.28125 326.289062 C 394.582031 328.277344 395.070312 330.21875 395.753906 332.109375 C 396.4375 334 397.296875 335.804688 398.335938 337.527344 C 399.375 339.25 400.570312 340.851562 401.925781 342.335938 C 406.246094 346.105469 410.886719 349.421875 415.855469 352.277344 C 420.824219 355.136719 426.023438 357.484375 431.453125 359.320312 C 443.609375 364.066406 455.441406 369.515625 466.945312 375.667969 C 475.609375 380.324219 483.4375 386.109375 490.4375 393.023438 C 496.789062 399.390625 501.664062 406.738281 505.066406 415.0625 C 508.640625 424.335938 510.324219 433.941406 510.121094 443.878906 C 510.214844 446.167969 510.191406 448.457031 510.050781 450.742188 C 509.910156 453.027344 509.65625 455.300781 509.285156 457.5625 C 508.914062 459.824219 508.425781 462.058594 507.828125 464.269531 C 507.226562 466.480469 506.519531 468.65625 505.699219 470.792969 C 504.875 472.933594 503.949219 475.023438 502.914062 477.066406 C 501.882812 479.113281 500.746094 481.097656 499.507812 483.027344 C 498.273438 484.953125 496.941406 486.816406 495.515625 488.609375 C 494.089844 490.402344 492.578125 492.117188 490.976562 493.753906 C 487.40625 497.101562 483.574219 500.113281 479.480469 502.789062 C 475.382812 505.464844 471.089844 507.765625 466.589844 509.691406 C 462.09375 511.613281 457.464844 513.136719 452.699219 514.253906 C 447.9375 515.367188 443.113281 516.0625 438.230469 516.335938 L 438.230469 552.269531 L 409.511719 552.269531 L 409.511719 516.507812 C 404.125 516.195312 398.8125 515.386719 393.574219 514.082031 C 388.335938 512.777344 383.265625 511.003906 378.359375 508.753906 C 373.453125 506.503906 368.796875 503.824219 364.390625 500.707031 C 359.984375 497.59375 355.90625 494.097656 352.148438 490.21875 C 348.652344 486.144531 345.570312 481.773438 342.902344 477.113281 C 340.234375 472.449219 338.03125 467.578125 336.292969 462.496094 C 334.550781 457.414062 333.308594 452.214844 332.554688 446.894531 C 331.804688 441.578125 331.5625 436.234375 331.824219 430.871094 L 384.035156 430.871094 C 383.835938 433.8125 383.910156 436.75 384.25 439.679688 C 384.59375 442.609375 385.203125 445.484375 386.074219 448.300781 C 386.949219 451.117188 388.070312 453.832031 389.445312 456.445312 C 390.816406 459.054688 392.417969 461.519531 394.242188 463.835938 C 396.121094 465.804688 398.191406 467.546875 400.453125 469.066406 C 402.714844 470.582031 405.113281 471.835938 407.648438 472.824219 C 410.1875 473.816406 412.796875 474.519531 415.488281 474.9375 C 418.179688 475.351562 420.882812 475.472656 423.601562 475.296875 C 425.863281 475.421875 428.117188 475.335938 430.363281 475.03125 C 432.609375 474.730469 434.808594 474.222656 436.957031 473.503906 C 439.109375 472.785156 441.171875 471.871094 443.148438 470.757812 C 445.121094 469.648438 446.976562 468.363281 448.710938 466.902344 C 450.253906 465.460938 451.621094 463.867188 452.820312 462.125 C 454.015625 460.382812 455.011719 458.535156 455.808594 456.574219 C 456.601562 454.617188 457.175781 452.597656 457.53125 450.515625 C 457.886719 448.429688 458.015625 446.332031 457.914062 444.222656 Z M 457.890625 444.222656 " fill-opacity="1" fill-rule="nonzero"/></svg>