<svg xmlns="http://www.w3.org/2000/svg" xmlns:xlink="http://www.w3.org/1999/xlink" width="1080" zoomAndPan="magnify" viewBox="0 0 810 809.999993" height="1080" preserveAspectRatio="xMidYMid meet" version="1.0"><defs><clipPath id="4623986799"><path d="M 25.035156 49 L 784.785156 49 L 784.785156 810 L 25.035156 810 Z M 25.035156 49 " clip-rule="nonzero"/></clipPath><clipPath id="0b69b343be"><path d="M 25.035156 0 L 784.785156 0 L 784.785156 761 L 25.035156 761 Z M 25.035156 0 " clip-rule="nonzero"/></clipPath></defs><g clip-path="url(#4623986799)"><path fill="#000000" d="M 784.960938 429.515625 C 784.960938 435.730469 784.808594 441.945312 784.503906 448.15625 C 784.199219 454.367188 783.742188 460.566406 783.132812 466.757812 C 782.523438 472.945312 781.761719 479.113281 780.847656 485.265625 C 779.9375 491.417969 778.875 497.542969 777.660156 503.640625 C 776.449219 509.738281 775.085938 515.804688 773.574219 521.835938 C 772.0625 527.871094 770.40625 533.859375 768.601562 539.8125 C 766.796875 545.761719 764.847656 551.664062 762.75 557.519531 C 760.65625 563.375 758.417969 569.175781 756.039062 574.917969 C 753.660156 580.664062 751.140625 586.347656 748.480469 591.96875 C 745.824219 597.589844 743.027344 603.144531 740.097656 608.625 C 737.164062 614.109375 734.101562 619.519531 730.902344 624.855469 C 727.707031 630.1875 724.382812 635.4375 720.925781 640.609375 C 717.472656 645.78125 713.890625 650.863281 710.1875 655.855469 C 706.484375 660.851562 702.660156 665.753906 698.714844 670.558594 C 694.769531 675.367188 690.710938 680.074219 686.53125 684.679688 C 682.355469 689.289062 678.070312 693.789062 673.671875 698.1875 C 669.277344 702.585938 664.773438 706.871094 660.167969 711.046875 C 655.558594 715.222656 650.851562 719.285156 646.046875 723.230469 C 641.238281 727.175781 636.335938 731 631.34375 734.703125 C 626.347656 738.40625 621.265625 741.988281 616.09375 745.441406 C 610.925781 748.894531 605.671875 752.222656 600.339844 755.417969 C 595.003906 758.617188 589.597656 761.679688 584.113281 764.609375 C 578.628906 767.542969 573.074219 770.335938 567.453125 772.996094 C 561.832031 775.65625 556.148438 778.175781 550.40625 780.554688 C 544.660156 782.933594 538.859375 785.171875 533.003906 787.265625 C 527.148438 789.359375 521.246094 791.308594 515.296875 793.117188 C 509.347656 794.921875 503.355469 796.578125 497.324219 798.089844 C 491.289062 799.601562 485.226562 800.960938 479.125 802.175781 C 473.027344 803.390625 466.902344 804.453125 460.75 805.363281 C 454.601562 806.277344 448.429688 807.039062 442.242188 807.648438 C 436.054688 808.257812 429.855469 808.714844 423.644531 809.019531 C 417.433594 809.324219 411.21875 809.476562 405 809.476562 C 398.78125 809.476562 392.566406 809.324219 386.355469 809.019531 C 380.144531 808.714844 373.945312 808.257812 367.757812 807.648438 C 361.566406 807.039062 355.398438 806.277344 349.246094 805.363281 C 343.097656 804.453125 336.972656 803.390625 330.871094 802.175781 C 324.773438 800.960938 318.707031 799.601562 312.675781 798.089844 C 306.644531 796.578125 300.652344 794.921875 294.703125 793.117188 C 288.75 791.308594 282.847656 789.359375 276.992188 787.265625 C 271.136719 785.171875 265.339844 782.933594 259.59375 780.554688 C 253.847656 778.175781 248.164062 775.65625 242.542969 772.996094 C 236.921875 770.335938 231.371094 767.542969 225.886719 764.609375 C 220.402344 761.679688 214.992188 758.617188 209.660156 755.417969 C 204.324219 752.222656 199.074219 748.894531 193.902344 745.441406 C 188.734375 741.988281 183.648438 738.40625 178.65625 734.703125 C 173.660156 731 168.761719 727.175781 163.953125 723.230469 C 159.144531 719.285156 154.4375 715.222656 149.832031 711.046875 C 145.222656 706.871094 140.722656 702.585938 136.324219 698.1875 C 131.929688 693.789062 127.640625 689.289062 123.464844 684.679688 C 119.289062 680.074219 115.230469 675.367188 111.285156 670.558594 C 107.339844 665.753906 103.515625 660.851562 99.808594 655.855469 C 96.105469 650.863281 92.527344 645.78125 89.070312 640.609375 C 85.617188 635.4375 82.292969 630.1875 79.09375 624.855469 C 75.898438 619.519531 72.832031 614.109375 69.902344 608.628906 C 66.96875 603.144531 64.175781 597.589844 61.515625 591.96875 C 58.859375 586.347656 56.339844 580.664062 53.960938 574.917969 C 51.578125 569.175781 49.34375 563.375 47.246094 557.519531 C 45.152344 551.664062 43.203125 545.761719 41.398438 539.8125 C 39.59375 533.859375 37.933594 527.871094 36.421875 521.835938 C 34.914062 515.804688 33.550781 509.738281 32.335938 503.640625 C 31.125 497.542969 30.0625 491.417969 29.148438 485.265625 C 28.238281 479.113281 27.476562 472.945312 26.867188 466.757812 C 26.257812 460.566406 25.800781 454.367188 25.492188 448.15625 C 25.1875 441.945312 25.035156 435.730469 25.035156 429.515625 C 25.035156 423.296875 25.1875 417.082031 25.492188 410.871094 C 25.800781 404.660156 26.257812 398.460938 26.867188 392.269531 C 27.476562 386.082031 28.238281 379.914062 29.148438 373.761719 C 30.0625 367.609375 31.125 361.484375 32.335938 355.386719 C 33.550781 349.289062 34.914062 343.222656 36.421875 337.191406 C 37.933594 331.160156 39.59375 325.167969 41.398438 319.214844 C 43.203125 313.265625 45.152344 307.363281 47.246094 301.507812 C 49.34375 295.652344 51.578125 289.851562 53.960938 284.109375 C 56.339844 278.363281 58.859375 272.679688 61.515625 267.058594 C 64.175781 261.4375 66.96875 255.882812 69.902344 250.402344 C 72.832031 244.917969 75.898438 239.507812 79.09375 234.171875 C 82.292969 228.839844 85.617188 223.589844 89.070312 218.417969 C 92.527344 213.246094 96.105469 208.164062 99.808594 203.171875 C 103.515625 198.175781 107.339844 193.273438 111.285156 188.46875 C 115.230469 183.660156 119.289062 178.953125 123.464844 174.347656 C 127.640625 169.738281 131.929688 165.238281 136.324219 160.839844 C 140.722656 156.441406 145.222656 152.15625 149.832031 147.980469 C 154.4375 143.804688 159.144531 139.742188 163.953125 135.796875 C 168.761719 131.855469 173.660156 128.027344 178.65625 124.324219 C 183.648438 120.621094 188.734375 117.039062 193.902344 113.585938 C 199.074219 110.132812 204.324219 106.804688 209.660156 103.609375 C 214.992188 100.410156 220.402344 97.347656 225.886719 94.417969 C 231.371094 91.484375 236.921875 88.691406 242.542969 86.03125 C 248.164062 83.371094 253.847656 80.851562 259.59375 78.472656 C 265.339844 76.09375 271.140625 73.855469 276.992188 71.761719 C 282.847656 69.667969 288.75 67.71875 294.703125 65.910156 C 300.652344 64.105469 306.644531 62.449219 312.675781 60.9375 C 318.707031 59.425781 324.773438 58.066406 330.871094 56.851562 C 336.972656 55.636719 343.097656 54.574219 349.246094 53.664062 C 355.398438 52.75 361.566406 51.988281 367.757812 51.378906 C 373.945312 50.769531 380.144531 50.3125 386.355469 50.007812 C 392.566406 49.703125 398.78125 49.550781 405 49.550781 C 411.21875 49.550781 417.433594 49.703125 423.644531 50.007812 C 429.855469 50.3125 436.054688 50.769531 442.242188 51.378906 C 448.429688 51.988281 454.601562 52.75 460.75 53.664062 C 466.902344 54.574219 473.027344 55.636719 479.125 56.851562 C 485.226562 58.066406 491.289062 59.425781 497.324219 60.9375 C 503.355469 62.449219 509.347656 64.105469 515.296875 65.910156 C 521.246094 67.71875 527.148438 69.667969 533.003906 71.761719 C 538.859375 73.855469 544.660156 76.09375 550.40625 78.472656 C 556.148438 80.851562 561.832031 83.371094 567.453125 86.03125 C 573.074219 88.691406 578.628906 91.484375 584.113281 94.417969 C 589.597656 97.347656 595.003906 100.410156 600.339844 103.609375 C 605.671875 106.804688 610.925781 110.132812 616.09375 113.585938 C 621.265625 117.039062 626.347656 120.621094 631.34375 124.324219 C 636.335938 128.027344 641.238281 131.855469 646.046875 135.796875 C 650.851562 139.742188 655.558594 143.804688 660.167969 147.980469 C 664.773438 152.15625 669.277344 156.441406 673.671875 160.839844 C 678.070312 165.238281 682.355469 169.738281 686.53125 174.347656 C 690.710938 178.953125 694.769531 183.660156 698.714844 188.46875 C 702.660156 193.273438 706.484375 198.175781 710.1875 203.171875 C 713.890625 208.164062 717.472656 213.246094 720.925781 218.417969 C 724.382812 223.589844 727.707031 228.839844 730.902344 234.171875 C 734.101562 239.507812 737.164062 244.917969 740.097656 250.402344 C 743.027344 255.882812 745.824219 261.4375 748.480469 267.058594 C 751.140625 272.679688 753.660156 278.363281 756.039062 284.109375 C 758.417969 289.851562 760.65625 295.652344 762.75 301.507812 C 764.847656 307.363281 766.796875 313.265625 768.601562 319.214844 C 770.40625 325.167969 772.0625 331.160156 773.574219 337.191406 C 775.085938 343.222656 776.449219 349.289062 777.660156 355.386719 C 778.875 361.484375 779.9375 367.609375 780.847656 373.761719 C 781.761719 379.914062 782.523438 386.082031 783.132812 392.269531 C 783.742188 398.460938 784.199219 404.660156 784.503906 410.871094 C 784.808594 417.082031 784.960938 423.296875 784.960938 429.515625 Z M 784.960938 429.515625 " fill-opacity="1" fill-rule="nonzero"/></g><g clip-path="url(#0b69b343be)"><path fill="#000000" d="M 784.960938 380.484375 C 784.960938 386.703125 784.808594 392.917969 784.503906 399.128906 C 784.199219 405.339844 783.742188 411.539062 783.132812 417.730469 C 782.523438 423.917969 781.761719 430.085938 780.847656 436.238281 C 779.9375 442.390625 778.875 448.515625 777.660156 454.613281 C 776.449219 460.710938 775.085938 466.777344 773.574219 472.808594 C 772.0625 478.839844 770.40625 484.832031 768.601562 490.785156 C 766.796875 496.734375 764.847656 502.636719 762.75 508.492188 C 760.65625 514.347656 758.417969 520.148438 756.039062 525.890625 C 753.660156 531.636719 751.140625 537.320312 748.480469 542.941406 C 745.824219 548.5625 743.027344 554.117188 740.097656 559.597656 C 737.164062 565.082031 734.101562 570.492188 730.902344 575.824219 C 727.707031 581.160156 724.382812 586.410156 720.925781 591.582031 C 717.472656 596.753906 713.890625 601.835938 710.1875 606.828125 C 706.484375 611.824219 702.660156 616.726562 698.714844 621.53125 C 694.769531 626.339844 690.710938 631.046875 686.53125 635.652344 C 682.355469 640.261719 678.070312 644.761719 673.671875 649.160156 C 669.277344 653.558594 664.773438 657.84375 660.167969 662.019531 C 655.558594 666.195312 650.851562 670.257812 646.046875 674.203125 C 641.238281 678.144531 636.335938 681.972656 631.34375 685.675781 C 626.347656 689.378906 621.265625 692.960938 616.09375 696.414062 C 610.925781 699.867188 605.671875 703.195312 600.339844 706.390625 C 595.003906 709.589844 589.597656 712.652344 584.113281 715.582031 C 578.628906 718.515625 573.074219 721.308594 567.453125 723.96875 C 561.832031 726.628906 556.148438 729.144531 550.40625 731.527344 C 544.660156 733.90625 538.859375 736.144531 533.003906 738.238281 C 527.148438 740.332031 521.246094 742.28125 515.296875 744.089844 C 509.347656 745.894531 503.355469 747.550781 497.324219 749.0625 C 491.289062 750.574219 485.226562 751.933594 479.125 753.148438 C 473.027344 754.359375 466.902344 755.425781 460.75 756.335938 C 454.601562 757.25 448.429688 758.011719 442.242188 758.621094 C 436.054688 759.230469 429.855469 759.6875 423.644531 759.992188 C 417.433594 760.296875 411.21875 760.449219 405 760.449219 C 398.78125 760.449219 392.566406 760.296875 386.355469 759.992188 C 380.144531 759.6875 373.945312 759.230469 367.757812 758.621094 C 361.566406 758.011719 355.398438 757.25 349.246094 756.335938 C 343.097656 755.425781 336.972656 754.359375 330.871094 753.148438 C 324.773438 751.933594 318.707031 750.574219 312.675781 749.0625 C 306.644531 747.550781 300.652344 745.894531 294.703125 744.089844 C 288.75 742.28125 282.847656 740.332031 276.992188 738.238281 C 271.136719 736.144531 265.339844 733.90625 259.59375 731.527344 C 253.847656 729.144531 248.164062 726.628906 242.542969 723.96875 C 236.921875 721.308594 231.371094 718.515625 225.886719 715.582031 C 220.402344 712.652344 214.992188 709.589844 209.660156 706.390625 C 204.324219 703.195312 199.074219 699.867188 193.902344 696.414062 C 188.734375 692.960938 183.648438 689.378906 178.65625 685.675781 C 173.660156 681.972656 168.761719 678.144531 163.953125 674.203125 C 159.144531 670.257812 154.4375 666.195312 149.832031 662.019531 C 145.222656 657.84375 140.722656 653.558594 136.324219 649.160156 C 131.929688 644.761719 127.640625 640.261719 123.464844 635.652344 C 119.289062 631.046875 115.230469 626.339844 111.285156 621.53125 C 107.339844 616.726562 103.515625 611.824219 99.808594 606.828125 C 96.105469 601.835938 92.527344 596.753906 89.070312 591.582031 C 85.617188 586.410156 82.292969 581.160156 79.09375 575.824219 C 75.898438 570.492188 72.832031 565.082031 69.902344 559.597656 C 66.96875 554.117188 64.175781 548.5625 61.515625 542.941406 C 58.859375 537.320312 56.339844 531.636719 53.960938 525.890625 C 51.578125 520.148438 49.34375 514.347656 47.246094 508.492188 C 45.152344 502.636719 43.203125 496.734375 41.398438 490.785156 C 39.59375 484.832031 37.933594 478.839844 36.421875 472.808594 C 34.914062 466.777344 33.550781 460.710938 32.335938 454.613281 C 31.125 448.515625 30.0625 442.390625 29.148438 436.238281 C 28.238281 430.085938 27.476562 423.917969 26.867188 417.730469 C 26.257812 411.539062 25.800781 405.339844 25.492188 399.128906 C 25.1875 392.917969 25.035156 386.703125 25.035156 380.484375 C 25.035156 374.269531 25.1875 368.054688 25.492188 361.84375 C 25.800781 355.632812 26.257812 349.433594 26.867188 343.242188 C 27.476562 337.054688 28.238281 330.886719 29.148438 324.734375 C 30.0625 318.582031 31.125 312.457031 32.335938 306.359375 C 33.550781 300.261719 34.914062 294.195312 36.421875 288.164062 C 37.933594 282.128906 39.59375 276.140625 41.398438 270.1875 C 43.203125 264.238281 45.152344 258.335938 47.246094 252.480469 C 49.34375 246.625 51.578125 240.824219 53.960938 235.082031 C 56.339844 229.335938 58.859375 223.652344 61.515625 218.03125 C 64.175781 212.410156 66.96875 206.855469 69.902344 201.371094 C 72.832031 195.890625 75.898438 190.480469 79.09375 185.144531 C 82.292969 179.8125 85.617188 174.5625 89.070312 169.390625 C 92.527344 164.21875 96.105469 159.136719 99.808594 154.144531 C 103.515625 149.148438 107.339844 144.246094 111.285156 139.441406 C 115.230469 134.632812 119.289062 129.925781 123.464844 125.320312 C 127.640625 120.710938 131.929688 116.210938 136.324219 111.8125 C 140.722656 107.414062 145.222656 103.128906 149.832031 98.953125 C 154.4375 94.777344 159.144531 90.714844 163.953125 86.769531 C 168.761719 82.824219 173.660156 79 178.65625 75.296875 C 183.648438 71.59375 188.734375 68.011719 193.902344 64.558594 C 199.074219 61.105469 204.324219 57.777344 209.660156 54.582031 C 214.992188 51.382812 220.402344 48.320312 225.886719 45.390625 C 231.371094 42.457031 236.921875 39.664062 242.542969 37.003906 C 248.164062 34.34375 253.847656 31.824219 259.59375 29.445312 C 265.339844 27.066406 271.140625 24.828125 276.992188 22.734375 C 282.847656 20.640625 288.75 18.691406 294.703125 16.882812 C 300.652344 15.078125 306.644531 13.421875 312.675781 11.910156 C 318.707031 10.398438 324.773438 9.039062 330.871094 7.824219 C 336.972656 6.609375 343.097656 5.546875 349.246094 4.636719 C 355.398438 3.722656 361.566406 2.960938 367.757812 2.351562 C 373.945312 1.742188 380.144531 1.285156 386.355469 0.980469 C 392.566406 0.675781 398.78125 0.523438 405 0.523438 C 411.21875 0.523438 417.433594 0.675781 423.644531 0.980469 C 429.855469 1.285156 436.054688 1.742188 442.242188 2.351562 C 448.429688 2.960938 454.601562 3.722656 460.75 4.636719 C 466.902344 5.546875 473.027344 6.609375 479.125 7.824219 C 485.226562 9.039062 491.289062 10.398438 497.324219 11.910156 C 503.355469 13.421875 509.347656 15.078125 515.296875 16.882812 C 521.246094 18.691406 527.148438 20.640625 533.003906 22.734375 C 538.859375 24.828125 544.660156 27.066406 550.40625 29.445312 C 556.148438 31.824219 561.832031 34.34375 567.453125 37.003906 C 573.074219 39.664062 578.628906 42.457031 584.113281 45.390625 C 589.597656 48.320312 595.003906 51.382812 600.339844 54.582031 C 605.671875 57.777344 610.925781 61.105469 616.09375 64.558594 C 621.265625 68.011719 626.347656 71.59375 631.34375 75.296875 C 636.335938 79 641.238281 82.824219 646.046875 86.769531 C 650.851562 90.714844 655.558594 94.777344 660.167969 98.953125 C 664.773438 103.128906 669.277344 107.414062 673.671875 111.8125 C 678.070312 116.210938 682.355469 120.710938 686.53125 125.320312 C 690.710938 129.925781 694.769531 134.632812 698.714844 139.441406 C 702.660156 144.246094 706.484375 149.148438 710.1875 154.144531 C 713.890625 159.136719 717.472656 164.21875 720.925781 169.390625 C 724.382812 174.5625 727.707031 179.8125 730.902344 185.144531 C 734.101562 190.480469 737.164062 195.890625 740.097656 201.371094 C 743.027344 206.855469 745.824219 212.410156 748.480469 218.03125 C 751.140625 223.652344 753.660156 229.335938 756.039062 235.082031 C 758.417969 240.824219 760.65625 246.625 762.75 252.480469 C 764.847656 258.335938 766.796875 264.238281 768.601562 270.1875 C 770.40625 276.140625 772.0625 282.128906 773.574219 288.164062 C 775.085938 294.195312 776.449219 300.261719 777.660156 306.359375 C 778.875 312.457031 779.9375 318.582031 780.847656 324.734375 C 781.761719 330.886719 782.523438 337.054688 783.132812 343.242188 C 783.742188 349.433594 784.199219 355.632812 784.503906 361.84375 C 784.808594 368.054688 784.960938 374.269531 784.960938 380.484375 Z M 784.960938 380.484375 " fill-opacity="1" fill-rule="nonzero"/></g><path fill="#ff3131" d="M 593.4375 238.945312 C 590.710938 235.296875 587.878906 231.730469 584.945312 228.25 C 582.011719 224.765625 578.980469 221.371094 575.847656 218.0625 C 572.71875 214.757812 569.496094 211.542969 566.175781 208.425781 C 562.859375 205.304688 559.453125 202.285156 555.960938 199.363281 C 552.46875 196.441406 548.894531 193.621094 545.238281 190.910156 C 541.582031 188.195312 537.851562 185.589844 534.042969 183.089844 C 530.234375 180.59375 526.359375 178.207031 522.410156 175.9375 C 518.464844 173.664062 514.457031 171.507812 510.386719 169.46875 C 506.3125 167.429688 502.1875 165.507812 498.003906 163.707031 C 493.820312 161.90625 489.589844 160.230469 485.308594 158.675781 C 481.027344 157.121094 476.707031 155.695312 472.34375 154.390625 C 467.980469 153.085938 463.582031 151.910156 459.152344 150.863281 C 454.71875 149.816406 450.261719 148.898438 445.777344 148.109375 C 441.292969 147.320312 436.789062 146.660156 432.265625 146.132812 C 427.742188 145.605469 423.207031 145.210938 418.660156 144.945312 C 414.113281 144.679688 409.566406 144.550781 405.011719 144.550781 C 400.457031 144.550781 395.90625 144.679688 391.363281 144.945312 C 386.816406 145.210938 382.28125 145.605469 377.757812 146.132812 C 373.234375 146.660156 368.730469 147.320312 364.246094 148.109375 C 359.761719 148.898438 355.304688 149.816406 350.871094 150.863281 C 346.441406 151.910156 342.042969 153.085938 337.679688 154.390625 C 333.316406 155.695312 328.996094 157.121094 324.714844 158.675781 C 320.433594 160.230469 316.203125 161.90625 312.019531 163.707031 C 307.835938 165.507812 303.710938 167.429688 299.636719 169.46875 C 295.566406 171.507812 291.558594 173.664062 287.613281 175.9375 C 283.664062 178.207031 279.789062 180.59375 275.980469 183.089844 C 272.171875 185.589844 268.441406 188.195312 264.785156 190.910156 C 261.128906 193.621094 257.554688 196.441406 254.0625 199.363281 C 250.566406 202.285156 247.164062 205.304688 243.84375 208.425781 C 240.527344 211.542969 237.304688 214.757812 234.171875 218.0625 C 231.042969 221.371094 228.011719 224.765625 225.078125 228.25 C 222.144531 231.730469 219.3125 235.296875 216.585938 238.945312 L 213.839844 242.621094 L 64.257812 242.621094 C 62.039062 248.078125 59.949219 253.585938 57.996094 259.144531 C 56.042969 264.703125 54.222656 270.304688 52.539062 275.953125 C 50.855469 281.597656 49.308594 287.28125 47.898438 293.003906 C 46.488281 298.722656 45.21875 304.476562 44.085938 310.257812 C 42.957031 316.042969 41.964844 321.847656 41.113281 327.679688 C 40.261719 333.507812 39.554688 339.355469 38.984375 345.21875 C 38.417969 351.085938 37.992188 356.960938 37.707031 362.84375 C 37.421875 368.730469 37.28125 374.617188 37.28125 380.511719 C 37.28125 386.402344 37.421875 392.292969 37.707031 398.175781 C 37.992188 404.0625 38.417969 409.9375 38.984375 415.800781 C 39.554688 421.664062 40.261719 427.511719 41.113281 433.34375 C 41.964844 439.175781 42.957031 444.980469 44.085938 450.761719 C 45.21875 456.546875 46.488281 462.296875 47.898438 468.019531 C 49.308594 473.738281 50.855469 479.421875 52.539062 485.070312 C 54.222656 490.714844 56.042969 496.316406 57.996094 501.875 C 59.949219 507.433594 62.039062 512.941406 64.257812 518.402344 L 213.792969 518.402344 L 216.539062 522.078125 C 219.265625 525.726562 222.09375 529.289062 225.027344 532.773438 C 227.960938 536.253906 230.992188 539.652344 234.125 542.957031 C 237.253906 546.265625 240.480469 549.476562 243.796875 552.597656 C 247.113281 555.714844 250.519531 558.738281 254.011719 561.660156 C 257.503906 564.582031 261.078125 567.398438 264.734375 570.113281 C 268.390625 572.828125 272.125 575.433594 275.933594 577.929688 C 279.738281 580.429688 283.617188 582.8125 287.5625 585.085938 C 291.507812 587.359375 295.519531 589.515625 299.589844 591.554688 C 303.660156 593.59375 307.789062 595.511719 311.96875 597.3125 C 316.152344 599.113281 320.386719 600.789062 324.664062 602.34375 C 328.945312 603.898438 333.265625 605.328125 337.628906 606.632812 C 341.992188 607.933594 346.390625 609.109375 350.824219 610.15625 C 355.253906 611.207031 359.710938 612.125 364.195312 612.914062 C 368.683594 613.703125 373.1875 614.359375 377.710938 614.886719 C 382.230469 615.414062 386.765625 615.8125 391.3125 616.074219 C 395.859375 616.339844 400.410156 616.472656 404.960938 616.472656 C 409.515625 616.472656 414.066406 616.339844 418.613281 616.074219 C 423.15625 615.8125 427.691406 615.414062 432.214844 614.886719 C 436.738281 614.359375 441.242188 613.703125 445.726562 612.914062 C 450.210938 612.125 454.671875 611.207031 459.101562 610.15625 C 463.535156 609.109375 467.929688 607.933594 472.292969 606.632812 C 476.65625 605.328125 480.980469 603.898438 485.257812 602.34375 C 489.539062 600.789062 493.773438 599.113281 497.953125 597.3125 C 502.136719 595.511719 506.265625 593.59375 510.335938 591.554688 C 514.40625 589.515625 518.417969 587.359375 522.363281 585.085938 C 526.308594 582.8125 530.183594 580.429688 533.992188 577.929688 C 537.800781 575.433594 541.53125 572.828125 545.1875 570.113281 C 548.847656 567.398438 552.421875 564.582031 555.914062 561.660156 C 559.40625 558.738281 562.8125 555.714844 566.128906 552.597656 C 569.445312 549.476562 572.667969 546.265625 575.800781 542.957031 C 578.929688 539.652344 581.964844 536.253906 584.898438 532.773438 C 587.832031 529.289062 590.660156 525.726562 593.386719 522.078125 L 596.132812 518.402344 L 745.667969 518.402344 C 747.886719 512.941406 749.976562 507.433594 751.929688 501.875 C 753.882812 496.316406 755.703125 490.714844 757.386719 485.070312 C 759.070312 479.421875 760.617188 473.738281 762.027344 468.019531 C 763.4375 462.296875 764.707031 456.546875 765.835938 450.761719 C 766.96875 444.980469 767.960938 439.175781 768.8125 433.34375 C 769.660156 427.511719 770.371094 421.664062 770.9375 415.800781 C 771.507812 409.9375 771.933594 404.0625 772.21875 398.175781 C 772.503906 392.292969 772.644531 386.402344 772.644531 380.511719 C 772.644531 374.617188 772.503906 368.730469 772.21875 362.84375 C 771.933594 356.960938 771.507812 351.085938 770.9375 345.21875 C 770.371094 339.355469 769.660156 333.507812 768.8125 327.675781 C 767.960938 321.847656 766.96875 316.042969 765.835938 310.257812 C 764.707031 304.476562 763.4375 298.722656 762.027344 293.003906 C 760.617188 287.28125 759.070312 281.597656 757.386719 275.953125 C 755.703125 270.304688 753.882812 264.703125 751.929688 259.144531 C 749.976562 253.585938 747.886719 248.078125 745.667969 242.621094 L 596.132812 242.621094 Z M 593.4375 238.945312 " fill-opacity="1" fill-rule="nonzero"/><path fill="#7d7d7d" d="M 405 634.816406 C 400.183594 634.832031 395.375 634.707031 390.566406 634.445312 C 385.757812 634.183594 380.960938 633.785156 376.179688 633.25 C 371.394531 632.710938 366.628906 632.039062 361.882812 631.230469 C 357.136719 630.421875 352.417969 629.476562 347.726562 628.398438 C 343.035156 627.320312 338.375 626.105469 333.753906 624.757812 C 329.132812 623.414062 324.550781 621.9375 320.011719 620.328125 C 315.476562 618.71875 310.988281 616.980469 306.550781 615.117188 C 302.109375 613.25 297.730469 611.257812 293.40625 609.144531 C 289.082031 607.027344 284.820312 604.789062 280.625 602.425781 C 276.429688 600.066406 272.304688 597.585938 268.25 594.988281 C 264.195312 592.394531 260.21875 589.683594 256.320312 586.859375 C 252.421875 584.03125 248.605469 581.097656 244.875 578.054688 C 241.144531 575.011719 237.503906 571.863281 233.953125 568.613281 C 230.402344 565.363281 226.949219 562.011719 223.589844 558.5625 C 220.230469 555.109375 216.976562 551.566406 213.820312 547.933594 C 210.664062 544.296875 207.617188 540.570312 204.671875 536.761719 L 72.300781 536.761719 C 74.136719 540.683594 76.042969 544.574219 78.015625 548.433594 C 79.992188 552.289062 82.035156 556.109375 84.144531 559.894531 C 86.253906 563.675781 88.433594 567.421875 90.675781 571.128906 C 92.917969 574.835938 95.226562 578.503906 97.597656 582.128906 C 99.972656 585.753906 102.40625 589.335938 104.90625 592.875 C 107.40625 596.414062 109.96875 599.910156 112.589844 603.359375 C 115.214844 606.804688 117.898438 610.207031 120.640625 613.5625 C 123.386719 616.914062 126.1875 620.21875 129.046875 623.472656 C 131.910156 626.726562 134.824219 629.929688 137.800781 633.082031 C 140.773438 636.230469 143.800781 639.328125 146.886719 642.371094 C 149.96875 645.417969 153.105469 648.40625 156.296875 651.335938 C 159.484375 654.269531 162.726562 657.144531 166.015625 659.964844 C 169.308594 662.78125 172.648438 665.539062 176.039062 668.238281 C 179.425781 670.9375 182.863281 673.578125 186.34375 676.15625 C 189.828125 678.734375 193.355469 681.25 196.925781 683.703125 C 200.496094 686.15625 204.109375 688.546875 207.765625 690.871094 C 211.421875 693.195312 215.121094 695.457031 218.855469 697.648438 C 222.59375 699.84375 226.367188 701.972656 230.175781 704.03125 C 233.988281 706.09375 237.835938 708.085938 241.71875 710.011719 C 245.597656 711.933594 249.515625 713.789062 253.460938 715.574219 C 257.410156 717.363281 261.386719 719.078125 265.394531 720.722656 C 269.40625 722.367188 273.441406 723.941406 277.503906 725.441406 C 281.570312 726.945312 285.660156 728.375 289.773438 729.730469 C 293.886719 731.089844 298.023438 732.375 302.1875 733.585938 C 306.347656 734.796875 310.527344 735.933594 314.726562 736.996094 C 318.925781 738.058594 323.144531 739.046875 327.378906 739.960938 C 331.617188 740.871094 335.867188 741.710938 340.132812 742.472656 C 344.398438 743.238281 348.675781 743.925781 352.964844 744.535156 C 357.253906 745.148438 361.550781 745.683594 365.859375 746.140625 C 370.167969 746.601562 374.484375 746.984375 378.804688 747.289062 C 383.128906 747.597656 387.453125 747.828125 391.785156 747.980469 C 396.113281 748.132812 400.445312 748.210938 404.777344 748.210938 C 409.113281 748.210938 413.441406 748.132812 417.773438 747.980469 C 422.101562 747.828125 426.429688 747.597656 430.75 747.289062 C 435.074219 746.984375 439.386719 746.601562 443.695312 746.140625 C 448.003906 745.683594 452.304688 745.148438 456.59375 744.535156 C 460.882812 743.925781 465.160156 743.238281 469.425781 742.472656 C 473.691406 741.710938 477.941406 740.871094 482.175781 739.960938 C 486.414062 739.046875 490.628906 738.058594 494.832031 736.996094 C 499.03125 735.933594 503.210938 734.796875 507.371094 733.585938 C 511.53125 732.375 515.667969 731.089844 519.785156 729.730469 C 523.898438 728.375 527.988281 726.945312 532.050781 725.441406 C 536.117188 723.941406 540.152344 722.367188 544.160156 720.722656 C 548.167969 719.078125 552.148438 717.363281 556.09375 715.574219 C 560.042969 713.789062 563.957031 711.933594 567.839844 710.011719 C 571.722656 708.085938 575.570312 706.09375 579.378906 704.03125 C 583.191406 701.972656 586.964844 699.84375 590.703125 697.648438 C 594.4375 695.457031 598.132812 693.195312 601.789062 690.871094 C 605.445312 688.546875 609.058594 686.15625 612.632812 683.703125 C 616.203125 681.25 619.730469 678.734375 623.210938 676.15625 C 626.695312 673.578125 630.128906 670.9375 633.519531 668.238281 C 636.910156 665.539062 640.25 662.78125 643.539062 659.964844 C 646.832031 657.144531 650.070312 654.269531 653.261719 651.335938 C 656.449219 648.40625 659.585938 645.417969 662.671875 642.371094 C 665.753906 639.328125 668.785156 636.230469 671.757812 633.082031 C 674.730469 629.929688 677.648438 626.726562 680.507812 623.472656 C 683.371094 620.21875 686.171875 616.914062 688.917969 613.5625 C 691.660156 610.207031 694.34375 606.804688 696.964844 603.359375 C 699.589844 599.910156 702.152344 596.414062 704.652344 592.875 C 707.148438 589.335938 709.585938 585.753906 711.960938 582.128906 C 714.332031 578.503906 716.640625 574.835938 718.882812 571.128906 C 721.125 567.421875 723.300781 563.675781 725.410156 559.894531 C 727.523438 556.109375 729.566406 552.289062 731.539062 548.433594 C 733.515625 544.574219 735.421875 540.683594 737.257812 536.761719 L 604.882812 536.761719 C 601.941406 540.570312 598.894531 544.296875 595.738281 547.933594 C 592.582031 551.566406 589.324219 555.109375 585.964844 558.5625 C 582.609375 562.011719 579.152344 565.363281 575.601562 568.613281 C 572.054688 571.863281 568.414062 575.011719 564.679688 578.054688 C 560.949219 581.097656 557.136719 584.03125 553.238281 586.859375 C 549.339844 589.683594 545.363281 592.394531 541.308594 594.988281 C 537.253906 597.585938 533.128906 600.066406 528.933594 602.425781 C 524.738281 604.789062 520.476562 607.027344 516.152344 609.144531 C 511.828125 611.257812 507.445312 613.25 503.007812 615.117188 C 498.570312 616.980469 494.082031 618.71875 489.542969 620.328125 C 485.007812 621.9375 480.425781 623.414062 475.804688 624.757812 C 471.179688 626.105469 466.523438 627.320312 461.832031 628.398438 C 457.140625 629.476562 452.421875 630.421875 447.675781 631.230469 C 442.929688 632.039062 438.164062 632.710938 433.378906 633.25 C 428.59375 633.785156 423.796875 634.183594 418.992188 634.445312 C 414.183594 634.707031 409.371094 634.832031 404.558594 634.816406 Z M 405 126.15625 C 409.8125 126.140625 414.625 126.265625 419.429688 126.527344 C 424.238281 126.789062 429.03125 127.1875 433.816406 127.726562 C 438.601562 128.261719 443.367188 128.933594 448.113281 129.742188 C 452.855469 130.550781 457.574219 131.496094 462.265625 132.578125 C 466.957031 133.65625 471.613281 134.867188 476.238281 136.214844 C 480.859375 137.5625 485.4375 139.039062 489.976562 140.648438 C 494.511719 142.257812 499 143.992188 503.4375 145.859375 C 507.875 147.726562 512.257812 149.714844 516.582031 151.832031 C 520.90625 153.949219 525.164062 156.1875 529.359375 158.546875 C 533.554688 160.910156 537.679688 163.386719 541.734375 165.984375 C 545.789062 168.582031 549.761719 171.292969 553.660156 174.117188 C 557.558594 176.941406 561.375 179.875 565.105469 182.917969 C 568.835938 185.960938 572.472656 189.109375 576.023438 192.359375 C 579.574219 195.613281 583.027344 198.964844 586.386719 202.414062 C 589.746094 205.863281 593 209.40625 596.15625 213.042969 C 599.3125 216.675781 602.359375 220.402344 605.300781 224.210938 L 737.480469 224.210938 C 735.640625 220.289062 733.734375 216.398438 731.761719 212.539062 C 729.785156 208.683594 727.742188 204.863281 725.632812 201.078125 C 723.523438 197.292969 721.347656 193.550781 719.101562 189.84375 C 716.859375 186.136719 714.550781 182.46875 712.179688 178.84375 C 709.808594 175.21875 707.371094 171.636719 704.871094 168.097656 C 702.371094 164.558594 699.808594 161.0625 697.1875 157.613281 C 694.5625 154.167969 691.878906 150.765625 689.136719 147.410156 C 686.394531 144.058594 683.589844 140.753906 680.730469 137.5 C 677.871094 134.246094 674.953125 131.042969 671.976562 127.890625 C 669.003906 124.742188 665.976562 121.644531 662.890625 118.601562 C 659.808594 115.554688 656.671875 112.566406 653.480469 109.636719 C 650.292969 106.703125 647.050781 103.828125 643.761719 101.007812 C 640.46875 98.191406 637.128906 95.433594 633.738281 92.734375 C 630.351562 90.035156 626.914062 87.394531 623.433594 84.816406 C 619.949219 82.238281 616.421875 79.722656 612.851562 77.269531 C 609.28125 74.816406 605.667969 72.425781 602.011719 70.101562 C 598.355469 67.777344 594.660156 65.515625 590.921875 63.324219 C 587.1875 61.128906 583.414062 59 579.601562 56.941406 C 575.789062 54.878906 571.941406 52.886719 568.0625 50.960938 C 564.179688 49.039062 560.265625 47.183594 556.316406 45.398438 C 552.367188 43.609375 548.390625 41.894531 544.382812 40.25 C 540.375 38.605469 536.335938 37.03125 532.273438 35.53125 C 528.210938 34.027344 524.121094 32.597656 520.003906 31.242188 C 515.890625 29.882812 511.753906 28.597656 507.59375 27.386719 C 503.433594 26.175781 499.25 25.039062 495.050781 23.976562 C 490.851562 22.914062 486.632812 21.925781 482.398438 21.011719 C 478.160156 20.101562 473.910156 19.261719 469.644531 18.5 C 465.382812 17.734375 461.105469 17.046875 456.816406 16.4375 C 452.523438 15.824219 448.226562 15.289062 443.917969 14.832031 C 439.609375 14.371094 435.292969 13.988281 430.972656 13.679688 C 426.648438 13.375 422.324219 13.144531 417.992188 12.992188 C 413.664062 12.839844 409.332031 12.761719 405 12.761719 C 400.667969 12.761719 396.335938 12.839844 392.003906 12.992188 C 387.675781 13.144531 383.347656 13.375 379.027344 13.679688 C 374.703125 13.988281 370.390625 14.371094 366.082031 14.832031 C 361.773438 15.289062 357.472656 15.824219 353.183594 16.4375 C 348.894531 17.046875 344.617188 17.734375 340.351562 18.5 C 336.085938 19.261719 331.835938 20.101562 327.601562 21.011719 C 323.367188 21.925781 319.148438 22.914062 314.949219 23.976562 C 310.746094 25.039062 306.566406 26.175781 302.40625 27.386719 C 298.246094 28.597656 294.109375 29.882812 289.992188 31.242188 C 285.878906 32.597656 281.789062 34.027344 277.726562 35.53125 C 273.660156 37.03125 269.625 38.605469 265.617188 40.25 C 261.609375 41.894531 257.628906 43.609375 253.683594 45.398438 C 249.734375 47.183594 245.820312 49.039062 241.9375 50.960938 C 238.054688 52.886719 234.210938 54.878906 230.398438 56.941406 C 226.585938 59 222.8125 61.128906 219.078125 63.324219 C 215.339844 65.515625 211.644531 67.777344 207.988281 70.101562 C 204.332031 72.425781 200.71875 74.816406 197.148438 77.269531 C 193.574219 79.722656 190.046875 82.238281 186.566406 84.816406 C 183.082031 87.394531 179.648438 90.035156 176.257812 92.734375 C 172.871094 95.433594 169.53125 98.191406 166.238281 101.007812 C 162.945312 103.828125 159.707031 106.703125 156.515625 109.636719 C 153.328125 112.566406 150.191406 115.554688 147.105469 118.601562 C 144.023438 121.644531 140.996094 124.742188 138.019531 127.890625 C 135.046875 131.042969 132.128906 134.246094 129.269531 137.5 C 126.40625 140.753906 123.605469 144.058594 120.863281 147.410156 C 118.117188 150.765625 115.433594 154.167969 112.8125 157.613281 C 110.1875 161.0625 107.625 164.558594 105.128906 168.097656 C 102.628906 171.636719 100.191406 175.21875 97.820312 178.84375 C 95.445312 182.46875 93.136719 186.136719 90.894531 189.84375 C 88.652344 193.550781 86.476562 197.292969 84.367188 201.078125 C 82.253906 204.863281 80.210938 208.683594 78.238281 212.539062 C 76.261719 216.398438 74.355469 220.289062 72.519531 224.210938 L 204.894531 224.210938 C 207.835938 220.398438 210.886719 216.675781 214.039062 213.039062 C 217.195312 209.402344 220.453125 205.859375 223.8125 202.410156 C 227.167969 198.960938 230.625 195.609375 234.175781 192.359375 C 237.726562 189.109375 241.367188 185.960938 245.097656 182.917969 C 248.828125 179.875 252.640625 176.941406 256.539062 174.113281 C 260.441406 171.289062 264.414062 168.578125 268.46875 165.980469 C 272.523438 163.386719 276.648438 160.90625 280.84375 158.546875 C 285.042969 156.183594 289.300781 153.945312 293.625 151.828125 C 297.949219 149.714844 302.332031 147.722656 306.769531 145.855469 C 311.207031 143.992188 315.695312 142.253906 320.234375 140.644531 C 324.773438 139.035156 329.351562 137.558594 333.972656 136.214844 C 338.597656 134.867188 343.253906 133.652344 347.945312 132.574219 C 352.636719 131.496094 357.355469 130.550781 362.101562 129.742188 C 366.847656 128.933594 371.613281 128.261719 376.398438 127.722656 C 381.183594 127.1875 385.980469 126.789062 390.785156 126.527344 C 395.59375 126.265625 400.40625 126.140625 405.21875 126.15625 Z M 405 126.15625 " fill-opacity="1" fill-rule="nonzero"/><path fill="#ffffff" d="M 596.207031 518.375 L 593.460938 522.054688 C 590.734375 525.699219 587.902344 529.265625 584.96875 532.75 C 582.035156 536.230469 579.003906 539.625 575.875 542.933594 C 572.742188 546.238281 569.519531 549.453125 566.203125 552.570312 C 562.882812 555.691406 559.480469 558.710938 555.988281 561.632812 C 552.492188 564.554688 548.917969 567.375 545.261719 570.089844 C 541.605469 572.804688 537.875 575.410156 534.066406 577.90625 C 530.257812 580.402344 526.382812 582.789062 522.4375 585.0625 C 518.488281 587.332031 514.480469 589.488281 510.410156 591.53125 C 506.339844 593.570312 502.210938 595.488281 498.027344 597.289062 C 493.84375 599.089844 489.613281 600.765625 485.332031 602.320312 C 481.054688 603.875 476.730469 605.304688 472.367188 606.605469 C 468.003906 607.910156 463.605469 609.085938 459.175781 610.132812 C 454.746094 611.179688 450.285156 612.101562 445.800781 612.890625 C 441.316406 613.679688 436.8125 614.335938 432.289062 614.863281 C 427.765625 615.390625 423.230469 615.789062 418.6875 616.050781 C 414.140625 616.316406 409.589844 616.449219 405.035156 616.449219 C 400.480469 616.449219 395.933594 616.316406 391.386719 616.050781 C 386.839844 615.789062 382.304688 615.390625 377.78125 614.863281 C 373.257812 614.335938 368.753906 613.679688 364.269531 612.890625 C 359.785156 612.101562 355.328125 611.179688 350.894531 610.132812 C 346.464844 609.085938 342.066406 607.910156 337.703125 606.605469 C 333.339844 605.304688 329.019531 603.875 324.738281 602.320312 C 320.457031 600.765625 316.226562 599.089844 312.042969 597.289062 C 307.859375 595.488281 303.734375 593.570312 299.664062 591.53125 C 295.589844 589.488281 291.582031 587.332031 287.636719 585.0625 C 283.691406 582.789062 279.8125 580.402344 276.003906 577.90625 C 272.199219 575.410156 268.464844 572.804688 264.808594 570.089844 C 261.152344 567.375 257.578125 564.554688 254.085938 561.632812 C 250.59375 558.710938 247.1875 555.691406 243.871094 552.574219 C 240.554688 549.453125 237.328125 546.238281 234.199219 542.933594 C 231.066406 539.625 228.035156 536.230469 225.101562 532.75 C 222.167969 529.265625 219.335938 525.699219 216.609375 522.054688 L 213.867188 518.375 L 64.257812 518.375 L 72.519531 536.761719 L 204.894531 536.761719 C 207.84375 540.5625 210.902344 544.277344 214.066406 547.902344 C 217.230469 551.53125 220.492188 555.0625 223.859375 558.503906 C 227.222656 561.945312 230.679688 565.289062 234.234375 568.53125 C 237.789062 571.777344 241.433594 574.917969 245.167969 577.953125 C 248.902344 580.988281 252.71875 583.917969 256.617188 586.738281 C 260.519531 589.558594 264.496094 592.261719 268.550781 594.855469 C 272.601562 597.449219 276.726562 599.925781 280.921875 602.285156 C 285.117188 604.640625 289.375 606.878906 293.699219 608.996094 C 298.019531 611.109375 302.402344 613.101562 306.835938 614.96875 C 311.273438 616.835938 315.757812 618.574219 320.292969 620.1875 C 324.828125 621.796875 329.402344 623.277344 334.023438 624.628906 C 338.640625 625.980469 343.292969 627.199219 347.984375 628.285156 C 352.671875 629.371094 357.386719 630.324219 362.128906 631.140625 C 366.871094 631.957031 371.632812 632.640625 376.414062 633.1875 C 381.195312 633.734375 385.988281 634.144531 390.792969 634.417969 C 395.597656 634.691406 400.40625 634.828125 405.21875 634.828125 C 410.03125 634.828125 414.839844 634.691406 419.644531 634.417969 C 424.449219 634.144531 429.242188 633.734375 434.023438 633.1875 C 438.804688 632.640625 443.566406 631.957031 448.308594 631.140625 C 453.050781 630.324219 457.769531 629.371094 462.457031 628.285156 C 467.144531 627.199219 471.796875 625.980469 476.417969 624.628906 C 481.035156 623.277344 485.613281 621.796875 490.148438 620.1875 C 494.683594 618.574219 499.167969 616.835938 503.601562 614.96875 C 508.039062 613.101562 512.417969 611.109375 516.742188 608.996094 C 521.0625 606.878906 525.320312 604.640625 529.515625 602.285156 C 533.710938 599.925781 537.835938 597.449219 541.890625 594.855469 C 545.945312 592.261719 549.921875 589.558594 553.820312 586.738281 C 557.722656 583.917969 561.539062 580.988281 565.273438 577.953125 C 569.003906 574.917969 572.648438 571.777344 576.203125 568.53125 C 579.757812 565.289062 583.21875 561.945312 586.582031 558.503906 C 589.945312 555.0625 593.210938 551.53125 596.375 547.902344 C 599.535156 544.277344 602.59375 540.5625 605.546875 536.761719 L 737.921875 536.761719 L 746.179688 518.375 Z M 213.792969 242.597656 L 216.539062 238.917969 C 219.265625 235.273438 222.09375 231.707031 225.027344 228.222656 C 227.960938 224.742188 230.992188 221.347656 234.125 218.039062 C 237.253906 214.734375 240.480469 211.519531 243.796875 208.398438 C 247.113281 205.28125 250.519531 202.261719 254.011719 199.339844 C 257.503906 196.417969 261.078125 193.597656 264.734375 190.882812 C 268.390625 188.167969 272.125 185.5625 275.933594 183.066406 C 279.738281 180.570312 283.617188 178.183594 287.5625 175.910156 C 291.507812 173.640625 295.519531 171.484375 299.589844 169.441406 C 303.660156 167.402344 307.789062 165.484375 311.96875 163.683594 C 316.152344 161.882812 320.386719 160.207031 324.664062 158.652344 C 328.945312 157.097656 333.265625 155.667969 337.628906 154.367188 C 341.992188 153.0625 346.390625 151.886719 350.824219 150.839844 C 355.253906 149.792969 359.710938 148.871094 364.195312 148.082031 C 368.683594 147.292969 373.1875 146.636719 377.710938 146.109375 C 382.230469 145.582031 386.765625 145.183594 391.3125 144.921875 C 395.859375 144.65625 400.410156 144.523438 404.960938 144.523438 C 409.515625 144.523438 414.066406 144.65625 418.613281 144.921875 C 423.15625 145.183594 427.691406 145.582031 432.214844 146.109375 C 436.738281 146.636719 441.242188 147.292969 445.726562 148.082031 C 450.210938 148.871094 454.671875 149.792969 459.101562 150.839844 C 463.535156 151.886719 467.929688 153.0625 472.292969 154.367188 C 476.65625 155.667969 480.980469 157.097656 485.257812 158.652344 C 489.539062 160.207031 493.773438 161.882812 497.953125 163.683594 C 502.136719 165.484375 506.265625 167.402344 510.335938 169.441406 C 514.40625 171.484375 518.417969 173.640625 522.363281 175.910156 C 526.308594 178.183594 530.183594 180.570312 533.992188 183.066406 C 537.800781 185.5625 541.53125 188.167969 545.1875 190.882812 C 548.847656 193.597656 552.421875 196.417969 555.914062 199.339844 C 559.40625 202.261719 562.8125 205.28125 566.128906 208.398438 C 569.445312 211.519531 572.667969 214.734375 575.800781 218.039062 C 578.929688 221.347656 581.964844 224.742188 584.898438 228.222656 C 587.832031 231.707031 590.660156 235.273438 593.386719 238.917969 L 596.132812 242.597656 L 745.667969 242.597656 L 737.40625 224.210938 L 605.03125 224.210938 C 602.078125 220.410156 599.023438 216.695312 595.859375 213.070312 C 592.695312 209.441406 589.433594 205.910156 586.070312 202.46875 C 582.707031 199.027344 579.246094 195.683594 575.691406 192.441406 C 572.136719 189.195312 568.492188 186.054688 564.761719 183.019531 C 561.027344 179.984375 557.210938 177.054688 553.3125 174.234375 C 549.410156 171.414062 545.433594 168.710938 541.378906 166.117188 C 537.328125 163.523438 533.203125 161.046875 529.007812 158.6875 C 524.8125 156.332031 520.554688 154.09375 516.234375 151.976562 C 511.910156 149.863281 507.53125 147.871094 503.097656 146.003906 C 498.660156 144.136719 494.175781 142.398438 489.640625 140.785156 C 485.105469 139.175781 480.53125 137.695312 475.910156 136.34375 C 471.292969 134.992188 466.640625 133.773438 461.953125 132.6875 C 457.261719 131.601562 452.546875 130.652344 447.804688 129.832031 C 443.0625 129.015625 438.300781 128.332031 433.519531 127.785156 C 428.738281 127.238281 423.945312 126.832031 419.140625 126.554688 C 414.339844 126.28125 409.53125 126.144531 404.71875 126.144531 C 399.90625 126.144531 395.097656 126.28125 390.292969 126.554688 C 385.488281 126.832031 380.695312 127.238281 375.914062 127.785156 C 371.132812 128.332031 366.371094 129.015625 361.628906 129.832031 C 356.886719 130.652344 352.171875 131.601562 347.484375 132.6875 C 342.796875 133.773438 338.140625 134.992188 333.523438 136.34375 C 328.90625 137.695312 324.328125 139.175781 319.792969 140.785156 C 315.257812 142.398438 310.773438 144.136719 306.339844 146.003906 C 301.902344 147.871094 297.523438 149.863281 293.203125 151.976562 C 288.878906 154.09375 284.621094 156.332031 280.425781 158.6875 C 276.230469 161.046875 272.109375 163.523438 268.054688 166.117188 C 264 168.710938 260.023438 171.414062 256.125 174.234375 C 252.222656 177.054688 248.40625 179.984375 244.675781 183.019531 C 240.941406 186.054688 237.296875 189.195312 233.742188 192.441406 C 230.1875 195.683594 226.730469 199.027344 223.367188 202.46875 C 220 205.910156 216.738281 209.441406 213.574219 213.070312 C 210.410156 216.695312 207.355469 220.410156 204.402344 224.210938 L 72.027344 224.210938 L 63.769531 242.597656 Z M 213.792969 242.597656 " fill-opacity="1" fill-rule="nonzero"/><path fill="#000000" d="M 441.890625 444.171875 C 442.003906 442.039062 441.90625 439.910156 441.605469 437.792969 C 441.304688 435.675781 440.800781 433.609375 440.097656 431.589844 C 439.394531 429.570312 438.5 427.636719 437.421875 425.789062 C 436.34375 423.945312 435.09375 422.21875 433.679688 420.613281 C 429.679688 416.9375 425.328125 413.738281 420.628906 411.011719 C 415.929688 408.285156 410.988281 406.101562 405.808594 404.460938 C 394.222656 400.195312 382.914062 395.292969 371.882812 389.753906 C 362.960938 385.285156 354.8125 379.6875 347.441406 372.960938 C 340.605469 366.628906 335.3125 359.203125 331.554688 350.675781 C 329.554688 345.847656 328.074219 340.867188 327.113281 335.726562 C 326.15625 330.589844 325.742188 325.40625 325.867188 320.183594 C 325.785156 317.882812 325.820312 315.585938 325.972656 313.289062 C 326.125 310.996094 326.390625 308.714844 326.777344 306.445312 C 327.160156 304.175781 327.660156 301.933594 328.273438 299.71875 C 328.886719 297.5 329.613281 295.320312 330.445312 293.175781 C 331.28125 291.03125 332.226562 288.9375 333.273438 286.890625 C 334.324219 284.84375 335.476562 282.855469 336.726562 280.925781 C 337.980469 278.996094 339.328125 277.132812 340.769531 275.34375 C 342.210938 273.550781 343.742188 271.835938 345.355469 270.199219 C 348.839844 266.859375 352.585938 263.851562 356.597656 261.171875 C 360.609375 258.492188 364.824219 256.183594 369.242188 254.242188 C 373.660156 252.304688 378.210938 250.769531 382.898438 249.632812 C 387.589844 248.496094 392.339844 247.777344 397.15625 247.476562 L 397.15625 208.890625 L 426.03125 208.890625 L 426.03125 248.039062 C 430.859375 248.542969 435.59375 249.503906 440.234375 250.925781 C 444.875 252.34375 449.335938 254.195312 453.621094 256.476562 C 457.902344 258.757812 461.929688 261.425781 465.695312 264.484375 C 469.464844 267.546875 472.902344 270.9375 476.015625 274.660156 C 479.132812 278.722656 481.875 283.027344 484.238281 287.570312 C 486.605469 292.113281 488.554688 296.828125 490.09375 301.710938 C 491.632812 306.597656 492.734375 311.578125 493.402344 316.65625 C 494.066406 321.734375 494.285156 326.832031 494.058594 331.949219 L 441.917969 331.949219 C 442.132812 329.09375 442.101562 326.242188 441.824219 323.394531 C 441.546875 320.546875 441.027344 317.742188 440.269531 314.984375 C 439.507812 312.222656 438.515625 309.550781 437.296875 306.960938 C 436.074219 304.371094 434.640625 301.90625 432.992188 299.566406 C 431.550781 297.8125 429.925781 296.246094 428.117188 294.867188 C 426.3125 293.488281 424.375 292.332031 422.300781 291.398438 C 420.226562 290.46875 418.074219 289.785156 415.84375 289.351562 C 413.613281 288.917969 411.363281 288.742188 409.09375 288.828125 C 406.996094 288.699219 404.910156 288.785156 402.832031 289.085938 C 400.753906 289.386719 398.726562 289.898438 396.753906 290.621094 C 394.78125 291.339844 392.90625 292.257812 391.121094 293.367188 C 389.339844 294.480469 387.691406 295.761719 386.171875 297.214844 C 384.765625 298.78125 383.523438 300.472656 382.449219 302.289062 C 381.378906 304.105469 380.492188 306.007812 379.796875 307.996094 C 379.101562 309.988281 378.605469 312.027344 378.3125 314.113281 C 378.019531 316.203125 377.9375 318.296875 378.058594 320.402344 C 377.964844 322.410156 378.066406 324.40625 378.363281 326.390625 C 378.664062 328.375 379.15625 330.3125 379.835938 332.203125 C 380.515625 334.089844 381.375 335.894531 382.414062 337.613281 C 383.453125 339.332031 384.648438 340.933594 386 342.417969 C 390.3125 346.179688 394.949219 349.492188 399.914062 352.347656 C 404.875 355.199219 410.066406 357.546875 415.492188 359.378906 C 427.632812 364.117188 439.445312 369.558594 450.9375 375.707031 C 459.589844 380.355469 467.410156 386.132812 474.398438 393.039062 C 480.742188 399.398438 485.609375 406.734375 489.007812 415.050781 C 492.578125 424.3125 494.261719 433.90625 494.058594 443.828125 C 494.152344 446.117188 494.128906 448.398438 493.988281 450.683594 C 493.847656 452.96875 493.59375 455.238281 493.222656 457.496094 C 492.851562 459.753906 492.367188 461.984375 491.765625 464.195312 C 491.167969 466.402344 490.457031 468.574219 489.640625 470.710938 C 488.820312 472.84375 487.894531 474.933594 486.859375 476.976562 C 485.828125 479.015625 484.695312 481 483.460938 482.925781 C 482.222656 484.851562 480.894531 486.710938 479.472656 488.5 C 478.046875 490.292969 476.535156 492.003906 474.9375 493.640625 C 471.371094 496.984375 467.542969 499.988281 463.453125 502.664062 C 459.363281 505.335938 455.074219 507.632812 450.582031 509.554688 C 446.089844 511.480469 441.464844 512.996094 436.710938 514.113281 C 431.953125 515.226562 427.136719 515.921875 422.257812 516.195312 L 422.257812 552.082031 L 393.574219 552.082031 L 393.574219 516.367188 C 388.195312 516.050781 382.890625 515.246094 377.660156 513.941406 C 372.429688 512.640625 367.363281 510.867188 362.464844 508.621094 C 357.566406 506.375 352.914062 503.695312 348.515625 500.585938 C 344.113281 497.472656 340.039062 493.984375 336.289062 490.113281 C 332.792969 486.039062 329.714844 481.675781 327.050781 477.019531 C 324.390625 472.363281 322.1875 467.496094 320.449219 462.421875 C 318.710938 457.347656 317.46875 452.152344 316.71875 446.84375 C 315.96875 441.53125 315.726562 436.195312 315.988281 430.835938 L 368.128906 430.835938 C 367.933594 433.777344 368.007812 436.710938 368.347656 439.636719 C 368.691406 442.5625 369.300781 445.433594 370.171875 448.246094 C 371.042969 451.058594 372.164062 453.769531 373.535156 456.378906 C 374.90625 458.984375 376.503906 461.445312 378.328125 463.757812 C 380.203125 465.726562 382.273438 467.46875 384.53125 468.984375 C 386.789062 470.496094 389.183594 471.75 391.714844 472.738281 C 394.25 473.726562 396.859375 474.429688 399.546875 474.847656 C 402.234375 475.261719 404.933594 475.382812 407.648438 475.207031 C 409.90625 475.332031 412.160156 475.246094 414.402344 474.941406 C 416.644531 474.640625 418.839844 474.132812 420.988281 473.414062 C 423.132812 472.695312 425.195312 471.785156 427.167969 470.675781 C 429.140625 469.566406 430.992188 468.28125 432.722656 466.824219 C 434.265625 465.382812 435.632812 463.792969 436.828125 462.050781 C 438.023438 460.3125 439.019531 458.464844 439.8125 456.507812 C 440.605469 454.554688 441.179688 452.535156 441.535156 450.457031 C 441.890625 448.375 442.015625 446.28125 441.917969 444.171875 Z M 441.890625 444.171875 " fill-opacity="1" fill-rule="nonzero"/></svg>