<svg xmlns="http://www.w3.org/2000/svg" xmlns:xlink="http://www.w3.org/1999/xlink" width="1080" zoomAndPan="magnify" viewBox="0 0 810 809.999993" height="1080" preserveAspectRatio="xMidYMid meet" version="1.0"><defs><clipPath id="1ed237dfe6"><path d="M 24.082031 49 L 785 49 L 785 810 L 24.082031 810 Z M 24.082031 49 " clip-rule="nonzero"/></clipPath><clipPath id="c5b9789285"><path d="M 24.082031 0 L 785 0 L 785 761 L 24.082031 761 Z M 24.082031 0 " clip-rule="nonzero"/></clipPath></defs><g clip-path="url(#1ed237dfe6)"><path fill="#000000" d="M 784.980469 429.546875 C 784.980469 435.769531 784.828125 441.992188 784.519531 448.210938 C 784.214844 454.433594 783.757812 460.640625 783.148438 466.835938 C 782.539062 473.03125 781.777344 479.210938 780.863281 485.367188 C 779.949219 491.527344 778.882812 497.660156 777.667969 503.765625 C 776.453125 509.875 775.089844 515.945312 773.578125 521.988281 C 772.066406 528.027344 770.40625 534.027344 768.597656 539.984375 C 766.789062 545.941406 764.835938 551.851562 762.738281 557.714844 C 760.640625 563.578125 758.402344 569.382812 756.019531 575.136719 C 753.636719 580.890625 751.113281 586.578125 748.453125 592.207031 C 745.789062 597.835938 742.992188 603.394531 740.058594 608.886719 C 737.121094 614.378906 734.054688 619.792969 730.851562 625.136719 C 727.652344 630.476562 724.320312 635.734375 720.863281 640.910156 C 717.402344 646.089844 713.820312 651.175781 710.109375 656.179688 C 706.402344 661.179688 702.570312 666.085938 698.621094 670.898438 C 694.671875 675.710938 690.605469 680.425781 686.425781 685.039062 C 682.242188 689.652344 677.953125 694.160156 673.546875 698.5625 C 669.144531 702.964844 664.636719 707.257812 660.023438 711.4375 C 655.410156 715.621094 650.699219 719.6875 645.886719 723.636719 C 641.070312 727.585938 636.164062 731.414062 631.164062 735.125 C 626.164062 738.832031 621.074219 742.417969 615.898438 745.878906 C 610.71875 749.335938 605.460938 752.667969 600.121094 755.867188 C 594.78125 759.066406 589.363281 762.136719 583.871094 765.070312 C 578.382812 768.007812 572.820312 770.804688 567.195312 773.46875 C 561.566406 776.128906 555.875 778.652344 550.121094 781.035156 C 544.371094 783.417969 538.5625 785.65625 532.699219 787.753906 C 526.835938 789.851562 520.925781 791.804688 514.96875 793.613281 C 509.011719 795.417969 503.011719 797.078125 496.972656 798.59375 C 490.933594 800.105469 484.859375 801.46875 478.753906 802.683594 C 472.644531 803.898438 466.511719 804.960938 460.355469 805.875 C 454.195312 806.789062 448.015625 807.550781 441.820312 808.164062 C 435.625 808.773438 429.417969 809.230469 423.199219 809.535156 C 416.980469 809.839844 410.757812 809.996094 404.53125 809.996094 C 398.304688 809.996094 392.082031 809.839844 385.863281 809.535156 C 379.644531 809.230469 373.4375 808.773438 367.238281 808.164062 C 361.042969 807.550781 354.867188 806.789062 348.707031 805.875 C 342.546875 804.960938 336.414062 803.898438 330.308594 802.683594 C 324.203125 801.46875 318.128906 800.105469 312.089844 798.59375 C 306.050781 797.078125 300.050781 795.417969 294.09375 793.613281 C 288.132812 791.804688 282.222656 789.851562 276.359375 787.753906 C 270.5 785.65625 264.691406 783.417969 258.9375 781.035156 C 253.1875 778.652344 247.496094 776.128906 241.867188 773.46875 C 236.238281 770.804688 230.679688 768.007812 225.1875 765.070312 C 219.695312 762.136719 214.28125 759.066406 208.941406 755.867188 C 203.601562 752.667969 198.339844 749.335938 193.164062 745.878906 C 187.988281 742.417969 182.898438 738.832031 177.898438 735.125 C 172.894531 731.414062 167.988281 727.585938 163.175781 723.636719 C 158.363281 719.6875 153.648438 715.621094 149.035156 711.4375 C 144.421875 707.257812 139.914062 702.964844 135.511719 698.5625 C 131.109375 694.160156 126.816406 689.652344 122.636719 685.039062 C 118.453125 680.425781 114.390625 675.710938 110.4375 670.898438 C 106.488281 666.085938 102.660156 661.179688 98.949219 656.179688 C 95.242188 651.175781 91.65625 646.089844 88.199219 640.910156 C 84.738281 635.734375 81.410156 630.476562 78.207031 625.136719 C 75.007812 619.792969 71.9375 614.378906 69.003906 608.886719 C 66.070312 603.394531 63.269531 597.835938 60.609375 592.207031 C 57.945312 586.578125 55.425781 580.890625 53.042969 575.136719 C 50.660156 569.382812 48.417969 563.578125 46.320312 557.714844 C 44.222656 551.851562 42.269531 545.941406 40.464844 539.984375 C 38.65625 534.027344 36.996094 528.027344 35.484375 521.988281 C 33.96875 515.945312 32.605469 509.875 31.390625 503.765625 C 30.175781 497.660156 29.113281 491.527344 28.199219 485.367188 C 27.285156 479.210938 26.523438 473.03125 25.914062 466.835938 C 25.304688 460.640625 24.84375 454.433594 24.539062 448.210938 C 24.234375 441.992188 24.082031 435.769531 24.082031 429.546875 C 24.082031 423.320312 24.234375 417.097656 24.539062 410.878906 C 24.84375 404.660156 25.304688 398.449219 25.914062 392.253906 C 26.523438 386.058594 27.285156 379.878906 28.199219 373.722656 C 29.113281 367.5625 30.175781 361.429688 31.390625 355.324219 C 32.605469 349.214844 33.96875 343.144531 35.484375 337.101562 C 36.996094 331.0625 38.65625 325.066406 40.464844 319.105469 C 42.269531 313.148438 44.222656 307.238281 46.320312 301.375 C 48.417969 295.511719 50.660156 289.707031 53.042969 283.953125 C 55.425781 278.199219 57.945312 272.511719 60.609375 266.882812 C 63.269531 261.253906 66.070312 255.695312 69.003906 250.203125 C 71.9375 244.710938 75.007812 239.296875 78.207031 233.953125 C 81.410156 228.613281 84.738281 223.355469 88.199219 218.179688 C 91.65625 213 95.242188 207.914062 98.949219 202.910156 C 102.660156 197.910156 106.488281 193.003906 110.4375 188.191406 C 114.390625 183.378906 118.453125 178.664062 122.636719 174.050781 C 126.816406 169.4375 131.109375 164.929688 135.511719 160.527344 C 139.914062 156.125 144.421875 151.832031 149.035156 147.652344 C 153.648438 143.46875 158.363281 139.402344 163.175781 135.453125 C 167.988281 131.503906 172.894531 127.675781 177.898438 123.964844 C 182.898438 120.257812 187.988281 116.671875 193.164062 113.214844 C 198.339844 109.753906 203.601562 106.425781 208.941406 103.222656 C 214.28125 100.023438 219.695312 96.953125 225.1875 94.019531 C 230.679688 91.082031 236.238281 88.285156 241.867188 85.625 C 247.496094 82.960938 253.1875 80.4375 258.9375 78.054688 C 264.691406 75.671875 270.5 73.433594 276.359375 71.335938 C 282.222656 69.238281 288.132812 67.285156 294.09375 65.476562 C 300.050781 63.671875 306.050781 62.011719 312.089844 60.496094 C 318.128906 58.984375 324.203125 57.621094 330.308594 56.40625 C 336.414062 55.191406 342.546875 54.128906 348.707031 53.214844 C 354.867188 52.300781 361.042969 51.539062 367.238281 50.929688 C 373.4375 50.316406 379.644531 49.859375 385.863281 49.554688 C 392.082031 49.25 398.304688 49.097656 404.53125 49.097656 C 410.757812 49.097656 416.980469 49.25 423.199219 49.554688 C 429.417969 49.859375 435.625 50.316406 441.820312 50.929688 C 448.015625 51.539062 454.195312 52.300781 460.355469 53.214844 C 466.511719 54.128906 472.644531 55.191406 478.753906 56.40625 C 484.859375 57.621094 490.933594 58.984375 496.972656 60.496094 C 503.011719 62.011719 509.011719 63.671875 514.96875 65.476562 C 520.925781 67.285156 526.835938 69.238281 532.699219 71.335938 C 538.5625 73.433594 544.371094 75.671875 550.121094 78.054688 C 555.875 80.4375 561.566406 82.960938 567.195312 85.625 C 572.820312 88.285156 578.382812 91.082031 583.871094 94.019531 C 589.363281 96.953125 594.78125 100.023438 600.121094 103.222656 C 605.460938 106.425781 610.71875 109.753906 615.898438 113.214844 C 621.074219 116.671875 626.164062 120.257812 631.164062 123.964844 C 636.164062 127.675781 641.070312 131.503906 645.886719 135.453125 C 650.699219 139.402344 655.410156 143.46875 660.023438 147.652344 C 664.636719 151.832031 669.144531 156.125 673.546875 160.527344 C 677.953125 164.929688 682.242188 169.4375 686.425781 174.050781 C 690.605469 178.664062 694.671875 183.378906 698.621094 188.191406 C 702.570312 193.003906 706.402344 197.910156 710.109375 202.910156 C 713.820312 207.914062 717.402344 213 720.863281 218.179688 C 724.320312 223.355469 727.652344 228.613281 730.851562 233.953125 C 734.054688 239.296875 737.121094 244.710938 740.058594 250.203125 C 742.992188 255.695312 745.789062 261.253906 748.453125 266.882812 C 751.113281 272.511719 753.636719 278.199219 756.019531 283.953125 C 758.402344 289.707031 760.640625 295.511719 762.738281 301.375 C 764.835938 307.238281 766.789062 313.148438 768.597656 319.105469 C 770.40625 325.066406 772.066406 331.0625 773.578125 337.101562 C 775.089844 343.144531 776.453125 349.214844 777.667969 355.324219 C 778.882812 361.429688 779.949219 367.5625 780.863281 373.722656 C 781.777344 379.878906 782.539062 386.058594 783.148438 392.253906 C 783.757812 398.449219 784.214844 404.660156 784.519531 410.878906 C 784.828125 417.097656 784.980469 423.320312 784.980469 429.546875 Z M 784.980469 429.546875 " fill-opacity="1" fill-rule="nonzero"/></g><g clip-path="url(#c5b9789285)"><path fill="#000000" d="M 784.980469 380.453125 C 784.980469 386.679688 784.828125 392.902344 784.519531 399.121094 C 784.214844 405.339844 783.757812 411.550781 783.148438 417.746094 C 782.539062 423.941406 781.777344 430.121094 780.863281 436.277344 C 779.949219 442.4375 778.882812 448.570312 777.667969 454.675781 C 776.453125 460.785156 775.089844 466.855469 773.578125 472.894531 C 772.066406 478.9375 770.40625 484.933594 768.597656 490.894531 C 766.789062 496.851562 764.835938 502.761719 762.738281 508.625 C 760.640625 514.488281 758.402344 520.292969 756.019531 526.046875 C 753.636719 531.796875 751.113281 537.488281 748.453125 543.117188 C 745.789062 548.746094 742.992188 554.304688 740.058594 559.796875 C 737.121094 565.289062 734.054688 570.703125 730.851562 576.042969 C 727.652344 581.386719 724.320312 586.644531 720.863281 591.820312 C 717.402344 597 713.820312 602.085938 710.109375 607.089844 C 706.402344 612.089844 702.570312 616.996094 698.621094 621.808594 C 694.671875 626.621094 690.605469 631.335938 686.425781 635.949219 C 682.242188 640.5625 677.953125 645.070312 673.546875 649.472656 C 669.144531 653.875 664.636719 658.167969 660.023438 662.347656 C 655.410156 666.53125 650.699219 670.597656 645.886719 674.546875 C 641.070312 678.496094 636.164062 682.324219 631.164062 686.035156 C 626.164062 689.742188 621.074219 693.328125 615.898438 696.785156 C 610.71875 700.246094 605.460938 703.574219 600.121094 706.777344 C 594.78125 709.976562 589.363281 713.046875 583.871094 715.980469 C 578.382812 718.917969 572.820312 721.714844 567.195312 724.375 C 561.566406 727.039062 555.875 729.5625 550.121094 731.945312 C 544.371094 734.328125 538.5625 736.566406 532.699219 738.664062 C 526.835938 740.761719 520.925781 742.714844 514.96875 744.523438 C 509.011719 746.328125 503.011719 747.988281 496.972656 749.503906 C 490.933594 751.015625 484.859375 752.378906 478.753906 753.59375 C 472.644531 754.808594 466.511719 755.871094 460.355469 756.785156 C 454.195312 757.699219 448.015625 758.460938 441.820312 759.070312 C 435.625 759.683594 429.417969 760.140625 423.199219 760.445312 C 416.980469 760.75 410.757812 760.902344 404.53125 760.902344 C 398.304688 760.902344 392.082031 760.75 385.863281 760.445312 C 379.644531 760.140625 373.4375 759.683594 367.238281 759.070312 C 361.042969 758.460938 354.867188 757.699219 348.707031 756.785156 C 342.546875 755.871094 336.414062 754.808594 330.308594 753.59375 C 324.203125 752.378906 318.128906 751.015625 312.089844 749.503906 C 306.050781 747.988281 300.050781 746.328125 294.09375 744.523438 C 288.132812 742.714844 282.222656 740.761719 276.359375 738.664062 C 270.5 736.566406 264.691406 734.328125 258.9375 731.945312 C 253.1875 729.5625 247.496094 727.039062 241.867188 724.375 C 236.238281 721.714844 230.679688 718.917969 225.1875 715.980469 C 219.695312 713.046875 214.28125 709.976562 208.941406 706.777344 C 203.601562 703.574219 198.339844 700.246094 193.164062 696.785156 C 187.988281 693.328125 182.898438 689.742188 177.898438 686.035156 C 172.894531 682.324219 167.988281 678.496094 163.175781 674.546875 C 158.363281 670.597656 153.648438 666.53125 149.035156 662.347656 C 144.421875 658.167969 139.914062 653.875 135.511719 649.472656 C 131.109375 645.070312 126.816406 640.5625 122.636719 635.949219 C 118.453125 631.335938 114.390625 626.621094 110.4375 621.808594 C 106.488281 616.996094 102.660156 612.089844 98.949219 607.089844 C 95.242188 602.085938 91.65625 597 88.199219 591.820312 C 84.738281 586.644531 81.410156 581.386719 78.207031 576.042969 C 75.007812 570.703125 71.9375 565.289062 69.003906 559.796875 C 66.070312 554.304688 63.269531 548.746094 60.609375 543.117188 C 57.945312 537.488281 55.425781 531.796875 53.042969 526.046875 C 50.660156 520.292969 48.417969 514.488281 46.320312 508.625 C 44.222656 502.761719 42.269531 496.851562 40.464844 490.894531 C 38.65625 484.933594 36.996094 478.9375 35.484375 472.894531 C 33.96875 466.855469 32.605469 460.785156 31.390625 454.675781 C 30.175781 448.570312 29.113281 442.4375 28.199219 436.277344 C 27.285156 430.121094 26.523438 423.941406 25.914062 417.746094 C 25.304688 411.550781 24.84375 405.339844 24.539062 399.121094 C 24.234375 392.902344 24.082031 386.679688 24.082031 380.453125 C 24.082031 374.230469 24.234375 368.007812 24.539062 361.789062 C 24.84375 355.566406 25.304688 349.359375 25.914062 343.164062 C 26.523438 336.96875 27.285156 330.789062 28.199219 324.632812 C 29.113281 318.472656 30.175781 312.339844 31.390625 306.234375 C 32.605469 300.125 33.96875 294.054688 35.484375 288.011719 C 36.996094 281.972656 38.65625 275.972656 40.464844 270.015625 C 42.269531 264.058594 44.222656 258.148438 46.320312 252.285156 C 48.417969 246.421875 50.660156 240.617188 53.042969 234.863281 C 55.425781 229.109375 57.945312 223.421875 60.609375 217.792969 C 63.269531 212.164062 66.070312 206.601562 69.003906 201.113281 C 71.9375 195.621094 75.007812 190.207031 78.207031 184.863281 C 81.410156 179.523438 84.738281 174.265625 88.199219 169.089844 C 91.65625 163.910156 95.242188 158.824219 98.949219 153.820312 C 102.660156 148.820312 106.488281 143.914062 110.4375 139.101562 C 114.390625 134.289062 118.453125 129.574219 122.636719 124.960938 C 126.816406 120.347656 131.109375 115.839844 135.511719 111.4375 C 139.914062 107.035156 144.421875 102.742188 149.035156 98.5625 C 153.648438 94.378906 158.363281 90.3125 163.175781 86.363281 C 167.988281 82.414062 172.894531 78.585938 177.898438 74.875 C 182.898438 71.167969 187.988281 67.582031 193.164062 64.121094 C 198.339844 60.664062 203.601562 57.332031 208.941406 54.132812 C 214.28125 50.933594 219.695312 47.863281 225.1875 44.929688 C 230.679688 41.992188 236.238281 39.195312 241.867188 36.53125 C 247.496094 33.871094 253.1875 31.347656 258.9375 28.964844 C 264.691406 26.582031 270.5 24.34375 276.359375 22.246094 C 282.222656 20.148438 288.132812 18.195312 294.09375 16.386719 C 300.050781 14.582031 306.050781 12.921875 312.089844 11.40625 C 318.128906 9.894531 324.203125 8.53125 330.308594 7.316406 C 336.414062 6.101562 342.546875 5.035156 348.707031 4.125 C 354.867188 3.210938 361.042969 2.449219 367.238281 1.835938 C 373.4375 1.226562 379.644531 0.769531 385.863281 0.464844 C 392.082031 0.160156 398.304688 0.00390625 404.53125 0.00390625 C 410.757812 0.00390625 416.980469 0.160156 423.199219 0.464844 C 429.417969 0.769531 435.625 1.226562 441.820312 1.835938 C 448.015625 2.449219 454.195312 3.210938 460.355469 4.125 C 466.511719 5.035156 472.644531 6.101562 478.753906 7.316406 C 484.859375 8.53125 490.933594 9.894531 496.972656 11.40625 C 503.011719 12.921875 509.011719 14.582031 514.96875 16.386719 C 520.925781 18.195312 526.835938 20.148438 532.699219 22.246094 C 538.5625 24.34375 544.371094 26.582031 550.121094 28.964844 C 555.875 31.347656 561.566406 33.871094 567.195312 36.53125 C 572.820312 39.195312 578.382812 41.992188 583.871094 44.929688 C 589.363281 47.863281 594.78125 50.933594 600.121094 54.132812 C 605.460938 57.332031 610.71875 60.664062 615.898438 64.121094 C 621.074219 67.582031 626.164062 71.167969 631.164062 74.875 C 636.164062 78.585938 641.070312 82.414062 645.886719 86.363281 C 650.699219 90.3125 655.410156 94.378906 660.023438 98.5625 C 664.636719 102.742188 669.144531 107.035156 673.546875 111.4375 C 677.953125 115.839844 682.242188 120.347656 686.425781 124.960938 C 690.605469 129.574219 694.671875 134.289062 698.621094 139.101562 C 702.570312 143.914062 706.402344 148.820312 710.109375 153.820312 C 713.820312 158.824219 717.402344 163.910156 720.863281 169.089844 C 724.320312 174.265625 727.652344 179.523438 730.851562 184.863281 C 734.054688 190.207031 737.121094 195.621094 740.058594 201.113281 C 742.992188 206.601562 745.789062 212.164062 748.453125 217.792969 C 751.113281 223.421875 753.636719 229.109375 756.019531 234.863281 C 758.402344 240.617188 760.640625 246.421875 762.738281 252.285156 C 764.835938 258.148438 766.789062 264.058594 768.597656 270.015625 C 770.40625 275.972656 772.066406 281.972656 773.578125 288.011719 C 775.089844 294.054688 776.453125 300.125 777.667969 306.234375 C 778.882812 312.339844 779.949219 318.472656 780.863281 324.632812 C 781.777344 330.789062 782.539062 336.96875 783.148438 343.164062 C 783.757812 349.359375 784.214844 355.566406 784.519531 361.789062 C 784.828125 368.007812 784.980469 374.230469 784.980469 380.453125 Z M 784.980469 380.453125 " fill-opacity="1" fill-rule="nonzero"/></g><path fill="#dfdfdf" d="M 593.207031 238.730469 C 590.480469 235.078125 587.644531 231.511719 584.707031 228.023438 C 581.769531 224.535156 578.734375 221.136719 575.597656 217.824219 C 572.464844 214.515625 569.238281 211.296875 565.914062 208.171875 C 562.59375 205.050781 559.183594 202.023438 555.6875 199.097656 C 552.1875 196.175781 548.609375 193.351562 544.949219 190.632812 C 541.289062 187.917969 537.550781 185.308594 533.738281 182.808594 C 529.925781 180.304688 526.042969 177.917969 522.09375 175.640625 C 518.140625 173.367188 514.128906 171.207031 510.050781 169.167969 C 505.972656 167.125 501.84375 165.203125 497.652344 163.398438 C 493.464844 161.597656 489.230469 159.917969 484.941406 158.363281 C 480.65625 156.804688 476.328125 155.375 471.960938 154.070312 C 467.59375 152.765625 463.1875 151.585938 458.75 150.539062 C 454.316406 149.488281 449.851562 148.570312 445.359375 147.777344 C 440.871094 146.988281 436.359375 146.328125 431.832031 145.800781 C 427.300781 145.273438 422.761719 144.878906 418.210938 144.613281 C 413.65625 144.347656 409.101562 144.214844 404.542969 144.214844 C 399.984375 144.214844 395.425781 144.347656 390.875 144.613281 C 386.324219 144.878906 381.785156 145.273438 377.253906 145.800781 C 372.726562 146.328125 368.214844 146.988281 363.726562 147.777344 C 359.234375 148.570312 354.769531 149.488281 350.332031 150.539062 C 345.894531 151.585938 341.492188 152.765625 337.125 154.070312 C 332.753906 155.375 328.429688 156.804688 324.144531 158.363281 C 319.855469 159.917969 315.621094 161.597656 311.433594 163.398438 C 307.242188 165.203125 303.109375 167.125 299.035156 169.167969 C 294.957031 171.207031 290.945312 173.367188 286.992188 175.640625 C 283.042969 177.917969 279.160156 180.304688 275.347656 182.808594 C 271.535156 185.308594 267.796875 187.917969 264.136719 190.632812 C 260.476562 193.351562 256.894531 196.175781 253.398438 199.097656 C 249.902344 202.023438 246.492188 205.050781 243.171875 208.171875 C 239.847656 211.296875 236.621094 214.515625 233.484375 217.824219 C 230.351562 221.136719 227.316406 224.535156 224.378906 228.023438 C 221.441406 231.511719 218.605469 235.078125 215.875 238.730469 L 213.128906 242.414062 L 63.355469 242.414062 C 61.128906 247.878906 59.039062 253.394531 57.082031 258.957031 C 55.125 264.523438 53.304688 270.132812 51.617188 275.785156 C 49.933594 281.441406 48.382812 287.132812 46.972656 292.859375 C 45.5625 298.589844 44.289062 304.347656 43.15625 310.136719 C 42.023438 315.925781 41.03125 321.742188 40.179688 327.578125 C 39.328125 333.417969 38.617188 339.273438 38.046875 345.144531 C 37.480469 351.015625 37.050781 356.898438 36.765625 362.789062 C 36.484375 368.683594 36.339844 374.578125 36.339844 380.480469 C 36.339844 386.378906 36.484375 392.273438 36.765625 398.167969 C 37.050781 404.0625 37.480469 409.941406 38.046875 415.816406 C 38.617188 421.6875 39.328125 427.542969 40.179688 433.378906 C 41.03125 439.21875 42.023438 445.03125 43.15625 450.820312 C 44.289062 456.609375 45.5625 462.371094 46.972656 468.097656 C 48.382812 473.828125 49.933594 479.519531 51.617188 485.171875 C 53.304688 490.824219 55.125 496.433594 57.082031 502 C 59.039062 507.566406 61.128906 513.082031 63.355469 518.546875 L 213.078125 518.546875 L 215.828125 522.226562 C 218.558594 525.878906 221.390625 529.449219 224.328125 532.9375 C 227.265625 536.421875 230.300781 539.824219 233.4375 543.132812 C 236.570312 546.445312 239.800781 549.660156 243.121094 552.785156 C 246.441406 555.910156 249.851562 558.933594 253.351562 561.859375 C 256.847656 564.785156 260.425781 567.605469 264.085938 570.324219 C 267.75 573.042969 271.484375 575.652344 275.296875 578.152344 C 279.109375 580.652344 282.992188 583.039062 286.945312 585.316406 C 290.894531 587.589844 294.910156 589.75 298.984375 591.792969 C 303.0625 593.835938 307.195312 595.757812 311.382812 597.558594 C 315.570312 599.363281 319.808594 601.042969 324.09375 602.597656 C 328.378906 604.152344 332.707031 605.585938 337.074219 606.890625 C 341.445312 608.195312 345.847656 609.371094 350.285156 610.421875 C 354.722656 611.46875 359.1875 612.390625 363.675781 613.179688 C 368.167969 613.96875 372.675781 614.628906 377.207031 615.15625 C 381.734375 615.683594 386.273438 616.082031 390.828125 616.347656 C 395.378906 616.609375 399.933594 616.742188 404.492188 616.742188 C 409.054688 616.742188 413.609375 616.609375 418.160156 616.347656 C 422.710938 616.082031 427.253906 615.683594 431.78125 615.15625 C 436.3125 614.628906 440.820312 613.96875 445.3125 613.179688 C 449.800781 612.390625 454.265625 611.46875 458.703125 610.421875 C 463.140625 609.371094 467.542969 608.195312 471.910156 606.890625 C 476.28125 605.585938 480.609375 604.152344 484.894531 602.597656 C 489.179688 601.042969 493.417969 599.363281 497.605469 597.558594 C 501.792969 595.757812 505.925781 593.835938 510.003906 591.792969 C 514.078125 589.75 518.09375 587.589844 522.042969 585.316406 C 525.996094 583.039062 529.878906 580.652344 533.691406 578.152344 C 537.503906 575.652344 541.238281 573.042969 544.898438 570.324219 C 548.5625 567.605469 552.140625 564.785156 555.636719 561.859375 C 559.132812 558.933594 562.542969 555.910156 565.867188 552.785156 C 569.1875 549.664062 572.414062 546.445312 575.550781 543.132812 C 578.683594 539.824219 581.722656 536.421875 584.660156 532.9375 C 587.597656 529.449219 590.429688 525.878906 593.160156 522.226562 L 595.910156 518.546875 L 745.632812 518.546875 C 747.855469 513.082031 749.949219 507.566406 751.90625 502 C 753.863281 496.433594 755.683594 490.824219 757.371094 485.171875 C 759.054688 479.519531 760.605469 473.828125 762.015625 468.097656 C 763.425781 462.371094 764.699219 456.609375 765.832031 450.820312 C 766.964844 445.03125 767.957031 439.21875 768.808594 433.378906 C 769.660156 427.542969 770.371094 421.6875 770.9375 415.816406 C 771.507812 409.941406 771.933594 404.0625 772.21875 398.167969 C 772.503906 392.273438 772.648438 386.378906 772.648438 380.480469 C 772.648438 374.578125 772.503906 368.683594 772.21875 362.789062 C 771.933594 356.898438 771.507812 351.015625 770.9375 345.144531 C 770.371094 339.269531 769.660156 333.417969 768.808594 327.578125 C 767.957031 321.742188 766.964844 315.925781 765.832031 310.136719 C 764.699219 304.347656 763.425781 298.589844 762.015625 292.859375 C 760.605469 287.132812 759.054688 281.441406 757.371094 275.785156 C 755.683594 270.132812 753.863281 264.523438 751.90625 258.957031 C 749.949219 253.394531 747.855469 247.878906 745.632812 242.414062 L 595.910156 242.414062 Z M 593.207031 238.730469 " fill-opacity="1" fill-rule="nonzero"/><path fill="#8c52ff" d="M 404.53125 635.109375 C 399.710938 635.125 394.894531 635 390.078125 634.738281 C 385.265625 634.476562 380.464844 634.078125 375.671875 633.542969 C 370.882812 633.003906 366.109375 632.332031 361.359375 631.519531 C 356.605469 630.710938 351.882812 629.765625 347.183594 628.683594 C 342.484375 627.601562 337.820312 626.390625 333.195312 625.039062 C 328.566406 623.691406 323.980469 622.214844 319.4375 620.601562 C 314.890625 618.992188 310.398438 617.253906 305.953125 615.386719 C 301.511719 613.515625 297.125 611.523438 292.792969 609.402344 C 288.464844 607.285156 284.199219 605.042969 279.996094 602.679688 C 275.796875 600.316406 271.664062 597.832031 267.605469 595.234375 C 263.546875 592.632812 259.566406 589.917969 255.660156 587.089844 C 251.757812 584.261719 247.9375 581.324219 244.203125 578.277344 C 240.464844 575.230469 236.820312 572.078125 233.265625 568.824219 C 229.710938 565.566406 226.253906 562.210938 222.890625 558.757812 C 219.527344 555.304688 216.265625 551.757812 213.105469 548.113281 C 209.945312 544.472656 206.894531 540.746094 203.949219 536.929688 L 71.40625 536.929688 C 73.242188 540.859375 75.152344 544.753906 77.128906 548.617188 C 79.109375 552.476562 81.152344 556.300781 83.265625 560.089844 C 85.378906 563.878906 87.558594 567.632812 89.804688 571.34375 C 92.050781 575.054688 94.359375 578.726562 96.734375 582.355469 C 99.113281 585.984375 101.550781 589.574219 104.054688 593.117188 C 106.554688 596.660156 109.121094 600.160156 111.746094 603.613281 C 114.375 607.066406 117.0625 610.46875 119.808594 613.828125 C 122.554688 617.1875 125.363281 620.492188 128.226562 623.753906 C 131.089844 627.011719 134.011719 630.21875 136.988281 633.371094 C 139.96875 636.527344 143 639.628906 146.085938 642.675781 C 149.175781 645.722656 152.316406 648.714844 155.507812 651.652344 C 158.703125 654.589844 161.949219 657.46875 165.242188 660.289062 C 168.539062 663.109375 171.882812 665.875 175.277344 668.578125 C 178.667969 671.28125 182.109375 673.921875 185.597656 676.503906 C 189.082031 679.085938 192.613281 681.601562 196.191406 684.058594 C 199.765625 686.515625 203.386719 688.90625 207.046875 691.234375 C 210.707031 693.566406 214.40625 695.828125 218.148438 698.023438 C 221.890625 700.222656 225.667969 702.351562 229.484375 704.414062 C 233.300781 706.476562 237.152344 708.472656 241.039062 710.402344 C 244.925781 712.328125 248.847656 714.183594 252.800781 715.972656 C 256.75 717.761719 260.734375 719.480469 264.75 721.125 C 268.761719 722.773438 272.804688 724.347656 276.871094 725.851562 C 280.941406 727.355469 285.035156 728.789062 289.15625 730.148438 C 293.277344 731.507812 297.417969 732.792969 301.585938 734.003906 C 305.75 735.21875 309.9375 736.355469 314.140625 737.417969 C 318.347656 738.484375 322.570312 739.472656 326.8125 740.386719 C 331.054688 741.300781 335.308594 742.140625 339.578125 742.90625 C 343.851562 743.667969 348.132812 744.359375 352.429688 744.96875 C 356.722656 745.582031 361.027344 746.117188 365.339844 746.578125 C 369.65625 747.039062 373.976562 747.421875 378.304688 747.730469 C 382.632812 748.035156 386.960938 748.265625 391.296875 748.417969 C 395.632812 748.574219 399.972656 748.648438 404.308594 748.648438 C 408.648438 748.648438 412.984375 748.574219 417.320312 748.417969 C 421.65625 748.265625 425.988281 748.035156 430.316406 747.730469 C 434.644531 747.421875 438.964844 747.039062 443.277344 746.578125 C 447.589844 746.117188 451.894531 745.582031 456.191406 744.96875 C 460.484375 744.359375 464.769531 743.667969 469.039062 742.90625 C 473.308594 742.140625 477.566406 741.300781 481.808594 740.386719 C 486.046875 739.472656 490.269531 738.484375 494.476562 737.417969 C 498.683594 736.355469 502.867188 735.21875 507.035156 734.003906 C 511.199219 732.792969 515.34375 731.507812 519.460938 730.148438 C 523.582031 728.789062 527.675781 727.355469 531.746094 725.851562 C 535.816406 724.347656 539.855469 722.773438 543.871094 721.125 C 547.882812 719.480469 551.867188 717.761719 555.820312 715.972656 C 559.773438 714.183594 563.691406 712.328125 567.578125 710.402344 C 571.464844 708.472656 575.316406 706.476562 579.132812 704.414062 C 582.949219 702.351562 586.730469 700.222656 590.46875 698.023438 C 594.210938 695.828125 597.914062 693.566406 601.574219 691.234375 C 605.234375 688.90625 608.851562 686.515625 612.429688 684.058594 C 616.003906 681.601562 619.535156 679.085938 623.023438 676.503906 C 626.507812 673.921875 629.949219 671.28125 633.34375 668.578125 C 636.738281 665.875 640.082031 663.109375 643.375 660.289062 C 646.671875 657.46875 649.917969 654.589844 653.109375 651.652344 C 656.304688 648.714844 659.445312 645.722656 662.53125 642.675781 C 665.621094 639.628906 668.652344 636.527344 671.628906 633.371094 C 674.609375 630.21875 677.527344 627.011719 680.394531 623.753906 C 683.257812 620.492188 686.0625 617.1875 688.8125 613.828125 C 691.558594 610.46875 694.246094 607.066406 696.871094 603.613281 C 699.5 600.160156 702.0625 596.660156 704.566406 593.117188 C 707.066406 589.574219 709.507812 585.984375 711.882812 582.355469 C 714.257812 578.726562 716.570312 575.054688 718.816406 571.34375 C 721.0625 567.632812 723.242188 563.878906 725.351562 560.089844 C 727.464844 556.300781 729.511719 552.476562 731.488281 548.617188 C 733.464844 544.753906 735.375 540.859375 737.214844 536.929688 L 604.671875 536.929688 C 601.726562 540.746094 598.671875 544.472656 595.511719 548.113281 C 592.351562 551.757812 589.09375 555.304688 585.730469 558.757812 C 582.367188 562.210938 578.90625 565.566406 575.351562 568.824219 C 571.796875 572.078125 568.152344 575.230469 564.417969 578.277344 C 560.683594 581.324219 556.863281 584.261719 552.957031 587.089844 C 549.054688 589.917969 545.074219 592.632812 541.015625 595.234375 C 536.953125 597.832031 532.824219 600.316406 528.621094 602.679688 C 524.421875 605.042969 520.15625 607.285156 515.824219 609.402344 C 511.496094 611.523438 507.109375 613.515625 502.664062 615.386719 C 498.222656 617.253906 493.726562 618.992188 489.183594 620.601562 C 484.640625 622.214844 480.054688 623.691406 475.425781 625.039062 C 470.796875 626.390625 466.132812 627.601562 461.4375 628.683594 C 456.738281 629.765625 452.011719 630.710938 447.261719 631.519531 C 442.507812 632.332031 437.738281 633.003906 432.945312 633.542969 C 428.15625 634.078125 423.355469 634.476562 418.539062 634.738281 C 413.726562 635 408.910156 635.125 404.089844 635.109375 Z M 404.53125 125.800781 C 409.351562 125.785156 414.167969 125.910156 418.980469 126.171875 C 423.792969 126.433594 428.59375 126.832031 433.386719 127.371094 C 438.175781 127.90625 442.945312 128.582031 447.699219 129.390625 C 452.449219 130.203125 457.175781 131.148438 461.871094 132.226562 C 466.570312 133.308594 471.230469 134.523438 475.859375 135.871094 C 480.488281 137.21875 485.074219 138.699219 489.617188 140.308594 C 494.160156 141.921875 498.652344 143.660156 503.097656 145.527344 C 507.539062 147.394531 511.925781 149.390625 516.253906 151.507812 C 520.585938 153.628906 524.851562 155.871094 529.050781 158.234375 C 533.25 160.597656 537.382812 163.078125 541.441406 165.679688 C 545.5 168.28125 549.480469 170.992188 553.382812 173.820312 C 557.285156 176.648438 561.105469 179.585938 564.839844 182.632812 C 568.574219 185.683594 572.21875 188.832031 575.773438 192.089844 C 579.328125 195.34375 582.789062 198.699219 586.148438 202.152344 C 589.511719 205.609375 592.773438 209.15625 595.933594 212.796875 C 599.089844 216.4375 602.144531 220.164062 605.089844 223.980469 L 737.4375 223.980469 C 735.597656 220.050781 733.6875 216.15625 731.710938 212.292969 C 729.734375 208.433594 727.6875 204.605469 725.574219 200.816406 C 723.460938 197.027344 721.28125 193.277344 719.035156 189.566406 C 716.789062 185.855469 714.480469 182.183594 712.105469 178.554688 C 709.726562 174.921875 707.289062 171.335938 704.785156 167.792969 C 702.285156 164.25 699.71875 160.75 697.09375 157.296875 C 694.464844 153.84375 691.777344 150.441406 689.03125 147.082031 C 686.285156 143.722656 683.480469 140.414062 680.613281 137.15625 C 677.75 133.898438 674.828125 130.691406 671.851562 127.539062 C 668.875 124.382812 665.839844 121.28125 662.753906 118.234375 C 659.664062 115.1875 656.523438 112.195312 653.332031 109.257812 C 650.136719 106.320312 646.894531 103.441406 643.597656 100.621094 C 640.300781 97.796875 636.957031 95.035156 633.5625 92.332031 C 630.171875 89.628906 626.730469 86.988281 623.242188 84.40625 C 619.757812 81.824219 616.226562 79.304688 612.648438 76.851562 C 609.074219 74.394531 605.453125 72 601.792969 69.671875 C 598.132812 67.34375 594.433594 65.082031 590.691406 62.886719 C 586.949219 60.6875 583.171875 58.558594 579.355469 56.496094 C 575.539062 54.429688 571.6875 52.4375 567.800781 50.507812 C 563.914062 48.582031 559.992188 46.726562 556.042969 44.9375 C 552.089844 43.148438 548.105469 41.429688 544.089844 39.785156 C 540.078125 38.136719 536.035156 36.5625 531.96875 35.058594 C 527.898438 33.550781 523.804688 32.121094 519.683594 30.761719 C 515.5625 29.402344 511.421875 28.117188 507.253906 26.90625 C 503.089844 25.691406 498.902344 24.554688 494.699219 23.488281 C 490.492188 22.425781 486.269531 21.4375 482.027344 20.523438 C 477.785156 19.605469 473.53125 18.769531 469.261719 18.003906 C 464.988281 17.238281 460.707031 16.550781 456.414062 15.9375 C 452.117188 15.328125 447.8125 14.789062 443.5 14.332031 C 439.183594 13.871094 434.863281 13.488281 430.535156 13.179688 C 426.207031 12.875 421.878906 12.644531 417.542969 12.488281 C 413.207031 12.335938 408.867188 12.257812 404.53125 12.257812 C 400.191406 12.257812 395.855469 12.335938 391.519531 12.488281 C 387.183594 12.644531 382.851562 12.875 378.523438 13.179688 C 374.195312 13.488281 369.875 13.871094 365.5625 14.332031 C 361.25 14.789062 356.945312 15.328125 352.648438 15.9375 C 348.355469 16.550781 344.070312 17.238281 339.800781 18.003906 C 335.53125 18.769531 331.273438 19.605469 327.035156 20.523438 C 322.792969 21.4375 318.570312 22.425781 314.363281 23.488281 C 310.15625 24.554688 305.972656 25.691406 301.804688 26.90625 C 297.640625 28.117188 293.496094 29.402344 289.378906 30.761719 C 285.257812 32.121094 281.164062 33.550781 277.09375 35.058594 C 273.023438 36.5625 268.984375 38.136719 264.96875 39.785156 C 260.957031 41.429688 256.972656 43.148438 253.019531 44.9375 C 249.066406 46.726562 245.148438 48.582031 241.261719 50.507812 C 237.375 52.4375 233.523438 54.429688 229.707031 56.496094 C 225.890625 58.558594 222.109375 60.6875 218.371094 62.886719 C 214.628906 65.082031 210.929688 67.34375 207.265625 69.671875 C 203.605469 72 199.988281 74.394531 196.410156 76.851562 C 192.835938 79.304688 189.304688 81.824219 185.816406 84.40625 C 182.332031 86.988281 178.890625 89.628906 175.496094 92.332031 C 172.105469 95.035156 168.757812 97.796875 165.464844 100.621094 C 162.167969 103.441406 158.921875 106.320312 155.730469 109.257812 C 152.535156 112.195312 149.394531 115.1875 146.308594 118.234375 C 143.21875 121.28125 140.1875 124.382812 137.210938 127.539062 C 134.230469 130.691406 131.3125 133.898438 128.445312 137.15625 C 125.582031 140.414062 122.777344 143.722656 120.03125 147.082031 C 117.28125 150.441406 114.59375 153.84375 111.96875 157.296875 C 109.34375 160.75 106.777344 164.25 104.273438 167.792969 C 101.773438 171.335938 99.332031 174.921875 96.957031 178.554688 C 94.582031 182.183594 92.269531 185.855469 90.023438 189.566406 C 87.777344 193.277344 85.601562 197.027344 83.488281 200.816406 C 81.375 204.605469 79.328125 208.433594 77.351562 212.292969 C 75.375 216.15625 73.464844 220.050781 71.625 223.980469 L 204.167969 223.980469 C 207.113281 220.164062 210.167969 216.4375 213.328125 212.792969 C 216.488281 209.152344 219.746094 205.605469 223.109375 202.152344 C 226.472656 198.699219 229.933594 195.34375 233.488281 192.085938 C 237.042969 188.832031 240.6875 185.679688 244.421875 182.632812 C 248.160156 179.585938 251.976562 176.648438 255.882812 173.820312 C 259.785156 170.992188 263.765625 168.277344 267.828125 165.675781 C 271.886719 163.074219 276.015625 160.59375 280.21875 158.230469 C 284.417969 155.867188 288.683594 153.625 293.015625 151.507812 C 297.34375 149.386719 301.730469 147.394531 306.175781 145.523438 C 310.621094 143.65625 315.113281 141.917969 319.65625 140.308594 C 324.199219 138.695312 328.785156 137.21875 333.414062 135.867188 C 338.042969 134.519531 342.707031 133.304688 347.40625 132.226562 C 352.101562 131.144531 356.828125 130.199219 361.578125 129.390625 C 366.332031 128.578125 371.101562 127.90625 375.894531 127.367188 C 380.683594 126.832031 385.488281 126.433594 390.300781 126.171875 C 395.113281 125.910156 399.929688 125.785156 404.75 125.800781 Z M 404.53125 125.800781 " fill-opacity="1" fill-rule="nonzero"/><path fill="#ffffff" d="M 595.980469 518.519531 L 593.234375 522.203125 C 590.503906 525.855469 587.667969 529.425781 584.730469 532.910156 C 581.792969 536.398438 578.757812 539.796875 575.625 543.109375 C 572.488281 546.421875 569.261719 549.636719 565.941406 552.761719 C 562.617188 555.882812 559.207031 558.910156 555.710938 561.835938 C 552.214844 564.761719 548.636719 567.582031 544.972656 570.300781 C 541.3125 573.019531 537.574219 575.625 533.761719 578.128906 C 529.949219 580.628906 526.070312 583.015625 522.117188 585.292969 C 518.167969 587.566406 514.152344 589.726562 510.074219 591.769531 C 506 593.808594 501.867188 595.734375 497.679688 597.535156 C 493.488281 599.335938 489.253906 601.015625 484.96875 602.574219 C 480.679688 604.128906 476.355469 605.558594 471.984375 606.863281 C 467.617188 608.167969 463.214844 609.347656 458.777344 610.394531 C 454.339844 611.445312 449.875 612.363281 445.386719 613.15625 C 440.894531 613.945312 436.382812 614.605469 431.855469 615.132812 C 427.328125 615.660156 422.785156 616.058594 418.234375 616.320312 C 413.683594 616.585938 409.125 616.71875 404.566406 616.71875 C 400.007812 616.71875 395.453125 616.585938 390.898438 616.320312 C 386.347656 616.058594 381.808594 615.660156 377.277344 615.132812 C 372.75 614.605469 368.242188 613.945312 363.75 613.15625 C 359.257812 612.363281 354.796875 611.445312 350.359375 610.394531 C 345.921875 609.347656 341.519531 608.167969 337.148438 606.863281 C 332.78125 605.558594 328.453125 604.128906 324.167969 602.574219 C 319.882812 601.015625 315.644531 599.335938 311.457031 597.535156 C 307.269531 595.734375 303.136719 593.808594 299.058594 591.769531 C 294.980469 589.726562 290.96875 587.566406 287.015625 585.292969 C 283.066406 583.015625 279.183594 580.628906 275.371094 578.128906 C 271.558594 575.628906 267.820312 573.019531 264.160156 570.300781 C 260.5 567.582031 256.921875 564.761719 253.421875 561.835938 C 249.925781 558.910156 246.515625 555.882812 243.195312 552.761719 C 239.875 549.636719 236.644531 546.421875 233.511719 543.109375 C 230.375 539.796875 227.339844 536.398438 224.402344 532.910156 C 221.464844 529.425781 218.632812 525.855469 215.902344 522.203125 L 213.152344 518.519531 L 63.355469 518.519531 L 71.625 536.929688 L 204.167969 536.929688 C 207.125 540.734375 210.1875 544.453125 213.351562 548.085938 C 216.519531 551.71875 219.789062 555.253906 223.15625 558.699219 C 226.527344 562.144531 229.988281 565.492188 233.546875 568.742188 C 237.109375 571.988281 240.757812 575.132812 244.496094 578.175781 C 248.234375 581.214844 252.054688 584.148438 255.960938 586.96875 C 259.863281 589.792969 263.847656 592.503906 267.90625 595.101562 C 271.964844 597.695312 276.09375 600.175781 280.296875 602.535156 C 284.496094 604.898438 288.761719 607.136719 293.089844 609.257812 C 297.414062 611.375 301.800781 613.367188 306.242188 615.238281 C 310.683594 617.105469 315.175781 618.847656 319.714844 620.460938 C 324.253906 622.074219 328.835938 623.558594 333.460938 624.910156 C 338.085938 626.261719 342.746094 627.484375 347.441406 628.570312 C 352.136719 629.65625 356.855469 630.609375 361.605469 631.429688 C 366.355469 632.246094 371.121094 632.929688 375.910156 633.476562 C 380.695312 634.023438 385.496094 634.4375 390.308594 634.710938 C 395.117188 634.984375 399.933594 635.121094 404.75 635.121094 C 409.570312 635.121094 414.382812 634.984375 419.195312 634.710938 C 424.007812 634.4375 428.804688 634.023438 433.59375 633.476562 C 438.378906 632.929688 443.148438 632.246094 447.898438 631.429688 C 452.644531 630.609375 457.367188 629.65625 462.0625 628.570312 C 466.753906 627.484375 471.414062 626.261719 476.039062 624.910156 C 480.664062 623.558594 485.246094 622.074219 489.789062 620.460938 C 494.328125 618.847656 498.820312 617.105469 503.261719 615.238281 C 507.703125 613.367188 512.085938 611.375 516.414062 609.257812 C 520.742188 607.136719 525.007812 604.898438 529.207031 602.535156 C 533.40625 600.175781 537.539062 597.695312 541.597656 595.101562 C 545.65625 592.503906 549.636719 589.792969 553.542969 586.96875 C 557.449219 584.148438 561.269531 581.214844 565.007812 578.175781 C 568.746094 575.132812 572.394531 571.988281 575.953125 568.742188 C 579.511719 565.492188 582.976562 562.144531 586.347656 558.699219 C 589.714844 555.253906 592.984375 551.71875 596.148438 548.085938 C 599.316406 544.453125 602.378906 540.734375 605.335938 536.929688 L 737.878906 536.929688 L 746.148438 518.519531 Z M 213.078125 242.386719 L 215.828125 238.707031 C 218.558594 235.054688 221.390625 231.484375 224.328125 228 C 227.265625 224.511719 230.300781 221.113281 233.4375 217.800781 C 236.570312 214.488281 239.800781 211.273438 243.121094 208.148438 C 246.441406 205.023438 249.851562 202 253.351562 199.074219 C 256.847656 196.148438 260.425781 193.328125 264.085938 190.609375 C 267.75 187.890625 271.484375 185.28125 275.296875 182.78125 C 279.109375 180.28125 282.992188 177.894531 286.945312 175.617188 C 290.894531 173.34375 294.910156 171.183594 298.984375 169.140625 C 303.0625 167.097656 307.195312 165.175781 311.382812 163.375 C 315.570312 161.574219 319.808594 159.894531 324.09375 158.335938 C 328.378906 156.78125 332.707031 155.351562 337.074219 154.046875 C 341.445312 152.738281 345.847656 151.5625 350.285156 150.515625 C 354.722656 149.464844 359.1875 148.542969 363.675781 147.753906 C 368.167969 146.964844 372.675781 146.304688 377.207031 145.777344 C 381.734375 145.25 386.273438 144.851562 390.828125 144.589844 C 395.378906 144.324219 399.933594 144.191406 404.492188 144.191406 C 409.054688 144.191406 413.609375 144.324219 418.160156 144.589844 C 422.710938 144.851562 427.253906 145.25 431.78125 145.777344 C 436.3125 146.304688 440.820312 146.964844 445.3125 147.753906 C 449.800781 148.542969 454.265625 149.464844 458.703125 150.515625 C 463.140625 151.5625 467.542969 152.738281 471.910156 154.046875 C 476.28125 155.351562 480.609375 156.78125 484.894531 158.335938 C 489.179688 159.894531 493.417969 161.574219 497.605469 163.375 C 501.792969 165.175781 505.925781 167.097656 510.003906 169.140625 C 514.078125 171.183594 518.09375 173.34375 522.042969 175.617188 C 525.996094 177.894531 529.878906 180.28125 533.691406 182.78125 C 537.503906 185.28125 541.238281 187.890625 544.898438 190.609375 C 548.5625 193.328125 552.140625 196.148438 555.636719 199.074219 C 559.132812 202 562.542969 205.023438 565.867188 208.148438 C 569.1875 211.273438 572.414062 214.488281 575.550781 217.800781 C 578.683594 221.113281 581.722656 224.511719 584.660156 228 C 587.597656 231.484375 590.429688 235.054688 593.160156 238.707031 L 595.910156 242.386719 L 745.632812 242.386719 L 737.363281 223.980469 L 604.820312 223.980469 C 601.863281 220.175781 598.800781 216.457031 595.636719 212.824219 C 592.46875 209.191406 589.199219 205.65625 585.832031 202.207031 C 582.464844 198.761719 579 195.417969 575.441406 192.167969 C 571.882812 188.921875 568.234375 185.777344 564.496094 182.734375 C 560.757812 179.695312 556.9375 176.761719 553.03125 173.941406 C 549.128906 171.117188 545.144531 168.40625 541.085938 165.808594 C 537.027344 163.214844 532.898438 160.734375 528.699219 158.375 C 524.496094 156.011719 520.234375 153.773438 515.90625 151.652344 C 511.578125 149.535156 507.195312 147.542969 502.753906 145.671875 C 498.3125 143.804688 493.820312 142.0625 489.28125 140.449219 C 484.742188 138.835938 480.160156 137.351562 475.535156 136 C 470.910156 134.648438 466.25 133.425781 461.554688 132.339844 C 456.863281 131.253906 452.140625 130.300781 447.390625 129.480469 C 442.644531 128.660156 437.875 127.980469 433.089844 127.433594 C 428.300781 126.882812 423.503906 126.472656 418.691406 126.199219 C 413.882812 125.925781 409.066406 125.789062 404.25 125.789062 C 399.429688 125.789062 394.617188 125.925781 389.804688 126.199219 C 384.996094 126.472656 380.195312 126.882812 375.40625 127.433594 C 370.621094 127.980469 365.851562 128.660156 361.105469 129.480469 C 356.355469 130.300781 351.636719 131.253906 346.941406 132.339844 C 342.246094 133.425781 337.585938 134.648438 332.964844 136 C 328.339844 137.351562 323.753906 138.835938 319.214844 140.449219 C 314.675781 142.0625 310.183594 143.804688 305.742188 145.671875 C 301.300781 147.542969 296.917969 149.535156 292.589844 151.652344 C 288.261719 153.773438 284 156.011719 279.796875 158.375 C 275.597656 160.734375 271.46875 163.214844 267.410156 165.808594 C 263.351562 168.40625 259.371094 171.117188 255.464844 173.941406 C 251.558594 176.761719 247.738281 179.695312 244 182.734375 C 240.261719 185.777344 236.613281 188.921875 233.054688 192.167969 C 229.496094 195.417969 226.03125 198.761719 222.664062 202.207031 C 219.296875 205.65625 216.027344 209.191406 212.859375 212.824219 C 209.695312 216.457031 206.632812 220.175781 203.679688 223.980469 L 71.132812 223.980469 L 62.863281 242.386719 Z M 213.078125 242.386719 " fill-opacity="1" fill-rule="nonzero"/><path fill="#000000" d="M 441.472656 444.222656 C 441.582031 442.085938 441.488281 439.957031 441.183594 437.835938 C 440.882812 435.714844 440.378906 433.644531 439.671875 431.621094 C 438.96875 429.601562 438.074219 427.664062 436.996094 425.816406 C 435.914062 423.96875 434.664062 422.242188 433.25 420.636719 C 429.242188 416.953125 424.886719 413.746094 420.179688 411.019531 C 415.472656 408.292969 410.527344 406.105469 405.339844 404.460938 C 393.742188 400.1875 382.417969 395.28125 371.371094 389.734375 C 362.4375 385.257812 354.28125 379.652344 346.898438 372.917969 C 340.054688 366.582031 334.753906 359.144531 330.992188 350.609375 C 328.988281 345.773438 327.503906 340.785156 326.546875 335.640625 C 325.585938 330.496094 325.171875 325.304688 325.300781 320.074219 C 325.214844 317.773438 325.25 315.472656 325.402344 313.171875 C 325.554688 310.875 325.824219 308.589844 326.207031 306.320312 C 326.59375 304.046875 327.09375 301.800781 327.707031 299.582031 C 328.320312 297.363281 329.046875 295.179688 329.882812 293.035156 C 330.71875 290.886719 331.664062 288.789062 332.714844 286.738281 C 333.765625 284.691406 334.917969 282.699219 336.171875 280.765625 C 337.425781 278.835938 338.773438 276.972656 340.21875 275.175781 C 341.660156 273.382812 343.191406 271.664062 344.8125 270.027344 C 348.296875 266.683594 352.050781 263.667969 356.066406 260.988281 C 360.082031 258.304688 364.304688 255.992188 368.726562 254.050781 C 373.148438 252.109375 377.707031 250.570312 382.402344 249.433594 C 387.097656 248.292969 391.855469 247.574219 396.675781 247.273438 L 396.675781 208.640625 L 425.589844 208.640625 L 425.589844 247.835938 C 430.421875 248.34375 435.164062 249.304688 439.808594 250.726562 C 444.457031 252.148438 448.925781 254 453.214844 256.285156 C 457.503906 258.570312 461.53125 261.242188 465.304688 264.304688 C 469.078125 267.371094 472.523438 270.765625 475.636719 274.492188 C 478.761719 278.5625 481.503906 282.871094 483.871094 287.417969 C 486.242188 291.96875 488.195312 296.6875 489.734375 301.578125 C 491.277344 306.472656 492.378906 311.460938 493.046875 316.542969 C 493.710938 321.628906 493.929688 326.734375 493.703125 331.855469 L 441.496094 331.855469 C 441.710938 328.996094 441.679688 326.144531 441.402344 323.289062 C 441.125 320.4375 440.605469 317.628906 439.84375 314.867188 C 439.082031 312.105469 438.089844 309.425781 436.867188 306.835938 C 435.644531 304.242188 434.210938 301.777344 432.5625 299.429688 C 431.113281 297.675781 429.488281 296.105469 427.679688 294.726562 C 425.871094 293.34375 423.929688 292.1875 421.855469 291.253906 C 419.777344 290.324219 417.625 289.640625 415.390625 289.203125 C 413.15625 288.769531 410.902344 288.59375 408.628906 288.679688 C 406.53125 288.550781 404.441406 288.636719 402.359375 288.9375 C 400.277344 289.238281 398.25 289.75 396.273438 290.472656 C 394.300781 291.195312 392.421875 292.113281 390.636719 293.226562 C 388.851562 294.335938 387.199219 295.621094 385.679688 297.074219 C 384.269531 298.644531 383.027344 300.339844 381.953125 302.15625 C 380.878906 303.976562 379.992188 305.878906 379.296875 307.871094 C 378.597656 309.867188 378.105469 311.90625 377.8125 313.996094 C 377.519531 316.089844 377.433594 318.1875 377.554688 320.292969 C 377.460938 322.304688 377.5625 324.300781 377.863281 326.289062 C 378.160156 328.277344 378.652344 330.21875 379.335938 332.109375 C 380.015625 334 380.878906 335.804688 381.917969 337.527344 C 382.957031 339.25 384.152344 340.851562 385.507812 342.335938 C 389.824219 346.105469 394.46875 349.421875 399.4375 352.277344 C 404.40625 355.136719 409.605469 357.484375 415.035156 359.320312 C 427.191406 364.066406 439.023438 369.515625 450.527344 375.667969 C 459.191406 380.324219 467.019531 386.109375 474.019531 393.023438 C 480.371094 399.390625 485.246094 406.738281 488.648438 415.0625 C 492.222656 424.335938 493.90625 433.941406 493.703125 443.878906 C 493.796875 446.167969 493.773438 448.457031 493.632812 450.742188 C 493.492188 453.027344 493.238281 455.300781 492.867188 457.5625 C 492.492188 459.824219 492.007812 462.058594 491.410156 464.269531 C 490.808594 466.480469 490.101562 468.65625 489.277344 470.792969 C 488.457031 472.933594 487.53125 475.023438 486.496094 477.066406 C 485.460938 479.113281 484.328125 481.097656 483.089844 483.027344 C 481.855469 484.953125 480.523438 486.816406 479.097656 488.609375 C 477.671875 490.402344 476.160156 492.117188 474.558594 493.753906 C 470.988281 497.101562 467.15625 500.113281 463.0625 502.789062 C 458.964844 505.464844 454.667969 507.765625 450.171875 509.691406 C 445.675781 511.613281 441.042969 513.136719 436.28125 514.253906 C 431.519531 515.367188 426.695312 516.0625 421.808594 516.335938 L 421.808594 552.269531 L 393.09375 552.269531 L 393.09375 516.507812 C 387.703125 516.195312 382.394531 515.386719 377.15625 514.082031 C 371.917969 512.777344 366.847656 511.003906 361.941406 508.753906 C 357.035156 506.503906 352.378906 503.824219 347.972656 500.707031 C 343.566406 497.59375 339.484375 494.097656 335.730469 490.21875 C 332.234375 486.144531 329.152344 481.773438 326.484375 477.113281 C 323.816406 472.449219 321.613281 467.578125 319.875 462.496094 C 318.132812 457.414062 316.886719 452.214844 316.136719 446.894531 C 315.386719 441.578125 315.140625 436.234375 315.40625 430.871094 L 367.613281 430.871094 C 367.417969 433.8125 367.488281 436.75 367.832031 439.679688 C 368.175781 442.609375 368.785156 445.484375 369.65625 448.300781 C 370.53125 451.117188 371.652344 453.832031 373.027344 456.445312 C 374.398438 459.054688 376 461.519531 377.824219 463.835938 C 379.703125 465.804688 381.773438 467.546875 384.035156 469.066406 C 386.296875 470.582031 388.695312 471.835938 391.230469 472.824219 C 393.765625 473.816406 396.378906 474.519531 399.070312 474.9375 C 401.761719 475.351562 404.464844 475.472656 407.179688 475.296875 C 409.445312 475.421875 411.699219 475.335938 413.945312 475.03125 C 416.191406 474.730469 418.390625 474.222656 420.539062 473.503906 C 422.6875 472.785156 424.75 471.871094 426.726562 470.757812 C 428.703125 469.648438 430.558594 468.363281 432.289062 466.902344 C 433.835938 465.460938 435.203125 463.867188 436.402344 462.125 C 437.597656 460.382812 438.59375 458.535156 439.386719 456.574219 C 440.183594 454.617188 440.757812 452.597656 441.113281 450.515625 C 441.46875 448.429688 441.597656 446.332031 441.496094 444.222656 Z M 441.472656 444.222656 " fill-opacity="1" fill-rule="nonzero"/></svg>