<svg xmlns="http://www.w3.org/2000/svg" viewBox="0 0 32 32">
  <circle cx="16" cy="16" r="16" fill="#F7931A"/>
  <path fill="#FFFFFF" d="M22.5 14.06c.31-2.07-1.27-3.18-3.43-3.92l.7-2.81-1.71-.43-.68 2.74c-.45-.11-.92-.22-1.38-.32l.69-2.75-1.71-.43-.7 2.81c-.37-.08-.74-.17-1.09-.26l-2.36-.59-.46 1.83s1.27.29 1.24.31c.69.17.82.63.8 1l-.8 3.2c.05.01.11.03.18.06l-.18-.05-1.12 4.49c-.08.21-.3.52-.79.4.02.02-1.24-.31-1.24-.31l-.85 1.96 2.23.56c.41.1.82.21 1.22.31l-.71 2.85 1.71.43.7-2.82c.47.13.92.24 1.37.36l-.7 2.8 1.71.43.71-2.84c2.92.55 5.11.33 6.04-2.31.74-2.13-.04-3.35-1.57-4.15 1.12-.26 1.96-1 2.18-2.52zm-3.9 5.47c-.53 2.12-4.09.97-5.24.69l.94-3.75c1.16.29 4.86.86 4.3 3.06zm.53-5.5c-.48 1.93-3.44.95-4.41.71l.85-3.4c.96.24 4.07.69 3.56 2.69z"/>
</svg>
