<svg xmlns="http://www.w3.org/2000/svg" viewBox="0 0 32 32">
  <circle cx="16" cy="16" r="16" fill="#2775CA"/>
  <path fill="#FFFFFF" d="M13.5 25.06c0 .28-.22.42-.5.36A10.01 10.01 0 0 1 6 16c0-3.84 2.16-7.18 5.33-8.86.2-.1.42.02.42.28v1.29c0 .16-.1.32-.24.4A7.97 7.97 0 0 0 8 16a7.97 7.97 0 0 0 3.51 6.62c.14.08.24.24.24.4v1.04zm5.74-1.48c0 .22-.18.4-.4.4h-1.68c-.22 0-.4-.18-.4-.4v-1.56c-1.72-.24-2.8-1.08-3.16-2.4-.06-.22.1-.42.32-.42h1.4c.18 0 .32.12.38.28.2.76.76 1.22 1.82 1.22 1.2 0 1.74-.56 1.74-1.28 0-.72-.4-1.04-1.82-1.38-2.08-.48-3.24-1.08-3.24-2.84 0-1.4 1.02-2.42 2.8-2.72V11.4c0-.22.18-.4.4-.4h1.68c.22 0 .4.18.4.4v1.52c1.36.28 2.3 1.02 2.66 2.24.08.22-.1.42-.32.42h-1.3c-.16 0-.3-.1-.36-.26-.24-.7-.78-1.1-1.72-1.1-1.06 0-1.6.5-1.6 1.18 0 .72.44 1.02 1.9 1.36 2.06.48 3.2 1.1 3.2 2.86 0 1.48-1.08 2.54-2.96 2.82v1.14zM19 25.42c-.28.06-.5-.08-.5-.36v-1.04c0-.16.1-.32.24-.4A7.97 7.97 0 0 0 24 16a7.97 7.97 0 0 0-3.51-6.62.46.46 0 0 1-.24-.4V7.94c0-.26.18-.38.42-.28A10.01 10.01 0 0 1 26 16c0 4.19-2.58 7.78-6.24 9.28l-.76.14z"/>
</svg>
