<svg xmlns="http://www.w3.org/2000/svg" viewBox="0 0 32 32">
  <circle cx="16" cy="16" r="16" fill="#26A17B"/>
  <path fill="#FFFFFF" d="M17.92 17.72v-.02c-.12.01-.72.04-2.08.04-1.08 0-1.84-.03-2.1-.04v.02c-4.14-.18-7.24-.9-7.24-1.76 0-.86 3.1-1.58 7.24-1.76v2.8c.26.02 1.04.06 2.12.06 1.3 0 1.92-.04 2.06-.06v-2.8c4.12.18 7.2.9 7.2 1.76 0 .86-3.08 1.58-7.2 1.76zm0-3.82v-2.5h5.82V8h-15.5v3.4h5.82v2.5c-4.68.22-8.2 1.14-8.2 2.24 0 1.1 3.52 2.02 8.2 2.24v8.02h3.86v-8.02c4.66-.22 8.16-1.14 8.16-2.24 0-1.1-3.5-2.02-8.16-2.24z"/>
</svg>
